<svg width="341" height="353" viewBox="0 0 341 353" fill="none" xmlns="http://www.w3.org/2000/svg">
<path d="M-2 0L269 6.98816V286.514L-2 295V0Z" fill="#EE0064"/>
<g filter="url(#filter0_d_726_14)">
<path d="M1 15.9443L272.433 22.0718L271.588 59.522L1.00157 53.5L1 15.9443Z" fill="#FF98BA"/>
</g>
<g filter="url(#filter1_d_726_14)">
<path d="M1.00195 90L272.923 96.2966L272.078 133.747L1.00237 127.627L1.00195 90Z" fill="#FF98BA"/>
</g>
<g filter="url(#filter2_d_726_14)">
<path d="M1 164L273.176 170.415L272.331 207.865L1 201.757L1 164Z" fill="#FF98BA"/>
</g>
<g filter="url(#filter3_d_726_14)">
<path d="M1.00014 238.5L272.629 244.335L271.783 281.785L1.00049 275.678L1.00014 238.5Z" fill="#FF98BA"/>
</g>
<path d="M14.113 42L13.819 40.152L15.184 39.879V29.505L13.861 29.358V27.489H23.437L23.836 31.773H22.198L21.337 29.694H17.935V33.432H21.127V35.637H17.935V39.795H21.484L22.261 37.716H23.92L23.479 42H14.113ZM29.8984 42L25.4884 29.505L24.7324 29.358V27.489H29.7724L30.0664 29.148L28.4494 29.505L31.7464 39.27L35.0014 29.505L33.0904 29.127V27.489H37.9834V29.358L37.2064 29.505L32.8594 42H29.8984ZM39.1735 42L38.8795 40.152L40.2445 39.879V29.505L38.9215 29.358V27.489H48.4975L48.8965 31.773H47.2585L46.3975 29.694H42.9955V33.432H46.1875V35.637H42.9955V39.795H46.5445L47.3215 37.716H48.9805L48.5395 42H39.1735ZM50.696 42L50.507 40.215L51.956 39.921V29.547L50.528 29.4V27.489H55.673C57.045 27.489 58.179 27.692 59.075 28.098C59.971 28.504 60.636 29.064 61.07 29.778C61.504 30.478 61.721 31.29 61.721 32.214C61.721 33.236 61.462 34.104 60.944 34.818C60.426 35.518 59.712 36.057 58.802 36.435L60.65 39.963L61.973 40.173V42H58.424L56.24 37.065C55.764 37.107 55.253 37.128 54.707 37.128V40.005L55.799 40.173V42H50.696ZM54.707 34.902H55.4C56.646 34.902 57.535 34.65 58.067 34.146C58.613 33.628 58.886 33.005 58.886 32.277C58.886 31.745 58.767 31.29 58.529 30.912C58.305 30.534 57.906 30.247 57.332 30.051C56.772 29.841 55.981 29.729 54.959 29.715H54.707V34.902ZM65.0693 42L64.8593 40.467L67.2533 39.984V36.708L63.2423 29.568L62.4023 29.358V27.489H67.5263L67.8413 29.148L66.3503 29.442L68.9543 33.978L71.3063 29.379L70.0253 29.148V27.489H74.6663V29.337L73.7423 29.568L70.0043 36.729V39.984L72.4193 40.467L72.2303 42H65.0693ZM75.8005 42L75.5065 40.152L76.8715 39.879V29.505L75.5485 29.337V27.489H79.2865C81.8345 27.489 83.8225 28.077 85.2505 29.253C86.6925 30.429 87.4135 32.2 87.4135 34.566C87.4135 36.932 86.8045 38.766 85.5865 40.068C84.3685 41.356 82.5695 42 80.1895 42H75.8005ZM80.0215 39.816C81.4915 39.816 82.6115 39.375 83.3815 38.493C84.1515 37.611 84.5365 36.323 84.5365 34.629C84.5365 32.991 84.1235 31.766 83.2975 30.954C82.4715 30.128 81.2815 29.708 79.7275 29.694H79.6225V39.795L80.0215 39.816ZM88.001 42L87.728 40.362L88.883 39.984L93.041 27.489H95.645L99.866 39.984L100.832 40.362L100.622 42H95.162V40.425L96.842 39.984L96.086 37.422H91.97L91.172 40.068L93.02 40.404V42H88.001ZM92.621 35.217H95.162L94.049 30.471L92.621 35.217ZM102.619 42L102.409 40.467L104.803 39.984V36.708L100.792 29.568L99.9521 29.358V27.489H105.076L105.391 29.148L103.9 29.442L106.504 33.978L108.856 29.379L107.575 29.148V27.489H112.216V29.337L111.292 29.568L107.554 36.729V39.984L109.969 40.467L109.78 42H102.619ZM114.135 42.084C113.757 42.084 113.428 41.951 113.148 41.685C112.868 41.405 112.728 41.069 112.728 40.677C112.728 40.285 112.868 39.956 113.148 39.69C113.428 39.424 113.757 39.291 114.135 39.291C114.527 39.291 114.856 39.424 115.122 39.69C115.402 39.956 115.542 40.285 115.542 40.677C115.542 41.069 115.402 41.405 115.122 41.685C114.856 41.951 114.527 42.084 114.135 42.084ZM118.564 42.084C118.186 42.084 117.857 41.951 117.577 41.685C117.297 41.405 117.157 41.069 117.157 40.677C117.157 40.285 117.297 39.956 117.577 39.69C117.857 39.424 118.186 39.291 118.564 39.291C118.956 39.291 119.285 39.424 119.551 39.69C119.831 39.956 119.971 40.285 119.971 40.677C119.971 41.069 119.831 41.405 119.551 41.685C119.285 41.951 118.956 42.084 118.564 42.084ZM122.994 42.084C122.616 42.084 122.287 41.951 122.007 41.685C121.727 41.405 121.587 41.069 121.587 40.677C121.587 40.285 121.727 39.956 122.007 39.69C122.287 39.424 122.616 39.291 122.994 39.291C123.386 39.291 123.715 39.424 123.981 39.69C124.261 39.956 124.401 40.285 124.401 40.677C124.401 41.069 124.261 41.405 123.981 41.685C123.715 41.951 123.386 42.084 122.994 42.084ZM134.246 352L133.973 350.362L135.128 349.984L139.286 337.489H141.89L146.111 349.984L147.077 350.362L146.867 352H141.407V350.425L143.087 349.984L142.331 347.422H138.215L137.417 350.068L139.265 350.404V352H134.246ZM138.866 345.217H141.407L140.294 340.471L138.866 345.217ZM153.279 352L152.943 350.173L154.392 349.9V339.589L153.048 339.442V337.489H158.424L163.191 349.984V339.547L161.973 339.4V337.489H166.488L166.803 339.442L165.396 339.694V352H161.154L156.597 340.177V349.816L157.668 350.152L157.647 352H153.279ZM168.537 352L168.243 350.152L169.608 349.879V339.505L168.285 339.358V337.489H177.861L178.26 341.773H176.622L175.761 339.694H172.359V343.432H175.551V345.637H172.359V349.795H175.908L176.685 347.716H178.344L177.903 352H168.537ZM182.873 352L180.563 339.652L179.408 339.379V337.489H184.532L184.889 339.148L183.419 339.358L185.141 349.06L188.375 337.762H191.357L194.486 349.291L196.124 339.358L194.36 339.085L194.591 337.489H199.82V339.337L198.182 339.757L195.872 352H192.344L189.383 341.353L186.548 352H182.873ZM204.978 352L204.705 350.362L205.86 349.984L210.018 337.489H212.622L216.843 349.984L217.809 350.362L217.599 352H212.139V350.425L213.819 349.984L213.063 347.422H208.947L208.149 350.068L209.997 350.404V352H204.978ZM209.598 345.217H212.139L211.026 340.471L209.598 345.217ZM218.966 352L218.672 350.152L220.037 349.879V339.505L218.714 339.337V337.489H222.452C225 337.489 226.988 338.077 228.416 339.253C229.858 340.429 230.579 342.2 230.579 344.566C230.579 346.932 229.97 348.766 228.752 350.068C227.534 351.356 225.735 352 223.355 352H218.966ZM223.187 349.816C224.657 349.816 225.777 349.375 226.547 348.493C227.317 347.611 227.702 346.323 227.702 344.629C227.702 342.991 227.289 341.766 226.463 340.954C225.637 340.128 224.447 339.708 222.893 339.694H222.788V349.795L223.187 349.816ZM236.269 352L231.859 339.505L231.103 339.358V337.489H236.143L236.437 339.148L234.82 339.505L238.117 349.27L241.372 339.505L239.461 339.127V337.489H244.354V339.358L243.577 339.505L239.23 352H236.269ZM245.544 352L245.25 350.152L246.615 349.879V339.505L245.292 339.358V337.489H254.868L255.267 341.773H253.629L252.768 339.694H249.366V343.432H252.558V345.637H249.366V349.795H252.915L253.692 347.716H255.351L254.91 352H245.544ZM257.192 352L256.856 350.173L258.305 349.9V339.589L256.961 339.442V337.489H262.337L267.104 349.984V339.547L265.886 339.4V337.489H270.401L270.716 339.442L269.309 339.694V352H265.067L260.51 340.177V349.816L261.581 350.152L261.56 352H257.192ZM274.235 352L274.025 350.32L276.44 349.858V339.694H274.067L273.164 341.794H271.547L271.946 337.489H283.601L284.063 341.773H282.467L281.543 339.694H279.149V349.858L281.585 350.32L281.375 352H274.235ZM291.67 352.084C290.27 352.084 289.164 351.874 288.352 351.454C287.54 351.034 286.959 350.432 286.609 349.648C286.273 348.85 286.105 347.898 286.105 346.792V339.547L284.698 339.358V337.489H290.347V339.337L288.856 339.568V346.75C288.856 347.8 289.059 348.584 289.465 349.102C289.885 349.62 290.62 349.879 291.67 349.879C292.51 349.879 293.161 349.634 293.623 349.144C294.085 348.64 294.316 347.835 294.316 346.729V339.526L292.972 339.337V337.489H297.76V339.4L296.521 339.673V346.792C296.521 348.416 296.108 349.704 295.282 350.656C294.456 351.608 293.252 352.084 291.67 352.084ZM299.312 352L299.123 350.215L300.572 349.921V339.547L299.144 339.4V337.489H304.289C305.661 337.489 306.795 337.692 307.691 338.098C308.587 338.504 309.252 339.064 309.686 339.778C310.12 340.478 310.337 341.29 310.337 342.214C310.337 343.236 310.078 344.104 309.56 344.818C309.042 345.518 308.328 346.057 307.418 346.435L309.266 349.963L310.589 350.173V352H307.04L304.856 347.065C304.38 347.107 303.869 347.128 303.323 347.128V350.005L304.415 350.173V352H299.312ZM303.323 344.902H304.016C305.262 344.902 306.151 344.65 306.683 344.146C307.229 343.628 307.502 343.005 307.502 342.277C307.502 341.745 307.383 341.29 307.145 340.912C306.921 340.534 306.522 340.247 305.948 340.051C305.388 339.841 304.597 339.729 303.575 339.715H303.323V344.902ZM312.297 352L312.003 350.152L313.368 349.879V339.505L312.045 339.358V337.489H321.621L322.02 341.773H320.382L319.521 339.694H316.119V343.432H319.311V345.637H316.119V349.795H319.668L320.445 347.716H322.104L321.663 352H312.297ZM324.869 346.813L324.05 337.825L327.074 337.531L327.515 338.329L326.507 346.813H324.869ZM325.73 352.084C325.338 352.084 325.002 351.951 324.722 351.685C324.442 351.405 324.302 351.069 324.302 350.677C324.302 350.285 324.442 349.956 324.722 349.69C325.002 349.424 325.338 349.291 325.73 349.291C326.108 349.291 326.43 349.424 326.696 349.69C326.976 349.956 327.116 350.285 327.116 350.677C327.116 351.069 326.976 351.405 326.696 351.685C326.43 351.951 326.108 352.084 325.73 352.084ZM330.673 346.813L329.854 337.825L332.878 337.531L333.319 338.329L332.311 346.813H330.673ZM331.534 352.084C331.142 352.084 330.806 351.951 330.526 351.685C330.246 351.405 330.106 351.069 330.106 350.677C330.106 350.285 330.246 349.956 330.526 349.69C330.806 349.424 331.142 349.291 331.534 349.291C331.912 349.291 332.234 349.424 332.5 349.69C332.78 349.956 332.92 350.285 332.92 350.677C332.92 351.069 332.78 351.405 332.5 351.685C332.234 351.951 331.912 352.084 331.534 352.084Z" fill="#A22D5E"/>
<defs>
<filter id="filter0_d_726_14" x="-3" y="15.9443" width="279.433" height="51.5776" filterUnits="userSpaceOnUse" color-interpolation-filters="sRGB">
<feFlood flood-opacity="0" result="BackgroundImageFix"/>
<feColorMatrix in="SourceAlpha" type="matrix" values="0 0 0 0 0 0 0 0 0 0 0 0 0 0 0 0 0 0 127 0" result="hardAlpha"/>
<feOffset dy="4"/>
<feGaussianBlur stdDeviation="2"/>
<feComposite in2="hardAlpha" operator="out"/>
<feColorMatrix type="matrix" values="0 0 0 0 0 0 0 0 0 0 0 0 0 0 0 0 0 0 0.25 0"/>
<feBlend mode="normal" in2="BackgroundImageFix" result="effect1_dropShadow_726_14"/>
<feBlend mode="normal" in="SourceGraphic" in2="effect1_dropShadow_726_14" result="shape"/>
</filter>
<filter id="filter1_d_726_14" x="-2.99805" y="90" width="279.921" height="51.7467" filterUnits="userSpaceOnUse" color-interpolation-filters="sRGB">
<feFlood flood-opacity="0" result="BackgroundImageFix"/>
<feColorMatrix in="SourceAlpha" type="matrix" values="0 0 0 0 0 0 0 0 0 0 0 0 0 0 0 0 0 0 127 0" result="hardAlpha"/>
<feOffset dy="4"/>
<feGaussianBlur stdDeviation="2"/>
<feComposite in2="hardAlpha" operator="out"/>
<feColorMatrix type="matrix" values="0 0 0 0 0 0 0 0 0 0 0 0 0 0 0 0 0 0 0.25 0"/>
<feBlend mode="normal" in2="BackgroundImageFix" result="effect1_dropShadow_726_14"/>
<feBlend mode="normal" in="SourceGraphic" in2="effect1_dropShadow_726_14" result="shape"/>
</filter>
<filter id="filter2_d_726_14" x="-3" y="164" width="280.176" height="51.8653" filterUnits="userSpaceOnUse" color-interpolation-filters="sRGB">
<feFlood flood-opacity="0" result="BackgroundImageFix"/>
<feColorMatrix in="SourceAlpha" type="matrix" values="0 0 0 0 0 0 0 0 0 0 0 0 0 0 0 0 0 0 127 0" result="hardAlpha"/>
<feOffset dy="4"/>
<feGaussianBlur stdDeviation="2"/>
<feComposite in2="hardAlpha" operator="out"/>
<feColorMatrix type="matrix" values="0 0 0 0 0 0 0 0 0 0 0 0 0 0 0 0 0 0 0.25 0"/>
<feBlend mode="normal" in2="BackgroundImageFix" result="effect1_dropShadow_726_14"/>
<feBlend mode="normal" in="SourceGraphic" in2="effect1_dropShadow_726_14" result="shape"/>
</filter>
<filter id="filter3_d_726_14" x="-2.99976" y="238.5" width="279.629" height="51.2852" filterUnits="userSpaceOnUse" color-interpolation-filters="sRGB">
<feFlood flood-opacity="0" result="BackgroundImageFix"/>
<feColorMatrix in="SourceAlpha" type="matrix" values="0 0 0 0 0 0 0 0 0 0 0 0 0 0 0 0 0 0 127 0" result="hardAlpha"/>
<feOffset dy="4"/>
<feGaussianBlur stdDeviation="2"/>
<feComposite in2="hardAlpha" operator="out"/>
<feColorMatrix type="matrix" values="0 0 0 0 0 0 0 0 0 0 0 0 0 0 0 0 0 0 0.25 0"/>
<feBlend mode="normal" in2="BackgroundImageFix" result="effect1_dropShadow_726_14"/>
<feBlend mode="normal" in="SourceGraphic" in2="effect1_dropShadow_726_14" result="shape"/>
</filter>
</defs>
</svg>
