<svg width="62" height="62" viewBox="0 0 62 62" fill="none" xmlns="http://www.w3.org/2000/svg">
<path opacity="0.7" d="M47.2483 61.8931L14.8586 62C6.73448 62 0.106897 55.3724 0.106897 47.2483L0 14.8586C0 6.73448 6.62759 0.106897 14.7517 0.106897L47.1414 0C55.2655 0 61.8931 6.62759 61.8931 14.7517L62 47.1414C62 55.2655 55.3724 61.8931 47.2483 61.8931Z" fill="#CAFFEA"/>
<path opacity="0.64" d="M12.4001 30.4655C12.8277 20.3104 21.2726 12.5069 31.4277 12.9345" stroke="#E23D81" stroke-width="6" stroke-miterlimit="10"/>
<path d="M29.8242 49.4931C19.7759 49.0655 11.8656 40.5138 12.2932 30.4655" stroke="#46AFA5" stroke-width="6" stroke-miterlimit="10"/>
<path d="M48.9587 31.9621C48.5312 42.0103 39.9794 49.9207 29.9312 49.4931" stroke="#DB4528" stroke-width="6" stroke-miterlimit="10"/>
<path d="M31.4277 12.9345C41.476 13.3621 49.3864 21.9138 48.9588 31.9621" stroke="#F4B042" stroke-width="6" stroke-miterlimit="10"/>
</svg>
