<svg width="61" height="61" viewBox="0 0 61 61" fill="none" xmlns="http://www.w3.org/2000/svg">
<path opacity="0.7" d="M46.4862 60.8948L14.619 61C6.62586 61 0.105172 54.4793 0.105172 46.4862L0 14.619C0 6.62586 6.52069 0.105172 14.5138 0.105172L46.381 0C54.3741 0 60.8948 6.52069 60.8948 14.5138L61 46.381C61 54.3741 54.4793 60.8948 46.4862 60.8948Z" fill="#CAFFEA"/>
<path d="M35.443 30.3948L39.8602 9.78103V9.67586L19.1413 8.20345L15.6706 24.5052C14.8292 24.0845 13.9878 23.769 13.1464 23.6638C10.0964 23.3483 7.46712 24.9259 7.25678 27.3448C7.04643 29.7638 9.25506 31.8672 12.1999 32.1828C15.1447 32.4983 17.8792 30.9207 18.0895 28.5017V28.3965L21.0344 14.1983L35.3378 15.1448L32.9188 26.5034C32.0775 26.0828 31.2361 25.7672 30.3947 25.6621C27.3447 25.3465 24.7154 26.9241 24.5051 29.3431C24.1895 31.6569 26.5033 33.8655 29.4482 34.181C32.4982 34.4965 35.1275 32.919 35.3378 30.5C35.443 30.5 35.443 30.5 35.443 30.3948Z" fill="#FFB948"/>
<path d="M47.3276 42.3845C48.6948 35.8638 44.5931 29.4483 37.9672 28.081C31.3414 26.7138 25.031 30.8155 23.6638 37.4414C22.2965 43.9621 26.3983 50.3776 33.0241 51.7448C39.65 53.1121 45.9603 48.9052 47.3276 42.3845ZM30.5 44.3828L32.7086 33.8655L34.7069 34.2862L32.4983 44.8034L30.5 44.3828ZM37.3362 34.8121L41.4379 41.2276L35.0224 45.3293L37.3362 34.8121Z" fill="#46AFA5"/>
<path d="M41.438 24.6104C41.438 24.6104 49.0104 24.6104 49.2207 32.0776" stroke="#EA6D4B" stroke-width="2" stroke-miterlimit="10" stroke-linecap="round"/>
<path d="M42.3845 20.4035C42.3845 20.4035 53.5328 19.9828 53.0069 31.3414" stroke="#EA6D4B" stroke-width="2" stroke-miterlimit="10" stroke-linecap="round"/>
</svg>
