<svg width="51" height="63" viewBox="0 0 51 63" fill="none" xmlns="http://www.w3.org/2000/svg">
<path d="M25.9979 38.489C25.9119 38.489 25.8259 38.467 25.7489 38.4231L18.3702 34.2128C18.1319 34.0769 18.0504 33.776 18.1879 33.5405C18.3255 33.305 18.6301 33.2243 18.8683 33.3604L25.9979 37.4286L33.1287 33.3604C33.3669 33.2241 33.6716 33.3051 33.8091 33.5405C33.9466 33.776 33.8651 34.0769 33.6268 34.2128L26.2469 38.4231C26.1699 38.467 26.0839 38.489 25.9979 38.489Z" fill="#2F374A"/>
<path d="M25.998 46.9099C25.7229 46.9099 25.5 46.6896 25.5 46.4177V37.9969C25.5 37.725 25.7229 37.5047 25.998 37.5047C26.2732 37.5047 26.4961 37.725 26.4961 37.9969V46.4177C26.4961 46.6896 26.2732 46.9099 25.998 46.9099Z" fill="#2F374A"/>
<path d="M25.9988 46.9099C25.9128 46.9099 25.8268 46.8879 25.7497 46.844L18.3711 42.6335C18.217 42.5456 18.1221 42.3831 18.1221 42.2073V33.7866C18.1221 33.6108 18.217 33.4483 18.3711 33.3604L25.7498 29.1499C25.9039 29.062 26.0937 29.062 26.2478 29.1499L33.6277 33.3604C33.7818 33.4483 33.8767 33.6108 33.8767 33.7866V42.2073C33.8767 42.3831 33.7818 42.5457 33.6277 42.6335L26.2478 46.844C26.1708 46.8879 26.0847 46.9099 25.9988 46.9099ZM19.1182 41.9231L25.9988 45.8493L32.8806 41.923V34.0706L25.9988 30.1444L19.1182 34.0708V41.9231Z" fill="#2F374A"/>
<path d="M36.9551 12.3496H15.041C14.766 12.3496 14.543 12.1292 14.543 11.8574V3.98239C14.543 3.71061 14.766 3.4902 15.041 3.4902H36.9551C37.2302 3.4902 37.4531 3.71061 37.4531 3.98239V11.8574C37.4531 12.1292 37.2302 12.3496 36.9551 12.3496ZM15.5391 11.3652H36.457V4.47458H15.5391V11.3652Z" fill="#2F374A"/>
<path d="M29.9824 17.2715H22.0137C21.9099 17.2715 21.8087 17.2394 21.7242 17.1798L14.7516 12.2579C14.5754 12.1335 14.5007 11.9109 14.5668 11.7072C14.6328 11.5034 14.8246 11.3652 15.041 11.3652H36.9551C37.1717 11.3652 37.3634 11.5034 37.4294 11.7072C37.4955 11.9109 37.4208 12.1335 37.2447 12.2579L30.272 17.1798C30.1875 17.2394 30.0862 17.2715 29.9824 17.2715ZM22.1734 16.2871H29.8229L35.401 12.3496H16.5952L22.1734 16.2871Z" fill="#2F374A"/>
<path d="M25.998 23.1777C25.8929 23.1777 25.7878 23.1449 25.6992 23.0793L21.7148 20.1261C21.5894 20.0332 21.5156 19.8873 21.5156 19.7324V16.7793C21.5156 16.5075 21.7387 16.2871 22.0137 16.2871H29.9824C30.2575 16.2871 30.4805 16.5075 30.4805 16.7793V19.7324C30.4805 19.8873 30.4067 20.0332 30.2812 20.1261L26.2969 23.0793C26.2083 23.1448 26.1032 23.1777 25.998 23.1777ZM22.5117 19.4863L25.998 22.0703L29.4844 19.4863V17.2715H22.5117V19.4863Z" fill="#2F374A"/>
<path d="M39.9434 9.39645H36.9551C36.68 9.39645 36.457 9.17605 36.457 8.90427V3.98239C36.457 3.71061 36.68 3.4902 36.9551 3.4902H39.9434C41.5911 3.4902 42.9316 4.81498 42.9316 6.44333C42.9316 8.07168 41.5911 9.39645 39.9434 9.39645ZM37.4531 8.41208H39.9434C41.0419 8.41208 41.9355 7.5289 41.9355 6.44333C41.9355 5.35776 41.0419 4.47458 39.9434 4.47458H37.4531V8.41208Z" fill="#2F374A"/>
<path d="M15.041 9.39645H12.0527C10.405 9.39645 9.06445 8.07168 9.06445 6.44333C9.06445 4.81498 10.405 3.4902 12.0527 3.4902H15.041C15.316 3.4902 15.5391 3.71061 15.5391 3.98239V8.90427C15.5391 9.17605 15.316 9.39645 15.041 9.39645ZM12.0527 4.47458C10.9542 4.47458 10.0605 5.35776 10.0605 6.44333C10.0605 7.5289 10.9542 8.41208 12.0527 8.41208H14.543V4.47458H12.0527Z" fill="#2F374A"/>
<path d="M29.9824 7.4277H19.0254C18.7504 7.4277 18.5273 7.2073 18.5273 6.93552C18.5273 6.66373 18.7504 6.44333 19.0254 6.44333H29.9824C30.2575 6.44333 30.4805 6.66373 30.4805 6.93552C30.4805 7.2073 30.2575 7.4277 29.9824 7.4277Z" fill="#2F374A"/>
<path d="M32.9707 7.91989C33.5208 7.91989 33.9668 7.47917 33.9668 6.93552C33.9668 6.39186 33.5208 5.95114 32.9707 5.95114C32.4206 5.95114 31.9746 6.39186 31.9746 6.93552C31.9746 7.47917 32.4206 7.91989 32.9707 7.91989Z" fill="#2F374A"/>
<path d="M25.998 30.0682C25.7229 30.0682 25.5 29.8479 25.5 29.576V22.6854C25.5 22.4136 25.7229 22.1932 25.998 22.1932C26.2732 22.1932 26.4961 22.4136 26.4961 22.6854V29.576C26.4961 29.8479 26.2732 30.0682 25.998 30.0682Z" fill="#2F374A"/>
</svg>
