<svg width="26" height="55" viewBox="0 0 26 55" fill="none" xmlns="http://www.w3.org/2000/svg">
<g clip-path="url(#clip0_218_102)">
<path d="M22.7217 0H3.27826C2.409 0.000600774 1.57551 0.347276 0.960842 0.96389C0.346178 1.5805 0.000598874 2.41664 0 3.28866L0 40.7113C0.000598874 41.5834 0.346178 42.4195 0.960842 43.0361C1.57551 43.6527 2.409 43.9994 3.27826 44H22.7217C23.591 43.9994 24.4245 43.6527 25.0392 43.0361C25.6538 42.4195 25.9994 41.5834 26 40.7113V3.28866C25.9994 2.41664 25.6538 1.5805 25.0392 0.96389C24.4245 0.347276 23.591 0.000600774 22.7217 0ZM3.27826 1.13402H22.7217C23.2912 1.13462 23.8372 1.36182 24.2398 1.76576C24.6425 2.16971 24.869 2.7174 24.8696 3.28866V6.35052H1.13043V3.28866C1.13103 2.7174 1.35751 2.16971 1.76018 1.76576C2.16285 1.36182 2.70881 1.13462 3.27826 1.13402ZM24.8696 34.701H1.13043V7.48454H24.8696V34.701ZM22.7217 42.866H3.27826C2.70881 42.8654 2.16285 42.6382 1.76018 42.2342C1.35751 41.8303 1.13103 41.2826 1.13043 40.7113V35.8351H24.8696V40.7113C24.869 41.2826 24.6425 41.8303 24.2398 42.2342C23.8372 42.6382 23.2912 42.8654 22.7217 42.866Z" fill="#2F374A"/>
<path d="M15.4871 3.28867H10.5132V4.64949H15.4871V3.28867Z" fill="#2F374A"/>
<path d="M12.774 40.2577C13.5232 40.2577 14.1305 39.6485 14.1305 38.8969C14.1305 38.1453 13.5232 37.5361 12.774 37.5361C12.0248 37.5361 11.4175 38.1453 11.4175 38.8969C11.4175 39.6485 12.0248 40.2577 12.774 40.2577Z" fill="#2F374A"/>
</g>
<defs>
<clipPath id="clip0_218_102">
<rect width="26" height="55" fill="white"/>
</clipPath>
</defs>
</svg>
