<svg width="68" height="88" viewBox="0 0 68 88" fill="none" xmlns="http://www.w3.org/2000/svg">
<path d="M58.8152 34.0779C51.6152 31.2993 41.1051 42.754 36.7501 48.8287C41.3812 36.8286 33.3896 26.2763 28.8149 22.5002C38.415 26.205 49.104 13.0959 53.2484 6.07826C48.3858 18.6784 54.9335 29.9948 58.8152 34.0779Z" fill="white" stroke="white"/>
<path d="M49.4602 72.8153C44.6002 70.9397 37.5493 78.5591 34.6314 82.6033C37.7188 74.6032 32.3036 67.5346 29.21 65.0003C35.6901 67.5011 42.8569 58.7774 45.6303 54.103C42.3885 62.5031 46.8328 70.0779 49.4602 72.8153Z" fill="white" stroke="white"/>
<path d="M17.065 78.473C13.8249 77.2226 9.06343 82.4602 7.08768 85.2352C9.20011 79.7615 5.6193 74.973 3.56484 73.263C7.88488 74.9302 12.7304 68.939 14.6132 65.735C12.3952 71.4824 15.3235 76.6218 17.065 78.473Z" fill="white" stroke="white"/>
</svg>
