<svg width="69" height="114" viewBox="0 0 69 114" fill="none" xmlns="http://www.w3.org/2000/svg">
<path d="M28 28C37.6 28 44.6667 10 47 1C47 17 61 25.6667 68 28C55.2 28 48.6667 48 47 58C47 41.2 34.3333 31 28 28Z" fill="white" stroke="white"/>
<path d="M1 67C7.48 67 12.25 55 13.825 49C13.825 59.6667 23.275 65.4444 28 67C19.36 67 14.95 80.3333 13.825 87C13.825 75.8 5.275 69 1 67Z" fill="white" stroke="white"/>
<path d="M48 99.3158C52.32 99.3158 55.5 91.1053 56.55 87C56.55 94.2982 62.85 98.2515 66 99.3158C60.24 99.3158 57.3 108.439 56.55 113C56.55 105.337 50.85 100.684 48 99.3158Z" fill="white" stroke="white"/>
</svg>
