<svg width="524" height="222" viewBox="0 0 524 222" fill="none" xmlns="http://www.w3.org/2000/svg">
<path d="M45.7669 65.3398C45.4469 65.3398 45.1936 65.2532 45.0069 65.0798C44.8336 64.8932 44.7469 64.6465 44.7469 64.3398V52.2398C44.7469 51.9332 44.8336 51.6932 45.0069 51.5198C45.1936 51.3332 45.4469 51.2398 45.7669 51.2398H49.6869C51.9669 51.2398 53.7336 51.8532 54.9869 53.0798C56.2403 54.3065 56.8669 56.0398 56.8669 58.2798C56.8669 60.5198 56.2403 62.2598 54.9869 63.4998C53.7336 64.7265 51.9669 65.3398 49.6869 65.3398H45.7669ZM49.5669 63.6198C53.0336 63.6198 54.7669 61.8398 54.7669 58.2798C54.7669 54.7332 53.0336 52.9598 49.5669 52.9598H46.8069V63.6198H49.5669ZM65.7288 65.4998C64.3955 65.4998 63.2355 65.2065 62.2488 64.6198C61.2755 64.0332 60.5221 63.1998 59.9888 62.1198C59.4555 61.0398 59.1888 59.7665 59.1888 58.2998C59.1888 56.8198 59.4488 55.5398 59.9688 54.4598C60.5021 53.3665 61.2621 52.5332 62.2488 51.9598C63.2355 51.3732 64.3955 51.0798 65.7288 51.0798C67.0755 51.0798 68.2421 51.3732 69.2288 51.9598C70.2155 52.5332 70.9688 53.3665 71.4888 54.4598C72.0221 55.5398 72.2888 56.8132 72.2888 58.2798C72.2888 59.7465 72.0221 61.0265 71.4888 62.1198C70.9688 63.1998 70.2155 64.0332 69.2288 64.6198C68.2421 65.2065 67.0755 65.4998 65.7288 65.4998ZM65.7288 63.8198C67.1421 63.8198 68.2421 63.3398 69.0288 62.3798C69.8155 61.4198 70.2088 60.0532 70.2088 58.2798C70.2088 56.5065 69.8155 55.1465 69.0288 54.1998C68.2555 53.2398 67.1555 52.7598 65.7288 52.7598C64.3288 52.7598 63.2355 53.2398 62.4488 54.1998C61.6755 55.1465 61.2888 56.5065 61.2888 58.2798C61.2888 60.0532 61.6755 61.4198 62.4488 62.3798C63.2355 63.3398 64.3288 63.8198 65.7288 63.8198ZM85.6985 51.1398C85.9918 51.1398 86.2252 51.2398 86.3985 51.4398C86.5852 51.6265 86.6785 51.8732 86.6785 52.1798V64.3998C86.6785 64.7065 86.5852 64.9598 86.3985 65.1598C86.2118 65.3465 85.9718 65.4398 85.6785 65.4398C85.3318 65.4398 85.0652 65.3065 84.8785 65.0398L77.0385 54.6998V64.3998C77.0385 64.7065 76.9452 64.9598 76.7585 65.1598C76.5852 65.3465 76.3518 65.4398 76.0585 65.4398C75.7652 65.4398 75.5318 65.3465 75.3585 65.1598C75.1852 64.9732 75.0985 64.7198 75.0985 64.3998V52.1798C75.0985 51.8732 75.1918 51.6265 75.3785 51.4398C75.5652 51.2398 75.8052 51.1398 76.0985 51.1398C76.4452 51.1398 76.7118 51.2732 76.8985 51.5398L84.7385 61.8998V52.1798C84.7385 51.8732 84.8252 51.6265 84.9985 51.4398C85.1718 51.2398 85.4052 51.1398 85.6985 51.1398ZM102.402 64.1398C102.468 64.2998 102.502 64.4332 102.502 64.5398C102.502 64.7932 102.395 65.0065 102.182 65.1798C101.982 65.3532 101.755 65.4398 101.502 65.4398C101.328 65.4398 101.162 65.3932 101.002 65.2998C100.855 65.1932 100.742 65.0465 100.662 64.8598L99.3418 61.8598H92.0218L90.7018 64.8598C90.6218 65.0465 90.5018 65.1932 90.3418 65.2998C90.1818 65.3932 90.0151 65.4398 89.8418 65.4398C89.5751 65.4398 89.3351 65.3532 89.1218 65.1798C88.9218 65.0065 88.8218 64.7932 88.8218 64.5398C88.8218 64.4332 88.8551 64.2998 88.9218 64.1398L94.5618 51.7998C94.6551 51.5865 94.8018 51.4198 95.0018 51.2998C95.2151 51.1798 95.4351 51.1198 95.6618 51.1198C95.8884 51.1198 96.1018 51.1798 96.3018 51.2998C96.5151 51.4198 96.6684 51.5865 96.7618 51.7998L102.402 64.1398ZM92.7618 60.2198H98.6218L95.6818 53.5998L92.7618 60.2198ZM107.35 65.4398C107.043 65.4398 106.79 65.3465 106.59 65.1598C106.403 64.9598 106.31 64.7065 106.31 64.3998V52.9598H102.31C101.67 52.9598 101.35 52.6732 101.35 52.0998C101.35 51.8198 101.43 51.6065 101.59 51.4598C101.763 51.3132 102.003 51.2398 102.31 51.2398H112.39C112.697 51.2398 112.93 51.3132 113.09 51.4598C113.263 51.6065 113.35 51.8198 113.35 52.0998C113.35 52.6732 113.03 52.9598 112.39 52.9598H108.39V64.3998C108.39 64.7065 108.297 64.9598 108.11 65.1598C107.923 65.3465 107.67 65.4398 107.35 65.4398ZM120.26 65.4998C118.927 65.4998 117.767 65.2065 116.78 64.6198C115.807 64.0332 115.053 63.1998 114.52 62.1198C113.987 61.0398 113.72 59.7665 113.72 58.2998C113.72 56.8198 113.98 55.5398 114.5 54.4598C115.033 53.3665 115.793 52.5332 116.78 51.9598C117.767 51.3732 118.927 51.0798 120.26 51.0798C121.607 51.0798 122.773 51.3732 123.76 51.9598C124.747 52.5332 125.5 53.3665 126.02 54.4598C126.553 55.5398 126.82 56.8132 126.82 58.2798C126.82 59.7465 126.553 61.0265 126.02 62.1198C125.5 63.1998 124.747 64.0332 123.76 64.6198C122.773 65.2065 121.607 65.4998 120.26 65.4998ZM120.26 63.8198C121.673 63.8198 122.773 63.3398 123.56 62.3798C124.347 61.4198 124.74 60.0532 124.74 58.2798C124.74 56.5065 124.347 55.1465 123.56 54.1998C122.787 53.2398 121.687 52.7598 120.26 52.7598C118.86 52.7598 117.767 53.2398 116.98 54.1998C116.207 55.1465 115.82 56.5065 115.82 58.2798C115.82 60.0532 116.207 61.4198 116.98 62.3798C117.767 63.3398 118.86 63.8198 120.26 63.8198ZM140.63 64.0598C140.75 64.2332 140.81 64.4198 140.81 64.6198C140.81 64.8598 140.71 65.0665 140.51 65.2398C140.323 65.3998 140.103 65.4798 139.85 65.4798C139.476 65.4798 139.176 65.3132 138.95 64.9798L136.27 60.8198C135.963 60.3398 135.636 60.0065 135.29 59.8198C134.943 59.6198 134.49 59.5198 133.93 59.5198H131.67V64.3998C131.67 64.7198 131.576 64.9732 131.39 65.1598C131.216 65.3465 130.97 65.4398 130.65 65.4398C130.343 65.4398 130.096 65.3465 129.91 65.1598C129.723 64.9732 129.63 64.7198 129.63 64.3998V52.2398C129.63 51.9332 129.716 51.6932 129.89 51.5198C130.076 51.3332 130.33 51.2398 130.65 51.2398H135.63C137.19 51.2398 138.376 51.5865 139.19 52.2798C140.016 52.9732 140.43 53.9865 140.43 55.3198C140.43 56.4265 140.116 57.3265 139.49 58.0198C138.863 58.6998 137.97 59.1332 136.81 59.3198C137.156 59.4132 137.47 59.5798 137.75 59.8198C138.03 60.0598 138.303 60.3932 138.57 60.8198L140.63 64.0598ZM135.39 57.8598C136.43 57.8598 137.196 57.6598 137.69 57.2598C138.196 56.8465 138.45 56.2132 138.45 55.3598C138.45 54.5065 138.203 53.8865 137.71 53.4998C137.216 53.0998 136.443 52.8998 135.39 52.8998H131.65V57.8598H135.39Z" fill="white"/>
<path d="M161.736 200.398C161.909 200.025 162.196 199.838 162.596 199.838C162.863 199.838 163.103 199.932 163.316 200.118C163.529 200.292 163.636 200.505 163.636 200.758C163.636 200.852 163.603 200.978 163.536 201.138L157.896 213.498C157.803 213.712 157.656 213.878 157.456 213.998C157.256 214.118 157.043 214.178 156.816 214.178C156.589 214.178 156.369 214.118 156.156 213.998C155.956 213.878 155.809 213.712 155.716 213.498L150.096 201.138C150.029 200.978 149.996 200.852 149.996 200.758C149.996 200.492 150.103 200.272 150.316 200.098C150.543 199.925 150.789 199.838 151.056 199.838C151.469 199.838 151.763 200.025 151.936 200.398L156.836 211.378L161.736 200.398ZM171.188 214.218C169.854 214.218 168.694 213.925 167.708 213.338C166.734 212.752 165.981 211.918 165.448 210.838C164.914 209.758 164.648 208.485 164.648 207.018C164.648 205.538 164.908 204.258 165.428 203.178C165.961 202.085 166.721 201.252 167.708 200.678C168.694 200.092 169.854 199.798 171.188 199.798C172.534 199.798 173.701 200.092 174.688 200.678C175.674 201.252 176.428 202.085 176.948 203.178C177.481 204.258 177.748 205.532 177.748 206.998C177.748 208.465 177.481 209.745 176.948 210.838C176.428 211.918 175.674 212.752 174.688 213.338C173.701 213.925 172.534 214.218 171.188 214.218ZM171.188 212.538C172.601 212.538 173.701 212.058 174.488 211.098C175.274 210.138 175.668 208.772 175.668 206.998C175.668 205.225 175.274 203.865 174.488 202.918C173.714 201.958 172.614 201.478 171.188 201.478C169.788 201.478 168.694 201.958 167.908 202.918C167.134 203.865 166.748 205.225 166.748 206.998C166.748 208.772 167.134 210.138 167.908 211.098C168.694 212.058 169.788 212.538 171.188 212.538ZM181.557 214.058C181.251 214.058 181.004 213.972 180.817 213.798C180.644 213.625 180.557 213.392 180.557 213.098V200.898C180.557 200.592 180.651 200.345 180.837 200.158C181.024 199.958 181.271 199.858 181.577 199.858C181.897 199.858 182.151 199.952 182.337 200.138C182.524 200.325 182.617 200.578 182.617 200.898V212.338H188.697C189.004 212.338 189.237 212.412 189.397 212.558C189.571 212.705 189.657 212.918 189.657 213.198C189.657 213.478 189.571 213.692 189.397 213.838C189.237 213.985 189.004 214.058 188.697 214.058H181.557ZM196.588 214.218C194.708 214.218 193.281 213.732 192.308 212.758C191.335 211.785 190.848 210.352 190.848 208.458V200.898C190.848 200.578 190.941 200.325 191.128 200.138C191.315 199.952 191.561 199.858 191.868 199.858C192.175 199.858 192.421 199.952 192.608 200.138C192.795 200.325 192.888 200.578 192.888 200.898V208.598C192.888 209.892 193.195 210.872 193.808 211.538C194.435 212.205 195.361 212.538 196.588 212.538C197.801 212.538 198.721 212.205 199.348 211.538C199.975 210.872 200.288 209.892 200.288 208.598V200.898C200.288 200.592 200.381 200.345 200.568 200.158C200.755 199.958 201.001 199.858 201.308 199.858C201.615 199.858 201.861 199.952 202.048 200.138C202.235 200.325 202.328 200.578 202.328 200.898V208.458C202.328 210.338 201.835 211.772 200.848 212.758C199.875 213.732 198.455 214.218 196.588 214.218ZM216.099 199.858C216.392 199.858 216.625 199.958 216.799 200.158C216.985 200.345 217.079 200.592 217.079 200.898V213.118C217.079 213.425 216.985 213.678 216.799 213.878C216.612 214.065 216.372 214.158 216.079 214.158C215.732 214.158 215.465 214.025 215.279 213.758L207.439 203.418V213.118C207.439 213.425 207.345 213.678 207.159 213.878C206.985 214.065 206.752 214.158 206.459 214.158C206.165 214.158 205.932 214.065 205.759 213.878C205.585 213.692 205.499 213.438 205.499 213.118V200.898C205.499 200.592 205.592 200.345 205.779 200.158C205.965 199.958 206.205 199.858 206.499 199.858C206.845 199.858 207.112 199.992 207.299 200.258L215.139 210.618V200.898C215.139 200.592 215.225 200.345 215.399 200.158C215.572 199.958 215.805 199.858 216.099 199.858ZM224.762 214.158C224.455 214.158 224.202 214.065 224.002 213.878C223.815 213.678 223.722 213.425 223.722 213.118V201.678H219.722C219.082 201.678 218.762 201.392 218.762 200.818C218.762 200.538 218.842 200.325 219.002 200.178C219.175 200.032 219.415 199.958 219.722 199.958H229.802C230.109 199.958 230.342 200.032 230.502 200.178C230.675 200.325 230.762 200.538 230.762 200.818C230.762 201.392 230.442 201.678 229.802 201.678H225.802V213.118C225.802 213.425 225.709 213.678 225.522 213.878C225.335 214.065 225.082 214.158 224.762 214.158ZM233.491 214.058C233.171 214.058 232.918 213.972 232.731 213.798C232.558 213.612 232.471 213.365 232.471 213.058V200.958C232.471 200.652 232.558 200.412 232.731 200.238C232.918 200.052 233.171 199.958 233.491 199.958H240.851C241.158 199.958 241.391 200.032 241.551 200.178C241.725 200.325 241.811 200.532 241.811 200.798C241.811 201.065 241.725 201.272 241.551 201.418C241.391 201.552 241.158 201.618 240.851 201.618H234.491V206.058H240.451C240.758 206.058 240.991 206.132 241.151 206.278C241.325 206.425 241.411 206.632 241.411 206.898C241.411 207.165 241.325 207.372 241.151 207.518C240.991 207.665 240.758 207.738 240.451 207.738H234.491V212.398H240.851C241.491 212.398 241.811 212.672 241.811 213.218C241.811 213.485 241.725 213.692 241.551 213.838C241.391 213.985 241.158 214.058 240.851 214.058H233.491ZM245.191 214.058C244.871 214.058 244.617 213.972 244.431 213.798C244.257 213.612 244.171 213.365 244.171 213.058V200.958C244.171 200.652 244.257 200.412 244.431 200.238C244.617 200.052 244.871 199.958 245.191 199.958H252.551C252.857 199.958 253.091 200.032 253.251 200.178C253.424 200.325 253.511 200.532 253.511 200.798C253.511 201.065 253.424 201.272 253.251 201.418C253.091 201.552 252.857 201.618 252.551 201.618H246.191V206.058H252.151C252.457 206.058 252.691 206.132 252.851 206.278C253.024 206.425 253.111 206.632 253.111 206.898C253.111 207.165 253.024 207.372 252.851 207.518C252.691 207.665 252.457 207.738 252.151 207.738H246.191V212.398H252.551C253.191 212.398 253.511 212.672 253.511 213.218C253.511 213.485 253.424 213.692 253.251 213.838C253.091 213.985 252.857 214.058 252.551 214.058H245.191ZM266.87 212.778C266.99 212.952 267.05 213.138 267.05 213.338C267.05 213.578 266.95 213.785 266.75 213.958C266.563 214.118 266.343 214.198 266.09 214.198C265.716 214.198 265.416 214.032 265.19 213.698L262.51 209.538C262.203 209.058 261.876 208.725 261.53 208.538C261.183 208.338 260.73 208.238 260.17 208.238H257.91V213.118C257.91 213.438 257.816 213.692 257.63 213.878C257.456 214.065 257.21 214.158 256.89 214.158C256.583 214.158 256.336 214.065 256.15 213.878C255.963 213.692 255.87 213.438 255.87 213.118V200.958C255.87 200.652 255.956 200.412 256.13 200.238C256.316 200.052 256.57 199.958 256.89 199.958H261.87C263.43 199.958 264.616 200.305 265.43 200.998C266.256 201.692 266.67 202.705 266.67 204.038C266.67 205.145 266.356 206.045 265.73 206.738C265.103 207.418 264.21 207.852 263.05 208.038C263.396 208.132 263.71 208.298 263.99 208.538C264.27 208.778 264.543 209.112 264.81 209.538L266.87 212.778ZM261.63 206.578C262.67 206.578 263.436 206.378 263.93 205.978C264.436 205.565 264.69 204.932 264.69 204.078C264.69 203.225 264.443 202.605 263.95 202.218C263.456 201.818 262.683 201.618 261.63 201.618H257.89V206.578H261.63Z" fill="#F6F6F6"/>
<path d="M444.386 19.8874C444.679 19.8874 444.913 19.9874 445.086 20.1874C445.273 20.3741 445.366 20.6207 445.366 20.9274V33.1474C445.366 33.4541 445.273 33.7074 445.086 33.9074C444.899 34.0941 444.659 34.1874 444.366 34.1874C444.019 34.1874 443.753 34.0541 443.566 33.7874L435.726 23.4474V33.1474C435.726 33.4541 435.633 33.7074 435.446 33.9074C435.273 34.0941 435.039 34.1874 434.746 34.1874C434.453 34.1874 434.219 34.0941 434.046 33.9074C433.873 33.7207 433.786 33.4674 433.786 33.1474V20.9274C433.786 20.6207 433.879 20.3741 434.066 20.1874C434.253 19.9874 434.493 19.8874 434.786 19.8874C435.133 19.8874 435.399 20.0207 435.586 20.2874L443.426 30.6474V20.9274C443.426 20.6207 443.513 20.3741 443.686 20.1874C443.859 19.9874 444.093 19.8874 444.386 19.8874ZM459.249 26.6074C459.503 26.6074 459.703 26.6807 459.849 26.8274C460.009 26.9741 460.089 27.1741 460.089 27.4274V32.1074C460.089 32.5607 460.023 32.8874 459.889 33.0874C459.769 33.2874 459.523 33.4474 459.149 33.5674C458.616 33.7807 457.983 33.9474 457.249 34.0674C456.516 34.1874 455.789 34.2474 455.069 34.2474C453.643 34.2474 452.409 33.9607 451.369 33.3874C450.329 32.8141 449.536 31.9874 448.989 30.9074C448.443 29.8274 448.169 28.5341 448.169 27.0274C448.169 25.5474 448.443 24.2674 448.989 23.1874C449.536 22.1074 450.316 21.2807 451.329 20.7074C452.356 20.1207 453.556 19.8274 454.929 19.8274C455.863 19.8274 456.723 19.9674 457.509 20.2474C458.309 20.5141 458.989 20.9074 459.549 21.4274C459.816 21.6407 459.949 21.9074 459.949 22.2274C459.949 22.4674 459.883 22.6741 459.749 22.8474C459.616 23.0074 459.456 23.0874 459.269 23.0874C459.149 23.0874 459.043 23.0674 458.949 23.0274C458.856 22.9874 458.736 22.9207 458.589 22.8274C457.936 22.3474 457.343 22.0141 456.809 21.8274C456.276 21.6274 455.663 21.5274 454.969 21.5274C453.449 21.5274 452.289 22.0007 451.489 22.9474C450.689 23.8807 450.289 25.2407 450.289 27.0274C450.289 28.8541 450.696 30.2407 451.509 31.1874C452.336 32.1207 453.543 32.5874 455.129 32.5874C456.196 32.5874 457.223 32.4274 458.209 32.1074V28.1674H455.589C455.323 28.1674 455.109 28.1007 454.949 27.9674C454.803 27.8207 454.729 27.6274 454.729 27.3874C454.729 27.1474 454.803 26.9607 454.949 26.8274C455.109 26.6807 455.323 26.6074 455.589 26.6074H459.249ZM469.26 34.2474C467.927 34.2474 466.767 33.9541 465.78 33.3674C464.807 32.7807 464.053 31.9474 463.52 30.8674C462.987 29.7874 462.72 28.5141 462.72 27.0474C462.72 25.5674 462.98 24.2874 463.5 23.2074C464.033 22.1141 464.793 21.2807 465.78 20.7074C466.767 20.1207 467.927 19.8274 469.26 19.8274C470.607 19.8274 471.773 20.1207 472.76 20.7074C473.747 21.2807 474.5 22.1141 475.02 23.2074C475.553 24.2874 475.82 25.5607 475.82 27.0274C475.82 28.4941 475.553 29.7741 475.02 30.8674C474.5 31.9474 473.747 32.7807 472.76 33.3674C471.773 33.9541 470.607 34.2474 469.26 34.2474ZM469.26 32.5674C470.673 32.5674 471.773 32.0874 472.56 31.1274C473.347 30.1674 473.74 28.8007 473.74 27.0274C473.74 25.2541 473.347 23.8941 472.56 22.9474C471.787 21.9874 470.687 21.5074 469.26 21.5074C467.86 21.5074 466.767 21.9874 465.98 22.9474C465.207 23.8941 464.82 25.2541 464.82 27.0274C464.82 28.8007 465.207 30.1674 465.98 31.1274C466.767 32.0874 467.86 32.5674 469.26 32.5674Z" fill="white"/>
<path d="M333.677 138.09C335.081 136.078 336.4 133.989 337.628 131.83C348.172 113.251 350.856 91.6765 345.172 71.0813C341.496 57.7482 334.408 45.5597 324.676 35.8279C317.174 28.3259 308.375 22.5233 298.868 18.5632L309.965 38.5552L292.009 48.5226C296.156 50.7811 300.015 53.6384 303.44 57.0658C309.502 63.1281 313.927 70.7379 316.223 79.0653C319.707 91.6963 318.142 104.917 311.849 116.377L302.062 106.641L302.46 147.397L342.64 147.008L333.677 138.09Z" fill="#E1E0E0"/>
<path d="M294.347 155.172L294.151 134.963C290.213 137.368 285.924 139.242 281.355 140.505C264.048 145.276 245.408 140.351 232.698 127.639C229.948 124.889 227.54 121.816 225.513 118.51L238.368 114.953L202.765 95.115L183.204 130.214L195.857 126.712C199.756 134.921 205.03 142.434 211.464 148.868C231.797 169.201 261.638 177.091 289.334 169.448C299.916 166.531 309.584 161.58 317.918 154.939L294.347 155.172Z" fill="#E1E0E0"/>
<path d="M267.298 42.4274L263.63 54.9131L299.265 35.1324L279.766 0L276.004 12.8004C266.338 11.8275 256.441 12.5913 246.801 15.2482C207.46 26.1005 183.081 64.6999 188.954 104.087L200.027 84.2165L218.165 94.3203C217.269 71.6604 232.005 50.4775 254.788 44.195C258.913 43.0592 263.12 42.4869 267.298 42.4274Z" fill="#E1E0E0"/>
<path d="M202.602 81.9028L43.1069 81.9028" stroke="#E1E0E0" stroke-width="4"/>
<path d="M487.107 46.3398L327.612 46.3398" stroke="#E1E0E0" stroke-width="4"/>
<path d="M283.427 147.641L283.427 222" stroke="#E1E0E0" stroke-width="4"/>
<circle cx="122.854" cy="206.913" r="14.0097" fill="#48AED7"/>
<circle cx="14.0097" cy="59.2718" r="14.0097" fill="#60BC76"/>
<circle cx="509.738" cy="31.2524" r="14.0097" fill="#2F374A"/>
</svg>
