<svg width="707" height="343" viewBox="0 0 707 343" fill="none" xmlns="http://www.w3.org/2000/svg">
<path d="M279.452 119.685C242.448 119.685 123.44 146.076 108.846 171.159V257.684H694.831V82.4281C609.988 82.4281 543.449 134.147 512.777 134.147C482.105 134.147 466.027 119.685 431.892 119.685C397.757 119.685 401.948 144.111 368.06 144.111C334.172 144.111 325.708 119.685 279.452 119.685Z" fill="#96D9A9"/>
<path d="M546.499 258.174H695.067L706.58 267.476L695.067 276.777H546.499V258.174Z" fill="#646060"/>
<path d="M402.573 258.174H551.141L562.654 267.476L551.141 276.777H402.573V258.174Z" fill="#8D8989"/>
<path d="M254.241 258.174H402.809L414.322 267.476L402.809 276.777H254.241V258.174Z" fill="#A4A2A2"/>
<path d="M108.356 258.174H256.47L267.948 267.476L256.47 276.777H108.356V258.174Z" fill="#C4C4C4"/>
<path d="M121.122 271.055H116.989L116.133 272.999H114.989L118.511 265.222H119.611L123.144 272.999H121.977L121.122 271.055ZM120.733 270.166L119.055 266.355L117.378 270.166H120.733ZM132.755 267.111L130.555 272.999H129.533L127.833 268.533L126.111 272.999H125.089L122.9 267.111H123.911L125.622 271.799L127.4 267.111H128.3L130.044 271.821L131.799 267.111H132.755ZM135.797 267.055C136.611 267.055 137.234 267.255 137.663 267.655C138.1 268.055 138.319 268.651 138.319 269.444V272.999H137.308V272.221C137.13 272.495 136.874 272.706 136.541 272.855C136.215 272.995 135.826 273.066 135.375 273.066C134.715 273.066 134.186 272.906 133.786 272.588C133.393 272.269 133.197 271.851 133.197 271.333C133.197 270.814 133.386 270.399 133.764 270.088C134.141 269.77 134.741 269.61 135.563 269.61H137.252V269.399C137.252 268.94 137.119 268.588 136.852 268.344C136.586 268.1 136.193 267.977 135.674 267.977C135.326 267.977 134.986 268.037 134.652 268.155C134.319 268.266 134.038 268.418 133.808 268.611L133.364 267.811C133.667 267.566 134.03 267.381 134.452 267.255C134.875 267.122 135.323 267.055 135.797 267.055ZM135.552 272.244C135.96 272.244 136.311 272.155 136.608 271.977C136.904 271.792 137.119 271.533 137.252 271.199V270.377H135.608C134.704 270.377 134.252 270.681 134.252 271.288C134.252 271.584 134.367 271.818 134.597 271.988C134.826 272.158 135.145 272.244 135.552 272.244ZM141.315 268.1C141.5 267.759 141.774 267.5 142.137 267.322C142.5 267.144 142.94 267.055 143.459 267.055V268.088C143.4 268.081 143.318 268.077 143.214 268.077C142.637 268.077 142.181 268.251 141.848 268.599C141.522 268.94 141.359 269.429 141.359 270.066V272.999H140.292V267.111H141.315V268.1ZM150.041 270.088C150.041 270.17 150.033 270.277 150.019 270.41H145.241C145.308 270.929 145.534 271.347 145.919 271.666C146.312 271.977 146.797 272.132 147.374 272.132C148.078 272.132 148.645 271.895 149.074 271.421L149.663 272.11C149.396 272.421 149.063 272.658 148.663 272.821C148.271 272.984 147.83 273.066 147.341 273.066C146.719 273.066 146.167 272.94 145.686 272.688C145.204 272.429 144.83 272.069 144.564 271.61C144.304 271.151 144.175 270.633 144.175 270.055C144.175 269.485 144.301 268.97 144.552 268.511C144.812 268.051 145.163 267.696 145.608 267.444C146.06 267.185 146.567 267.055 147.13 267.055C147.693 267.055 148.193 267.185 148.63 267.444C149.074 267.696 149.419 268.051 149.663 268.511C149.915 268.97 150.041 269.496 150.041 270.088ZM147.13 267.955C146.619 267.955 146.189 268.111 145.841 268.422C145.5 268.733 145.3 269.14 145.241 269.644H149.019C148.959 269.148 148.756 268.744 148.408 268.433C148.067 268.114 147.641 267.955 147.13 267.955ZM154.666 267.055C155.414 267.055 156.007 267.274 156.444 267.711C156.888 268.14 157.11 268.774 157.11 269.61V272.999H156.044V269.733C156.044 269.162 155.907 268.733 155.632 268.444C155.358 268.155 154.966 268.011 154.455 268.011C153.877 268.011 153.422 268.181 153.088 268.522C152.755 268.855 152.588 269.336 152.588 269.966V272.999H151.522V267.111H152.544V268C152.759 267.696 153.048 267.463 153.41 267.3C153.781 267.137 154.199 267.055 154.666 267.055ZM164.438 270.088C164.438 270.17 164.431 270.277 164.416 270.41H159.639C159.705 270.929 159.931 271.347 160.316 271.666C160.709 271.977 161.194 272.132 161.772 272.132C162.475 272.132 163.042 271.895 163.472 271.421L164.06 272.11C163.794 272.421 163.461 272.658 163.061 272.821C162.668 272.984 162.227 273.066 161.738 273.066C161.116 273.066 160.565 272.94 160.083 272.688C159.602 272.429 159.228 272.069 158.961 271.61C158.702 271.151 158.572 270.633 158.572 270.055C158.572 269.485 158.698 268.97 158.95 268.511C159.209 268.051 159.561 267.696 160.005 267.444C160.457 267.185 160.964 267.055 161.527 267.055C162.09 267.055 162.59 267.185 163.027 267.444C163.472 267.696 163.816 268.051 164.06 268.511C164.312 268.97 164.438 269.496 164.438 270.088ZM161.527 267.955C161.016 267.955 160.587 268.111 160.239 268.422C159.898 268.733 159.698 269.14 159.639 269.644H163.416C163.357 269.148 163.153 268.744 162.805 268.433C162.464 268.114 162.038 267.955 161.527 267.955ZM167.608 273.066C167.126 273.066 166.664 273.003 166.219 272.877C165.775 272.743 165.427 272.577 165.175 272.377L165.619 271.533C165.878 271.718 166.193 271.866 166.564 271.977C166.934 272.088 167.308 272.144 167.686 272.144C168.619 272.144 169.086 271.877 169.086 271.344C169.086 271.166 169.023 271.025 168.897 270.921C168.771 270.818 168.612 270.744 168.419 270.699C168.234 270.647 167.967 270.592 167.619 270.533C167.145 270.459 166.756 270.373 166.452 270.277C166.156 270.181 165.901 270.018 165.686 269.788C165.471 269.559 165.364 269.236 165.364 268.822C165.364 268.288 165.586 267.863 166.03 267.544C166.475 267.218 167.071 267.055 167.819 267.055C168.212 267.055 168.604 267.103 168.997 267.2C169.389 267.296 169.711 267.426 169.963 267.588L169.508 268.433C169.026 268.122 168.46 267.966 167.808 267.966C167.356 267.966 167.012 268.04 166.775 268.188C166.538 268.337 166.419 268.533 166.419 268.777C166.419 268.97 166.486 269.122 166.619 269.233C166.752 269.344 166.915 269.425 167.108 269.477C167.308 269.529 167.586 269.588 167.941 269.655C168.415 269.736 168.797 269.825 169.086 269.922C169.382 270.01 169.634 270.166 169.841 270.388C170.048 270.61 170.152 270.921 170.152 271.321C170.152 271.855 169.923 272.281 169.463 272.599C169.011 272.91 168.393 273.066 167.608 273.066ZM173.174 273.066C172.692 273.066 172.229 273.003 171.785 272.877C171.341 272.743 170.993 272.577 170.741 272.377L171.185 271.533C171.444 271.718 171.759 271.866 172.129 271.977C172.5 272.088 172.874 272.144 173.252 272.144C174.185 272.144 174.651 271.877 174.651 271.344C174.651 271.166 174.588 271.025 174.463 270.921C174.337 270.818 174.177 270.744 173.985 270.699C173.8 270.647 173.533 270.592 173.185 270.533C172.711 270.459 172.322 270.373 172.018 270.277C171.722 270.181 171.467 270.018 171.252 269.788C171.037 269.559 170.93 269.236 170.93 268.822C170.93 268.288 171.152 267.863 171.596 267.544C172.041 267.218 172.637 267.055 173.385 267.055C173.777 267.055 174.17 267.103 174.563 267.2C174.955 267.296 175.277 267.426 175.529 267.588L175.074 268.433C174.592 268.122 174.026 267.966 173.374 267.966C172.922 267.966 172.578 268.04 172.341 268.188C172.104 268.337 171.985 268.533 171.985 268.777C171.985 268.97 172.052 269.122 172.185 269.233C172.318 269.344 172.481 269.425 172.674 269.477C172.874 269.529 173.152 269.588 173.507 269.655C173.981 269.736 174.363 269.825 174.651 269.922C174.948 270.01 175.2 270.166 175.407 270.388C175.614 270.61 175.718 270.921 175.718 271.321C175.718 271.855 175.488 272.281 175.029 272.599C174.577 272.91 173.959 273.066 173.174 273.066Z" fill="white"/>
<path d="M279.644 273.088C278.866 273.088 278.163 272.918 277.533 272.577C276.911 272.229 276.422 271.755 276.067 271.155C275.711 270.547 275.533 269.866 275.533 269.111C275.533 268.355 275.711 267.677 276.067 267.077C276.422 266.47 276.915 265.996 277.544 265.655C278.174 265.307 278.877 265.133 279.655 265.133C280.262 265.133 280.818 265.237 281.322 265.444C281.825 265.644 282.255 265.944 282.61 266.344L281.888 267.044C281.303 266.429 280.574 266.122 279.7 266.122C279.122 266.122 278.6 266.252 278.133 266.511C277.666 266.77 277.3 267.129 277.033 267.588C276.774 268.04 276.644 268.548 276.644 269.111C276.644 269.673 276.774 270.184 277.033 270.644C277.3 271.096 277.666 271.451 278.133 271.71C278.6 271.969 279.122 272.099 279.7 272.099C280.566 272.099 281.296 271.788 281.888 271.166L282.61 271.866C282.255 272.266 281.822 272.569 281.31 272.777C280.807 272.984 280.251 273.088 279.644 273.088ZM286.312 273.066C285.727 273.066 285.201 272.936 284.735 272.677C284.268 272.418 283.901 272.062 283.635 271.61C283.375 271.151 283.246 270.633 283.246 270.055C283.246 269.477 283.375 268.962 283.635 268.511C283.901 268.051 284.268 267.696 284.735 267.444C285.201 267.185 285.727 267.055 286.312 267.055C286.897 267.055 287.419 267.185 287.879 267.444C288.345 267.696 288.708 268.051 288.967 268.511C289.234 268.962 289.367 269.477 289.367 270.055C289.367 270.633 289.234 271.151 288.967 271.61C288.708 272.062 288.345 272.418 287.879 272.677C287.419 272.936 286.897 273.066 286.312 273.066ZM286.312 272.132C286.69 272.132 287.027 272.047 287.323 271.877C287.627 271.699 287.864 271.455 288.034 271.144C288.205 270.825 288.29 270.462 288.29 270.055C288.29 269.648 288.205 269.288 288.034 268.977C287.864 268.659 287.627 268.414 287.323 268.244C287.027 268.074 286.69 267.988 286.312 267.988C285.934 267.988 285.594 268.074 285.29 268.244C284.994 268.414 284.757 268.659 284.579 268.977C284.409 269.288 284.323 269.648 284.323 270.055C284.323 270.462 284.409 270.825 284.579 271.144C284.757 271.455 284.994 271.699 285.29 271.877C285.594 272.047 285.934 272.132 286.312 272.132ZM293.987 267.055C294.735 267.055 295.327 267.274 295.764 267.711C296.209 268.14 296.431 268.774 296.431 269.61V272.999H295.364V269.733C295.364 269.162 295.227 268.733 294.953 268.444C294.679 268.155 294.287 268.011 293.775 268.011C293.198 268.011 292.742 268.181 292.409 268.522C292.076 268.855 291.909 269.336 291.909 269.966V272.999H290.842V267.111H291.865V268C292.079 267.696 292.368 267.463 292.731 267.3C293.101 267.137 293.52 267.055 293.987 267.055ZM300.093 273.066C299.612 273.066 299.149 273.003 298.705 272.877C298.26 272.743 297.912 272.577 297.66 272.377L298.105 271.533C298.364 271.718 298.679 271.866 299.049 271.977C299.419 272.088 299.793 272.144 300.171 272.144C301.104 272.144 301.571 271.877 301.571 271.344C301.571 271.166 301.508 271.025 301.382 270.921C301.256 270.818 301.097 270.744 300.904 270.699C300.719 270.647 300.453 270.592 300.104 270.533C299.63 270.459 299.242 270.373 298.938 270.277C298.642 270.181 298.386 270.018 298.171 269.788C297.956 269.559 297.849 269.236 297.849 268.822C297.849 268.288 298.071 267.863 298.516 267.544C298.96 267.218 299.556 267.055 300.304 267.055C300.697 267.055 301.09 267.103 301.482 267.2C301.875 267.296 302.197 267.426 302.449 267.588L301.993 268.433C301.512 268.122 300.945 267.966 300.293 267.966C299.841 267.966 299.497 268.04 299.26 268.188C299.023 268.337 298.905 268.533 298.905 268.777C298.905 268.97 298.971 269.122 299.105 269.233C299.238 269.344 299.401 269.425 299.593 269.477C299.793 269.529 300.071 269.588 300.427 269.655C300.901 269.736 301.282 269.825 301.571 269.922C301.867 270.01 302.119 270.166 302.326 270.388C302.534 270.61 302.638 270.921 302.638 271.321C302.638 271.855 302.408 272.281 301.949 272.599C301.497 272.91 300.878 273.066 300.093 273.066ZM303.97 267.111H305.037V272.999H303.97V267.111ZM304.504 265.978C304.296 265.978 304.122 265.911 303.982 265.778C303.848 265.644 303.782 265.481 303.782 265.289C303.782 265.096 303.848 264.933 303.982 264.8C304.122 264.659 304.296 264.589 304.504 264.589C304.711 264.589 304.881 264.655 305.015 264.789C305.156 264.915 305.226 265.074 305.226 265.266C305.226 265.466 305.156 265.637 305.015 265.778C304.881 265.911 304.711 265.978 304.504 265.978ZM312.628 264.755V272.999H311.606V272.066C311.369 272.392 311.069 272.64 310.706 272.81C310.343 272.981 309.944 273.066 309.507 273.066C308.936 273.066 308.425 272.94 307.973 272.688C307.522 272.436 307.166 272.084 306.907 271.632C306.655 271.173 306.529 270.647 306.529 270.055C306.529 269.462 306.655 268.94 306.907 268.488C307.166 268.037 307.522 267.685 307.973 267.433C308.425 267.181 308.936 267.055 309.507 267.055C309.929 267.055 310.318 267.137 310.673 267.3C311.029 267.455 311.325 267.688 311.562 268V264.755H312.628ZM309.595 272.132C309.966 272.132 310.303 272.047 310.606 271.877C310.91 271.699 311.147 271.455 311.317 271.144C311.488 270.825 311.573 270.462 311.573 270.055C311.573 269.648 311.488 269.288 311.317 268.977C311.147 268.659 310.91 268.414 310.606 268.244C310.303 268.074 309.966 267.988 309.595 267.988C309.218 267.988 308.877 268.074 308.573 268.244C308.277 268.414 308.04 268.659 307.862 268.977C307.692 269.288 307.607 269.648 307.607 270.055C307.607 270.462 307.692 270.825 307.862 271.144C308.04 271.455 308.277 271.699 308.573 271.877C308.877 272.047 309.218 272.132 309.595 272.132ZM319.968 270.088C319.968 270.17 319.961 270.277 319.946 270.41H315.169C315.235 270.929 315.461 271.347 315.846 271.666C316.239 271.977 316.724 272.132 317.302 272.132C318.005 272.132 318.572 271.895 319.002 271.421L319.59 272.11C319.324 272.421 318.99 272.658 318.591 272.821C318.198 272.984 317.757 273.066 317.268 273.066C316.646 273.066 316.094 272.94 315.613 272.688C315.132 272.429 314.758 272.069 314.491 271.61C314.232 271.151 314.102 270.633 314.102 270.055C314.102 269.485 314.228 268.97 314.48 268.511C314.739 268.051 315.091 267.696 315.535 267.444C315.987 267.185 316.494 267.055 317.057 267.055C317.62 267.055 318.12 267.185 318.557 267.444C319.002 267.696 319.346 268.051 319.59 268.511C319.842 268.97 319.968 269.496 319.968 270.088ZM317.057 267.955C316.546 267.955 316.117 268.111 315.769 268.422C315.428 268.733 315.228 269.14 315.169 269.644H318.946C318.887 269.148 318.683 268.744 318.335 268.433C317.994 268.114 317.568 267.955 317.057 267.955ZM322.471 268.1C322.656 267.759 322.931 267.5 323.293 267.322C323.656 267.144 324.097 267.055 324.616 267.055V268.088C324.556 268.081 324.475 268.077 324.371 268.077C323.793 268.077 323.338 268.251 323.005 268.599C322.679 268.94 322.516 269.429 322.516 270.066V272.999H321.449V267.111H322.471V268.1ZM328.063 267.055C328.878 267.055 329.5 267.255 329.93 267.655C330.367 268.055 330.585 268.651 330.585 269.444V272.999H329.574V272.221C329.397 272.495 329.141 272.706 328.808 272.855C328.482 272.995 328.093 273.066 327.641 273.066C326.982 273.066 326.452 272.906 326.053 272.588C325.66 272.269 325.464 271.851 325.464 271.333C325.464 270.814 325.653 270.399 326.03 270.088C326.408 269.77 327.008 269.61 327.83 269.61H329.519V269.399C329.519 268.94 329.386 268.588 329.119 268.344C328.852 268.1 328.46 267.977 327.941 267.977C327.593 267.977 327.252 268.037 326.919 268.155C326.586 268.266 326.304 268.418 326.075 268.611L325.63 267.811C325.934 267.566 326.297 267.381 326.719 267.255C327.141 267.122 327.589 267.055 328.063 267.055ZM327.819 272.244C328.226 272.244 328.578 272.155 328.874 271.977C329.171 271.792 329.386 271.533 329.519 271.199V270.377H327.875C326.971 270.377 326.519 270.681 326.519 271.288C326.519 271.584 326.634 271.818 326.864 271.988C327.093 272.158 327.412 272.244 327.819 272.244ZM335.87 272.655C335.714 272.788 335.522 272.892 335.292 272.966C335.063 273.032 334.826 273.066 334.581 273.066C333.989 273.066 333.529 272.906 333.204 272.588C332.878 272.269 332.715 271.814 332.715 271.221V267.988H331.715V267.111H332.715V265.822H333.781V267.111H335.47V267.988H333.781V271.177C333.781 271.495 333.859 271.74 334.015 271.91C334.178 272.081 334.407 272.166 334.703 272.166C335.029 272.166 335.307 272.073 335.537 271.888L335.87 272.655ZM337.159 267.111H338.226V272.999H337.159V267.111ZM337.693 265.978C337.485 265.978 337.311 265.911 337.171 265.778C337.037 265.644 336.971 265.481 336.971 265.289C336.971 265.096 337.037 264.933 337.171 264.8C337.311 264.659 337.485 264.589 337.693 264.589C337.9 264.589 338.07 264.655 338.204 264.789C338.344 264.915 338.415 265.074 338.415 265.266C338.415 265.466 338.344 265.637 338.204 265.778C338.07 265.911 337.9 265.978 337.693 265.978ZM342.784 273.066C342.199 273.066 341.673 272.936 341.207 272.677C340.74 272.418 340.373 272.062 340.107 271.61C339.848 271.151 339.718 270.633 339.718 270.055C339.718 269.477 339.848 268.962 340.107 268.511C340.373 268.051 340.74 267.696 341.207 267.444C341.673 267.185 342.199 267.055 342.784 267.055C343.369 267.055 343.892 267.185 344.351 267.444C344.817 267.696 345.18 268.051 345.44 268.511C345.706 268.962 345.84 269.477 345.84 270.055C345.84 270.633 345.706 271.151 345.44 271.61C345.18 272.062 344.817 272.418 344.351 272.677C343.892 272.936 343.369 273.066 342.784 273.066ZM342.784 272.132C343.162 272.132 343.499 272.047 343.795 271.877C344.099 271.699 344.336 271.455 344.506 271.144C344.677 270.825 344.762 270.462 344.762 270.055C344.762 269.648 344.677 269.288 344.506 268.977C344.336 268.659 344.099 268.414 343.795 268.244C343.499 268.074 343.162 267.988 342.784 267.988C342.407 267.988 342.066 268.074 341.762 268.244C341.466 268.414 341.229 268.659 341.051 268.977C340.881 269.288 340.796 269.648 340.796 270.055C340.796 270.462 340.881 270.825 341.051 271.144C341.229 271.455 341.466 271.699 341.762 271.877C342.066 272.047 342.407 272.132 342.784 272.132ZM350.459 267.055C351.207 267.055 351.799 267.274 352.236 267.711C352.681 268.14 352.903 268.774 352.903 269.61V272.999H351.836V269.733C351.836 269.162 351.699 268.733 351.425 268.444C351.151 268.155 350.759 268.011 350.248 268.011C349.67 268.011 349.214 268.181 348.881 268.522C348.548 268.855 348.381 269.336 348.381 269.966V272.999H347.315V267.111H348.337V268C348.552 267.696 348.84 267.463 349.203 267.3C349.574 267.137 349.992 267.055 350.459 267.055Z" fill="white"/>
<path d="M574.167 265.222H575.278V272.032H579.488V272.999H574.167V265.222ZM583.054 273.066C582.468 273.066 581.943 272.936 581.476 272.677C581.009 272.418 580.643 272.062 580.376 271.61C580.117 271.151 579.987 270.633 579.987 270.055C579.987 269.477 580.117 268.962 580.376 268.511C580.643 268.051 581.009 267.696 581.476 267.444C581.943 267.185 582.468 267.055 583.054 267.055C583.639 267.055 584.161 267.185 584.62 267.444C585.087 267.696 585.45 268.051 585.709 268.511C585.976 268.962 586.109 269.477 586.109 270.055C586.109 270.633 585.976 271.151 585.709 271.61C585.45 272.062 585.087 272.418 584.62 272.677C584.161 272.936 583.639 273.066 583.054 273.066ZM583.054 272.132C583.431 272.132 583.768 272.047 584.065 271.877C584.368 271.699 584.605 271.455 584.776 271.144C584.946 270.825 585.031 270.462 585.031 270.055C585.031 269.648 584.946 269.288 584.776 268.977C584.605 268.659 584.368 268.414 584.065 268.244C583.768 268.074 583.431 267.988 583.054 267.988C582.676 267.988 582.335 268.074 582.031 268.244C581.735 268.414 581.498 268.659 581.32 268.977C581.15 269.288 581.065 269.648 581.065 270.055C581.065 270.462 581.15 270.825 581.32 271.144C581.498 271.455 581.735 271.699 582.031 271.877C582.335 272.047 582.676 272.132 583.054 272.132ZM592.632 267.111L589.776 273.588C589.525 274.188 589.228 274.61 588.888 274.854C588.554 275.099 588.151 275.221 587.677 275.221C587.388 275.221 587.106 275.173 586.832 275.077C586.566 274.988 586.343 274.854 586.166 274.677L586.621 273.877C586.925 274.166 587.277 274.31 587.677 274.31C587.936 274.31 588.151 274.24 588.321 274.099C588.499 273.966 588.658 273.732 588.799 273.399L588.988 272.988L586.388 267.111H587.499L589.554 271.821L591.587 267.111H592.632ZM595.587 267.055C596.402 267.055 597.024 267.255 597.453 267.655C597.89 268.055 598.109 268.651 598.109 269.444V272.999H597.098V272.221C596.92 272.495 596.665 272.706 596.331 272.855C596.005 272.995 595.617 273.066 595.165 273.066C594.506 273.066 593.976 272.906 593.576 272.588C593.183 272.269 592.987 271.851 592.987 271.333C592.987 270.814 593.176 270.399 593.554 270.088C593.932 269.77 594.531 269.61 595.354 269.61H597.042V269.399C597.042 268.94 596.909 268.588 596.642 268.344C596.376 268.1 595.983 267.977 595.465 267.977C595.117 267.977 594.776 268.037 594.443 268.155C594.109 268.266 593.828 268.418 593.598 268.611L593.154 267.811C593.457 267.566 593.82 267.381 594.243 267.255C594.665 267.122 595.113 267.055 595.587 267.055ZM595.342 272.244C595.75 272.244 596.102 272.155 596.398 271.977C596.694 271.792 596.909 271.533 597.042 271.199V270.377H595.398C594.494 270.377 594.043 270.681 594.043 271.288C594.043 271.584 594.157 271.818 594.387 271.988C594.617 272.158 594.935 272.244 595.342 272.244ZM600.083 264.755H601.149V272.999H600.083V264.755ZM606.637 272.655C606.482 272.788 606.289 272.892 606.06 272.966C605.83 273.032 605.593 273.066 605.349 273.066C604.756 273.066 604.297 272.906 603.971 272.588C603.645 272.269 603.482 271.814 603.482 271.221V267.988H602.482V267.111H603.482V265.822H604.549V267.111H606.237V267.988H604.549V271.177C604.549 271.495 604.627 271.74 604.782 271.91C604.945 272.081 605.175 272.166 605.471 272.166C605.797 272.166 606.075 272.073 606.304 271.888L606.637 272.655ZM613.029 267.111L610.174 273.588C609.922 274.188 609.626 274.61 609.285 274.854C608.952 275.099 608.548 275.221 608.074 275.221C607.785 275.221 607.504 275.173 607.23 275.077C606.963 274.988 606.741 274.854 606.563 274.677L607.018 273.877C607.322 274.166 607.674 274.31 608.074 274.31C608.333 274.31 608.548 274.24 608.718 274.099C608.896 273.966 609.055 273.732 609.196 273.399L609.385 272.988L606.785 267.111H607.896L609.952 271.821L611.985 267.111H613.029Z" fill="white"/>
<path d="M426.167 265.222H429.444C430.266 265.222 430.996 265.385 431.633 265.711C432.27 266.037 432.762 266.496 433.11 267.089C433.466 267.674 433.644 268.348 433.644 269.111C433.644 269.873 433.466 270.551 433.11 271.144C432.762 271.729 432.27 272.184 431.633 272.51C430.996 272.836 430.266 272.999 429.444 272.999H426.167V265.222ZM429.377 272.032C430.007 272.032 430.559 271.91 431.033 271.666C431.514 271.421 431.884 271.081 432.144 270.644C432.403 270.199 432.533 269.688 432.533 269.111C432.533 268.533 432.403 268.025 432.144 267.588C431.884 267.144 431.514 266.8 431.033 266.555C430.559 266.311 430.007 266.189 429.377 266.189H427.278V272.032H429.377ZM440.511 270.088C440.511 270.17 440.504 270.277 440.489 270.41H435.712C435.779 270.929 436.005 271.347 436.39 271.666C436.782 271.977 437.267 272.132 437.845 272.132C438.549 272.132 439.115 271.895 439.545 271.421L440.134 272.11C439.867 272.421 439.534 272.658 439.134 272.821C438.741 272.984 438.301 273.066 437.812 273.066C437.19 273.066 436.638 272.94 436.156 272.688C435.675 272.429 435.301 272.069 435.034 271.61C434.775 271.151 434.645 270.633 434.645 270.055C434.645 269.485 434.771 268.97 435.023 268.511C435.282 268.051 435.634 267.696 436.079 267.444C436.53 267.185 437.038 267.055 437.601 267.055C438.164 267.055 438.664 267.185 439.1 267.444C439.545 267.696 439.889 268.051 440.134 268.511C440.386 268.97 440.511 269.496 440.511 270.088ZM437.601 267.955C437.09 267.955 436.66 268.111 436.312 268.422C435.971 268.733 435.771 269.14 435.712 269.644H439.489C439.43 269.148 439.226 268.744 438.878 268.433C438.538 268.114 438.112 267.955 437.601 267.955ZM444.559 273.066C443.959 273.066 443.422 272.936 442.948 272.677C442.481 272.418 442.115 272.062 441.848 271.61C441.581 271.151 441.448 270.633 441.448 270.055C441.448 269.477 441.581 268.962 441.848 268.511C442.115 268.051 442.481 267.696 442.948 267.444C443.422 267.185 443.959 267.055 444.559 267.055C445.092 267.055 445.566 267.163 445.981 267.377C446.403 267.592 446.729 267.903 446.959 268.311L446.148 268.833C445.962 268.551 445.733 268.34 445.459 268.2C445.185 268.059 444.881 267.988 444.548 267.988C444.163 267.988 443.815 268.074 443.503 268.244C443.2 268.414 442.959 268.659 442.781 268.977C442.611 269.288 442.526 269.648 442.526 270.055C442.526 270.47 442.611 270.836 442.781 271.155C442.959 271.466 443.2 271.707 443.503 271.877C443.815 272.047 444.163 272.132 444.548 272.132C444.881 272.132 445.185 272.062 445.459 271.921C445.733 271.781 445.962 271.57 446.148 271.288L446.959 271.799C446.729 272.207 446.403 272.521 445.981 272.743C445.566 272.958 445.092 273.066 444.559 273.066ZM448.34 267.111H449.406V272.999H448.34V267.111ZM448.873 265.978C448.665 265.978 448.491 265.911 448.351 265.778C448.217 265.644 448.151 265.481 448.151 265.289C448.151 265.096 448.217 264.933 448.351 264.8C448.491 264.659 448.665 264.589 448.873 264.589C449.08 264.589 449.251 264.655 449.384 264.789C449.525 264.915 449.595 265.074 449.595 265.266C449.595 265.466 449.525 265.637 449.384 265.778C449.251 265.911 449.08 265.978 448.873 265.978ZM453.131 273.066C452.65 273.066 452.187 273.003 451.742 272.877C451.298 272.743 450.95 272.577 450.698 272.377L451.143 271.533C451.402 271.718 451.717 271.866 452.087 271.977C452.457 272.088 452.831 272.144 453.209 272.144C454.142 272.144 454.609 271.877 454.609 271.344C454.609 271.166 454.546 271.025 454.42 270.921C454.294 270.818 454.135 270.744 453.942 270.699C453.757 270.647 453.49 270.592 453.142 270.533C452.668 270.459 452.279 270.373 451.976 270.277C451.68 270.181 451.424 270.018 451.209 269.788C450.994 269.559 450.887 269.236 450.887 268.822C450.887 268.288 451.109 267.863 451.554 267.544C451.998 267.218 452.594 267.055 453.342 267.055C453.735 267.055 454.127 267.103 454.52 267.2C454.913 267.296 455.235 267.426 455.487 267.588L455.031 268.433C454.55 268.122 453.983 267.966 453.331 267.966C452.879 267.966 452.535 268.04 452.298 268.188C452.061 268.337 451.942 268.533 451.942 268.777C451.942 268.97 452.009 269.122 452.142 269.233C452.276 269.344 452.439 269.425 452.631 269.477C452.831 269.529 453.109 269.588 453.465 269.655C453.939 269.736 454.32 269.825 454.609 269.922C454.905 270.01 455.157 270.166 455.364 270.388C455.572 270.61 455.675 270.921 455.675 271.321C455.675 271.855 455.446 272.281 454.987 272.599C454.535 272.91 453.916 273.066 453.131 273.066ZM457.008 267.111H458.075V272.999H457.008V267.111ZM457.542 265.978C457.334 265.978 457.16 265.911 457.019 265.778C456.886 265.644 456.819 265.481 456.819 265.289C456.819 265.096 456.886 264.933 457.019 264.8C457.16 264.659 457.334 264.589 457.542 264.589C457.749 264.589 457.919 264.655 458.053 264.789C458.193 264.915 458.264 265.074 458.264 265.266C458.264 265.466 458.193 265.637 458.053 265.778C457.919 265.911 457.749 265.978 457.542 265.978ZM462.633 273.066C462.048 273.066 461.522 272.936 461.056 272.677C460.589 272.418 460.222 272.062 459.956 271.61C459.697 271.151 459.567 270.633 459.567 270.055C459.567 269.477 459.697 268.962 459.956 268.511C460.222 268.051 460.589 267.696 461.056 267.444C461.522 267.185 462.048 267.055 462.633 267.055C463.218 267.055 463.741 267.185 464.2 267.444C464.666 267.696 465.029 268.051 465.289 268.511C465.555 268.962 465.689 269.477 465.689 270.055C465.689 270.633 465.555 271.151 465.289 271.61C465.029 272.062 464.666 272.418 464.2 272.677C463.741 272.936 463.218 273.066 462.633 273.066ZM462.633 272.132C463.011 272.132 463.348 272.047 463.644 271.877C463.948 271.699 464.185 271.455 464.355 271.144C464.526 270.825 464.611 270.462 464.611 270.055C464.611 269.648 464.526 269.288 464.355 268.977C464.185 268.659 463.948 268.414 463.644 268.244C463.348 268.074 463.011 267.988 462.633 267.988C462.256 267.988 461.915 268.074 461.611 268.244C461.315 268.414 461.078 268.659 460.9 268.977C460.73 269.288 460.645 269.648 460.645 270.055C460.645 270.462 460.73 270.825 460.9 271.144C461.078 271.455 461.315 271.699 461.611 271.877C461.915 272.047 462.256 272.132 462.633 272.132ZM470.308 267.055C471.056 267.055 471.648 267.274 472.085 267.711C472.53 268.14 472.752 268.774 472.752 269.61V272.999H471.685V269.733C471.685 269.162 471.548 268.733 471.274 268.444C471 268.155 470.608 268.011 470.097 268.011C469.519 268.011 469.063 268.181 468.73 268.522C468.397 268.855 468.23 269.336 468.23 269.966V272.999H467.164V267.111H468.186V268C468.4 267.696 468.689 267.463 469.052 267.3C469.423 267.137 469.841 267.055 470.308 267.055Z" fill="white"/>
<path d="M4.19958 264.222C5.20689 264.222 5.9994 264.463 6.57712 264.944C7.15484 265.425 7.4437 266.088 7.4437 266.933C7.4437 267.777 7.15484 268.44 6.57712 268.921C5.9994 269.403 5.20689 269.644 4.19958 269.644H2.27755V271.999H1.16655V264.222H4.19958ZM4.16625 268.677C4.86988 268.677 5.40687 268.529 5.7772 268.233C6.14753 267.929 6.3327 267.496 6.3327 266.933C6.3327 266.37 6.14753 265.94 5.7772 265.644C5.40687 265.34 4.86988 265.188 4.16625 265.188H2.27755V268.677H4.16625ZM12.173 266.055C12.9211 266.055 13.5136 266.274 13.9506 266.711C14.395 267.14 14.6172 267.773 14.6172 268.61V271.999H13.5506V268.733C13.5506 268.162 13.4136 267.733 13.1396 267.444C12.8655 267.155 12.473 267.011 11.9619 267.011C11.3842 267.011 10.9287 267.181 10.5954 267.522C10.2621 267.855 10.0954 268.336 10.0954 268.966V271.999H9.02887V263.755H10.0954V266.944C10.3176 266.662 10.6065 266.444 10.962 266.288C11.3249 266.133 11.7286 266.055 12.173 266.055ZM18.7353 266.055C19.55 266.055 20.1722 266.255 20.6018 266.655C21.0388 267.055 21.2572 267.651 21.2572 268.444V271.999H20.2462V271.221C20.0685 271.495 19.8129 271.706 19.4796 271.854C19.1538 271.995 18.7649 272.066 18.3131 272.066C17.6539 272.066 17.1243 271.906 16.7244 271.588C16.3318 271.269 16.1355 270.851 16.1355 270.332C16.1355 269.814 16.3244 269.399 16.7021 269.088C17.0799 268.77 17.6798 268.61 18.502 268.61H20.1907V268.399C20.1907 267.94 20.0574 267.588 19.7907 267.344C19.5241 267.099 19.1315 266.977 18.6131 266.977C18.265 266.977 17.9242 267.036 17.5909 267.155C17.2576 267.266 16.9762 267.418 16.7466 267.61L16.3022 266.811C16.6059 266.566 16.9688 266.381 17.391 266.255C17.8131 266.122 18.2613 266.055 18.7353 266.055ZM18.4909 271.243C18.8982 271.243 19.25 271.155 19.5463 270.977C19.8426 270.792 20.0574 270.532 20.1907 270.199V269.377H18.5464C17.6428 269.377 17.191 269.681 17.191 270.288C17.191 270.584 17.3058 270.818 17.5354 270.988C17.765 271.158 18.0835 271.243 18.4909 271.243ZM24.9197 272.066C24.4383 272.066 23.9754 272.003 23.531 271.877C23.0866 271.743 22.7385 271.577 22.4866 271.377L22.931 270.532C23.1903 270.718 23.5051 270.866 23.8754 270.977C24.2457 271.088 24.6198 271.143 24.9975 271.143C25.9307 271.143 26.3974 270.877 26.3974 270.344C26.3974 270.166 26.3344 270.025 26.2085 269.921C26.0826 269.818 25.9233 269.744 25.7308 269.699C25.5456 269.647 25.279 269.592 24.9308 269.532C24.4568 269.458 24.068 269.373 23.7643 269.277C23.468 269.181 23.2125 269.018 22.9977 268.788C22.7829 268.559 22.6755 268.236 22.6755 267.822C22.6755 267.288 22.8977 266.862 23.3421 266.544C23.7865 266.218 24.3827 266.055 25.1308 266.055C25.5234 266.055 25.9159 266.103 26.3085 266.199C26.701 266.296 27.0232 266.425 27.275 266.588L26.8195 267.433C26.3381 267.122 25.7715 266.966 25.1197 266.966C24.6679 266.966 24.3235 267.04 24.0865 267.188C23.8495 267.336 23.731 267.533 23.731 267.777C23.731 267.97 23.7976 268.122 23.9309 268.233C24.0643 268.344 24.2272 268.425 24.4198 268.477C24.6198 268.529 24.8975 268.588 25.253 268.655C25.7271 268.736 26.1085 268.825 26.3974 268.921C26.6936 269.01 26.9455 269.166 27.1528 269.388C27.3602 269.61 27.4639 269.921 27.4639 270.321C27.4639 270.855 27.2343 271.28 26.7751 271.599C26.3233 271.91 25.7048 272.066 24.9197 272.066ZM34.1185 269.088C34.1185 269.17 34.1111 269.277 34.0963 269.41H29.319C29.3857 269.929 29.6116 270.347 29.9967 270.666C30.3893 270.977 30.8744 271.132 31.4521 271.132C32.1558 271.132 32.7224 270.895 33.152 270.421L33.7408 271.11C33.4742 271.421 33.1409 271.658 32.7409 271.821C32.3484 271.984 31.9077 272.066 31.4188 272.066C30.7967 272.066 30.2449 271.94 29.7634 271.688C29.282 271.429 28.908 271.069 28.6413 270.61C28.3821 270.151 28.2525 269.632 28.2525 269.055C28.2525 268.484 28.3784 267.97 28.6302 267.51C28.8894 267.051 29.2413 266.696 29.6857 266.444C30.1375 266.185 30.6448 266.055 31.2077 266.055C31.7706 266.055 32.2706 266.185 32.7076 266.444C33.152 266.696 33.4964 267.051 33.7408 267.51C33.9926 267.97 34.1185 268.496 34.1185 269.088ZM31.2077 266.955C30.6967 266.955 30.2671 267.111 29.919 267.422C29.5783 267.733 29.3783 268.14 29.319 268.644H33.0964C33.0372 268.147 32.8335 267.744 32.4854 267.433C32.1447 267.114 31.7188 266.955 31.2077 266.955ZM37.2883 272.066C36.8069 272.066 36.3439 272.003 35.8995 271.877C35.4551 271.743 35.107 271.577 34.8552 271.377L35.2996 270.532C35.5588 270.718 35.8736 270.866 36.2439 270.977C36.6143 271.088 36.9883 271.143 37.3661 271.143C38.2993 271.143 38.7659 270.877 38.7659 270.344C38.7659 270.166 38.703 270.025 38.577 269.921C38.4511 269.818 38.2919 269.744 38.0993 269.699C37.9141 269.647 37.6475 269.592 37.2994 269.532C36.8254 269.458 36.4365 269.373 36.1328 269.277C35.8366 269.181 35.581 269.018 35.3663 268.788C35.1515 268.559 35.0441 268.236 35.0441 267.822C35.0441 267.288 35.2663 266.862 35.7107 266.544C36.1551 266.218 36.7513 266.055 37.4994 266.055C37.8919 266.055 38.2845 266.103 38.677 266.199C39.0696 266.296 39.3918 266.425 39.6436 266.588L39.1881 267.433C38.7067 267.122 38.1401 266.966 37.4883 266.966C37.0365 266.966 36.692 267.04 36.455 267.188C36.218 267.336 36.0995 267.533 36.0995 267.777C36.0995 267.97 36.1662 268.122 36.2995 268.233C36.4328 268.344 36.5958 268.425 36.7883 268.477C36.9883 268.529 37.2661 268.588 37.6216 268.655C38.0956 268.736 38.4771 268.825 38.7659 268.921C39.0622 269.01 39.314 269.166 39.5214 269.388C39.7288 269.61 39.8325 269.921 39.8325 270.321C39.8325 270.855 39.6029 271.28 39.1437 271.599C38.6918 271.91 38.0734 272.066 37.2883 272.066ZM46.671 272.066C46.0859 272.066 45.56 271.936 45.0934 271.677C44.6268 271.417 44.2602 271.062 43.9935 270.61C43.7343 270.151 43.6047 269.632 43.6047 269.055C43.6047 268.477 43.7343 267.962 43.9935 267.51C44.2602 267.051 44.6268 266.696 45.0934 266.444C45.56 266.185 46.0859 266.055 46.671 266.055C47.2562 266.055 47.7783 266.185 48.2375 266.444C48.7042 266.696 49.0671 267.051 49.3263 267.51C49.593 267.962 49.7263 268.477 49.7263 269.055C49.7263 269.632 49.593 270.151 49.3263 270.61C49.0671 271.062 48.7042 271.417 48.2375 271.677C47.7783 271.936 47.2562 272.066 46.671 272.066ZM46.671 271.132C47.0488 271.132 47.3858 271.047 47.682 270.877C47.9857 270.699 48.2227 270.455 48.3931 270.144C48.5634 269.825 48.6486 269.462 48.6486 269.055C48.6486 268.647 48.5634 268.288 48.3931 267.977C48.2227 267.659 47.9857 267.414 47.682 267.244C47.3858 267.073 47.0488 266.988 46.671 266.988C46.2933 266.988 45.9526 267.073 45.6489 267.244C45.3526 267.414 45.1156 267.659 44.9379 267.977C44.7675 268.288 44.6823 268.647 44.6823 269.055C44.6823 269.462 44.7675 269.825 44.9379 270.144C45.1156 270.455 45.3526 270.699 45.6489 270.877C45.9526 271.047 46.2933 271.132 46.671 271.132ZM53.3566 264.566C52.7197 264.566 52.4012 264.911 52.4012 265.6V266.111H54.1121V266.988H52.4234V271.999H51.3568V266.988H50.3569V266.111H51.3568V265.588C51.3568 265.003 51.5272 264.54 51.8679 264.2C52.2086 263.859 52.6863 263.689 53.3011 263.689C53.5381 263.689 53.7603 263.718 53.9677 263.778C54.1751 263.837 54.3528 263.922 54.501 264.033L54.1788 264.844C53.9344 264.659 53.6603 264.566 53.3566 264.566ZM57.3462 274.221C57.0869 274.221 56.8462 274.191 56.624 274.132C56.4018 274.073 56.2167 273.984 56.0685 273.865L56.4129 273.043C56.6351 273.228 56.924 273.321 57.2795 273.321C57.561 273.321 57.7758 273.232 57.9239 273.054C58.0794 272.884 58.1572 272.628 58.1572 272.288V266.111H59.2238V272.266C59.2238 272.873 59.0608 273.351 58.7349 273.699C58.409 274.047 57.9461 274.221 57.3462 274.221ZM58.6905 264.977C58.4831 264.977 58.309 264.911 58.1683 264.777C58.035 264.644 57.9683 264.481 57.9683 264.289C57.9683 264.096 58.035 263.933 58.1683 263.8C58.309 263.659 58.4831 263.589 58.6905 263.589C58.8979 263.589 59.0682 263.655 59.2015 263.789C59.3423 263.915 59.4126 264.074 59.4126 264.266C59.4126 264.466 59.3423 264.637 59.2015 264.777C59.0682 264.911 58.8979 264.977 58.6905 264.977ZM63.7809 272.066C63.1957 272.066 62.6699 271.936 62.2032 271.677C61.7366 271.417 61.37 271.062 61.1033 270.61C60.8441 270.151 60.7145 269.632 60.7145 269.055C60.7145 268.477 60.8441 267.962 61.1033 267.51C61.37 267.051 61.7366 266.696 62.2032 266.444C62.6699 266.185 63.1957 266.055 63.7809 266.055C64.366 266.055 64.8882 266.185 65.3474 266.444C65.814 266.696 66.1769 267.051 66.4361 267.51C66.7028 267.962 66.8361 268.477 66.8361 269.055C66.8361 269.632 66.7028 270.151 66.4361 270.61C66.1769 271.062 65.814 271.417 65.3474 271.677C64.8882 271.936 64.366 272.066 63.7809 272.066ZM63.7809 271.132C64.1586 271.132 64.4956 271.047 64.7919 270.877C65.0955 270.699 65.3326 270.455 65.5029 270.144C65.6733 269.825 65.7584 269.462 65.7584 269.055C65.7584 268.647 65.6733 268.288 65.5029 267.977C65.3326 267.659 65.0955 267.414 64.7919 267.244C64.4956 267.073 64.1586 266.988 63.7809 266.988C63.4031 266.988 63.0624 267.073 62.7587 267.244C62.4625 267.414 62.2255 267.659 62.0477 267.977C61.8773 268.288 61.7922 268.647 61.7922 269.055C61.7922 269.462 61.8773 269.825 62.0477 270.144C62.2255 270.455 62.4625 270.699 62.7587 270.877C63.0624 271.047 63.4031 271.132 63.7809 271.132ZM73.7995 266.111V271.999H72.7885V271.11C72.5737 271.414 72.2885 271.651 71.933 271.821C71.5849 271.984 71.2034 272.066 70.7887 272.066C70.0036 272.066 69.3851 271.851 68.9333 271.421C68.4815 270.984 68.2556 270.344 68.2556 269.499V266.111H69.3221V269.377C69.3221 269.947 69.4592 270.381 69.7332 270.677C70.0073 270.966 70.3998 271.11 70.9109 271.11C71.4738 271.11 71.9182 270.94 72.2441 270.599C72.57 270.258 72.7329 269.777 72.7329 269.155V266.111H73.7995ZM76.852 267.099C77.0372 266.759 77.3113 266.499 77.6742 266.322C78.0371 266.144 78.4778 266.055 78.9963 266.055V267.088C78.937 267.081 78.8555 267.077 78.7518 267.077C78.1741 267.077 77.7186 267.251 77.3853 267.599C77.0594 267.94 76.8965 268.429 76.8965 269.066V271.999H75.8299V266.111H76.852V267.099ZM83.4549 266.055C84.203 266.055 84.7955 266.274 85.2325 266.711C85.6769 267.14 85.8991 267.773 85.8991 268.61V271.999H84.8326V268.733C84.8326 268.162 84.6956 267.733 84.4215 267.444C84.1475 267.155 83.7549 267.011 83.2438 267.011C82.6661 267.011 82.2106 267.181 81.8773 267.522C81.544 267.855 81.3774 268.336 81.3774 268.966V271.999H80.3108V266.111H81.3329V266.999C81.5477 266.696 81.8366 266.462 82.1995 266.299C82.5698 266.137 82.9883 266.055 83.4549 266.055ZM93.2272 269.088C93.2272 269.17 93.2198 269.277 93.205 269.41H88.4277C88.4944 269.929 88.7203 270.347 89.1054 270.666C89.498 270.977 89.9831 271.132 90.5608 271.132C91.2645 271.132 91.8311 270.895 92.2607 270.421L92.8495 271.11C92.5828 271.421 92.2495 271.658 91.8496 271.821C91.457 271.984 91.0163 272.066 90.5275 272.066C89.9053 272.066 89.3535 271.94 88.8721 271.688C88.3907 271.429 88.0166 271.069 87.75 270.61C87.4908 270.151 87.3611 269.632 87.3611 269.055C87.3611 268.484 87.4871 267.97 87.7389 267.51C87.9981 267.051 88.3499 266.696 88.7943 266.444C89.2461 266.185 89.7535 266.055 90.3164 266.055C90.8793 266.055 91.3793 266.185 91.8163 266.444C92.2607 266.696 92.6051 267.051 92.8495 267.51C93.1013 267.97 93.2272 268.496 93.2272 269.088ZM90.3164 266.955C89.8053 266.955 89.3758 267.111 89.0276 267.422C88.6869 267.733 88.487 268.14 88.4277 268.644H92.2051C92.1459 268.147 91.9422 267.744 91.5941 267.433C91.2533 267.114 90.8275 266.955 90.3164 266.955ZM99.8103 266.111L96.9551 272.588C96.7032 273.188 96.407 273.61 96.0663 273.854C95.733 274.099 95.3293 274.221 94.8553 274.221C94.5664 274.221 94.285 274.173 94.0109 274.076C93.7443 273.988 93.5221 273.854 93.3443 273.677L93.7998 272.877C94.1035 273.165 94.4553 273.31 94.8553 273.31C95.1145 273.31 95.3293 273.24 95.4996 273.099C95.6774 272.965 95.8367 272.732 95.9774 272.399L96.1662 271.988L93.5665 266.111H94.6775L96.7329 270.821L98.766 266.111H99.8103Z" fill="black"/>
<path d="M9.81043 174.033V174.999H4.16655V167.222H9.65489V168.189H5.27755V170.577H9.17716V171.522H5.27755V174.033H9.81043ZM18.8198 169.055C19.5604 169.055 20.1456 169.27 20.5752 169.7C21.0121 170.129 21.2306 170.766 21.2306 171.611V174.999H20.1641V171.733C20.1641 171.162 20.0308 170.733 19.7641 170.444C19.5049 170.155 19.1309 170.011 18.642 170.011C18.1013 170.011 17.6717 170.181 17.3533 170.522C17.0348 170.855 16.8755 171.337 16.8755 171.966V174.999H15.809V171.733C15.809 171.162 15.6756 170.733 15.409 170.444C15.1498 170.155 14.7757 170.011 14.2869 170.011C13.7462 170.011 13.3166 170.181 12.9981 170.522C12.6796 170.855 12.5204 171.337 12.5204 171.966V174.999H11.4538V169.111H12.476V169.989C12.6908 169.685 12.9722 169.455 13.3203 169.3C13.6684 169.137 14.0647 169.055 14.5091 169.055C14.9683 169.055 15.3757 169.148 15.7312 169.333C16.0867 169.518 16.3608 169.789 16.5533 170.144C16.7755 169.803 17.0829 169.537 17.4755 169.344C17.8754 169.152 18.3235 169.055 18.8198 169.055ZM25.7476 175.066C25.1625 175.066 24.6366 174.936 24.17 174.677C23.7034 174.418 23.3368 174.062 23.0701 173.61C22.8109 173.151 22.6813 172.633 22.6813 172.055C22.6813 171.477 22.8109 170.963 23.0701 170.511C23.3368 170.051 23.7034 169.696 24.17 169.444C24.6366 169.185 25.1625 169.055 25.7476 169.055C26.3328 169.055 26.8549 169.185 27.3141 169.444C27.7808 169.696 28.1437 170.051 28.4029 170.511C28.6696 170.963 28.8029 171.477 28.8029 172.055C28.8029 172.633 28.6696 173.151 28.4029 173.61C28.1437 174.062 27.7808 174.418 27.3141 174.677C26.8549 174.936 26.3328 175.066 25.7476 175.066ZM25.7476 174.133C26.1254 174.133 26.4624 174.047 26.7586 173.877C27.0623 173.699 27.2993 173.455 27.4697 173.144C27.64 172.825 27.7252 172.462 27.7252 172.055C27.7252 171.648 27.64 171.288 27.4697 170.977C27.2993 170.659 27.0623 170.414 26.7586 170.244C26.4624 170.074 26.1254 169.989 25.7476 169.989C25.3699 169.989 25.0292 170.074 24.7255 170.244C24.4293 170.414 24.1922 170.659 24.0145 170.977C23.8441 171.288 23.7589 171.648 23.7589 172.055C23.7589 172.462 23.8441 172.825 24.0145 173.144C24.1922 173.455 24.4293 173.699 24.7255 173.877C25.0292 174.047 25.3699 174.133 25.7476 174.133ZM33.5887 174.655C33.4332 174.788 33.2406 174.892 33.011 174.966C32.7814 175.032 32.5444 175.066 32.2999 175.066C31.7074 175.066 31.2482 174.907 30.9223 174.588C30.5964 174.27 30.4335 173.814 30.4335 173.222V169.989H29.4336V169.111H30.4335V167.822H31.5V169.111H33.1887V169.989H31.5V173.177C31.5 173.496 31.5778 173.74 31.7333 173.91C31.8963 174.081 32.1259 174.166 32.4221 174.166C32.748 174.166 33.0258 174.073 33.2554 173.888L33.5887 174.655ZM34.8781 169.111H35.9447V174.999H34.8781V169.111ZM35.4114 167.978C35.204 167.978 35.03 167.911 34.8893 167.778C34.7559 167.644 34.6893 167.481 34.6893 167.289C34.6893 167.096 34.7559 166.933 34.8893 166.8C35.03 166.659 35.204 166.589 35.4114 166.589C35.6188 166.589 35.7892 166.656 35.9225 166.789C36.0632 166.915 36.1336 167.074 36.1336 167.267C36.1336 167.467 36.0632 167.637 35.9225 167.778C35.7892 167.911 35.6188 167.978 35.4114 167.978ZM40.5031 175.066C39.918 175.066 39.3921 174.936 38.9255 174.677C38.4589 174.418 38.0922 174.062 37.8256 173.61C37.5664 173.151 37.4367 172.633 37.4367 172.055C37.4367 171.477 37.5664 170.963 37.8256 170.511C38.0922 170.051 38.4589 169.696 38.9255 169.444C39.3921 169.185 39.918 169.055 40.5031 169.055C41.0882 169.055 41.6104 169.185 42.0696 169.444C42.5362 169.696 42.8992 170.051 43.1584 170.511C43.425 170.963 43.5584 171.477 43.5584 172.055C43.5584 172.633 43.425 173.151 43.1584 173.61C42.8992 174.062 42.5362 174.418 42.0696 174.677C41.6104 174.936 41.0882 175.066 40.5031 175.066ZM40.5031 174.133C40.8808 174.133 41.2179 174.047 41.5141 173.877C41.8178 173.699 42.0548 173.455 42.2252 173.144C42.3955 172.825 42.4807 172.462 42.4807 172.055C42.4807 171.648 42.3955 171.288 42.2252 170.977C42.0548 170.659 41.8178 170.414 41.5141 170.244C41.2179 170.074 40.8808 169.989 40.5031 169.989C40.1254 169.989 39.7847 170.074 39.481 170.244C39.1847 170.414 38.9477 170.659 38.7699 170.977C38.5996 171.288 38.5144 171.648 38.5144 172.055C38.5144 172.462 38.5996 172.825 38.7699 173.144C38.9477 173.455 39.1847 173.699 39.481 173.877C39.7847 174.047 40.1254 174.133 40.5031 174.133ZM48.1775 169.055C48.9256 169.055 49.5181 169.274 49.9551 169.711C50.3995 170.14 50.6217 170.774 50.6217 171.611V174.999H49.5552V171.733C49.5552 171.162 49.4181 170.733 49.1441 170.444C48.87 170.155 48.4775 170.011 47.9664 170.011C47.3887 170.011 46.9332 170.181 46.5999 170.522C46.2666 170.855 46.0999 171.337 46.0999 171.966V174.999H45.0334V169.111H46.0555V170C46.2703 169.696 46.5592 169.463 46.9221 169.3C47.2924 169.137 47.7109 169.055 48.1775 169.055ZM54.7398 169.055C55.5545 169.055 56.1767 169.255 56.6063 169.655C57.0433 170.055 57.2618 170.651 57.2618 171.444V174.999H56.2507V174.221C56.073 174.495 55.8175 174.707 55.4842 174.855C55.1583 174.995 54.7694 175.066 54.3176 175.066C53.6584 175.066 53.1288 174.907 52.7289 174.588C52.3363 174.27 52.14 173.851 52.14 173.333C52.14 172.814 52.3289 172.399 52.7067 172.088C53.0844 171.77 53.6843 171.611 54.5065 171.611H56.1952V171.4C56.1952 170.94 56.0619 170.588 55.7952 170.344C55.5286 170.1 55.136 169.977 54.6176 169.977C54.2695 169.977 53.9288 170.037 53.5955 170.155C53.2622 170.266 52.9807 170.418 52.7511 170.611L52.3067 169.811C52.6104 169.566 52.9733 169.381 53.3955 169.255C53.8177 169.122 54.2658 169.055 54.7398 169.055ZM54.4954 174.244C54.9027 174.244 55.2546 174.155 55.5508 173.977C55.8471 173.792 56.0619 173.533 56.1952 173.199V172.377H54.5509C53.6473 172.377 53.1955 172.681 53.1955 173.288C53.1955 173.584 53.3103 173.818 53.5399 173.988C53.7695 174.158 54.088 174.244 54.4954 174.244ZM59.2355 166.756H60.3021V174.999H59.2355V166.756ZM9.81043 188.033V188.999H4.16655V181.222H9.65489V182.189H5.27755V184.577H9.17716V185.522H5.27755V188.033H9.81043ZM15.0788 188.999L13.379 186.744L11.6569 188.999H10.4682L12.7902 185.988L10.5793 183.111H11.768L13.3901 185.233L15.0011 183.111H16.1676L13.9456 185.988L16.2898 188.999H15.0788ZM20.5756 183.055C21.1459 183.055 21.657 183.181 22.1088 183.433C22.5606 183.685 22.9124 184.037 23.1642 184.488C23.4234 184.94 23.5531 185.462 23.5531 186.055C23.5531 186.648 23.4234 187.173 23.1642 187.633C22.9124 188.084 22.5606 188.436 22.1088 188.688C21.657 188.94 21.1459 189.066 20.5756 189.066C20.1534 189.066 19.7646 188.984 19.409 188.821C19.0609 188.658 18.7647 188.421 18.5202 188.11V191.154H17.4537V183.111H18.4758V184.044C18.7128 183.718 19.0128 183.474 19.3757 183.311C19.7386 183.14 20.1386 183.055 20.5756 183.055ZM20.4867 188.133C20.8644 188.133 21.2014 188.047 21.4977 187.877C21.8014 187.699 22.0384 187.455 22.2088 187.144C22.3865 186.825 22.4754 186.462 22.4754 186.055C22.4754 185.648 22.3865 185.288 22.2088 184.977C22.0384 184.659 21.8014 184.414 21.4977 184.244C21.2014 184.074 20.8644 183.989 20.4867 183.989C20.1164 183.989 19.7794 184.077 19.4757 184.255C19.1794 184.426 18.9424 184.666 18.7647 184.977C18.5943 185.288 18.5091 185.648 18.5091 186.055C18.5091 186.462 18.5943 186.825 18.7647 187.144C18.935 187.455 19.172 187.699 19.4757 187.877C19.7794 188.047 20.1164 188.133 20.4867 188.133ZM30.3484 186.088C30.3484 186.17 30.341 186.277 30.3262 186.411H25.5489C25.6155 186.929 25.8414 187.347 26.2266 187.666C26.6191 187.977 27.1043 188.133 27.682 188.133C28.3856 188.133 28.9522 187.896 29.3818 187.422L29.9707 188.11C29.704 188.421 29.3707 188.658 28.9708 188.821C28.5782 188.984 28.1375 189.066 27.6487 189.066C27.0265 189.066 26.4747 188.94 25.9933 188.688C25.5118 188.429 25.1378 188.07 24.8712 187.61C24.6119 187.151 24.4823 186.633 24.4823 186.055C24.4823 185.485 24.6082 184.97 24.8601 184.511C25.1193 184.051 25.4711 183.696 25.9155 183.444C26.3673 183.185 26.8747 183.055 27.4376 183.055C28.0005 183.055 28.5004 183.185 28.9374 183.444C29.3818 183.696 29.7262 184.051 29.9707 184.511C30.2225 184.97 30.3484 185.496 30.3484 186.088ZM27.4376 183.955C26.9265 183.955 26.4969 184.111 26.1488 184.422C25.8081 184.733 25.6081 185.14 25.5489 185.644H29.3263C29.267 185.148 29.0633 184.744 28.7152 184.433C28.3745 184.114 27.9486 183.955 27.4376 183.955ZM32.8515 184.1C33.0367 183.759 33.3107 183.5 33.6737 183.322C34.0366 183.144 34.4773 183.055 34.9958 183.055V184.089C34.9365 184.081 34.855 184.077 34.7513 184.077C34.1736 184.077 33.7181 184.251 33.3848 184.6C33.0589 184.94 32.896 185.429 32.896 186.066V188.999H31.8294V183.111H32.8515V184.1ZM36.3103 183.111H37.3769V188.999H36.3103V183.111ZM36.8436 181.978C36.6362 181.978 36.4621 181.911 36.3214 181.778C36.1881 181.644 36.1214 181.481 36.1214 181.289C36.1214 181.096 36.1881 180.933 36.3214 180.8C36.4621 180.659 36.6362 180.589 36.8436 180.589C37.051 180.589 37.2213 180.656 37.3546 180.789C37.4954 180.915 37.5657 181.074 37.5657 181.267C37.5657 181.467 37.4954 181.637 37.3546 181.778C37.2213 181.911 37.051 181.978 36.8436 181.978ZM44.735 186.088C44.735 186.17 44.7276 186.277 44.7128 186.411H39.9355C40.0021 186.929 40.228 187.347 40.6132 187.666C41.0057 187.977 41.4909 188.133 42.0686 188.133C42.7722 188.133 43.3388 187.896 43.7684 187.422L44.3572 188.11C44.0906 188.421 43.7573 188.658 43.3573 188.821C42.9648 188.984 42.5241 189.066 42.0352 189.066C41.4131 189.066 40.8613 188.94 40.3799 188.688C39.8984 188.429 39.5244 188.07 39.2577 187.61C38.9985 187.151 38.8689 186.633 38.8689 186.055C38.8689 185.485 38.9948 184.97 39.2466 184.511C39.5059 184.051 39.8577 183.696 40.3021 183.444C40.7539 183.185 41.2612 183.055 41.8242 183.055C42.3871 183.055 42.887 183.185 43.324 183.444C43.7684 183.696 44.1128 184.051 44.3572 184.511C44.6091 184.97 44.735 185.496 44.735 186.088ZM41.8242 183.955C41.3131 183.955 40.8835 184.111 40.5354 184.422C40.1947 184.733 39.9947 185.14 39.9355 185.644H43.7129C43.6536 185.148 43.4499 184.744 43.1018 184.433C42.7611 184.114 42.3352 183.955 41.8242 183.955ZM49.3601 183.055C50.1082 183.055 50.7007 183.274 51.1377 183.711C51.5821 184.14 51.8043 184.774 51.8043 185.611V188.999H50.7378V185.733C50.7378 185.162 50.6007 184.733 50.3267 184.444C50.0526 184.155 49.6601 184.011 49.149 184.011C48.5713 184.011 48.1158 184.181 47.7825 184.522C47.4492 184.855 47.2825 185.337 47.2825 185.966V188.999H46.216V183.111H47.2381V184C47.4529 183.696 47.7418 183.463 48.1047 183.3C48.475 183.137 48.8935 183.055 49.3601 183.055ZM56.3771 189.066C55.7772 189.066 55.2402 188.936 54.7662 188.677C54.2996 188.418 53.9329 188.062 53.6663 187.61C53.3996 187.151 53.2663 186.633 53.2663 186.055C53.2663 185.477 53.3996 184.963 53.6663 184.511C53.9329 184.051 54.2996 183.696 54.7662 183.444C55.2402 183.185 55.7772 183.055 56.3771 183.055C56.9104 183.055 57.3844 183.163 57.7992 183.377C58.2214 183.592 58.5473 183.903 58.7769 184.311L57.9659 184.833C57.7807 184.551 57.5511 184.34 57.277 184.2C57.003 184.059 56.6993 183.989 56.366 183.989C55.9809 183.989 55.6328 184.074 55.3217 184.244C55.018 184.414 54.7773 184.659 54.5995 184.977C54.4292 185.288 54.344 185.648 54.344 186.055C54.344 186.47 54.4292 186.836 54.5995 187.155C54.7773 187.466 55.018 187.707 55.3217 187.877C55.6328 188.047 55.9809 188.133 56.366 188.133C56.6993 188.133 57.003 188.062 57.277 187.921C57.5511 187.781 57.7807 187.57 57.9659 187.288L58.7769 187.799C58.5473 188.207 58.2214 188.521 57.7992 188.744C57.3844 188.958 56.9104 189.066 56.3771 189.066ZM65.3926 186.088C65.3926 186.17 65.3852 186.277 65.3704 186.411H60.5931C60.6598 186.929 60.8857 187.347 61.2708 187.666C61.6634 187.977 62.1485 188.133 62.7262 188.133C63.4299 188.133 63.9965 187.896 64.4261 187.422L65.0149 188.11C64.7482 188.421 64.4149 188.658 64.015 188.821C63.6224 188.984 63.1817 189.066 62.6929 189.066C62.0707 189.066 61.5189 188.94 61.0375 188.688C60.5561 188.429 60.182 188.07 59.9154 187.61C59.6562 187.151 59.5265 186.633 59.5265 186.055C59.5265 185.485 59.6525 184.97 59.9043 184.511C60.1635 184.051 60.5153 183.696 60.9597 183.444C61.4115 183.185 61.9189 183.055 62.4818 183.055C63.0447 183.055 63.5447 183.185 63.9817 183.444C64.4261 183.696 64.7705 184.051 65.0149 184.511C65.2667 184.97 65.3926 185.496 65.3926 186.088ZM62.4818 183.955C61.9707 183.955 61.5412 184.111 61.193 184.422C60.8523 184.733 60.6524 185.14 60.5931 185.644H64.3705C64.3113 185.148 64.1076 184.744 63.7595 184.433C63.4188 184.114 62.9929 183.955 62.4818 183.955Z" fill="black"/>
<path d="M6.688 82.128C5.568 82.128 4.55467 81.8827 3.648 81.392C2.752 80.8907 2.048 80.208 1.536 79.344C1.024 78.4693 0.768 77.488 0.768 76.4C0.768 75.312 1.024 74.336 1.536 73.472C2.048 72.5973 2.75733 71.9147 3.664 71.424C4.57067 70.9227 5.584 70.672 6.704 70.672C7.57867 70.672 8.37867 70.8213 9.104 71.12C9.82933 71.408 10.448 71.84 10.96 72.416L9.92 73.424C9.07733 72.5387 8.02667 72.096 6.768 72.096C5.936 72.096 5.184 72.2827 4.512 72.656C3.84 73.0293 3.312 73.5467 2.928 74.208C2.55467 74.8587 2.368 75.5893 2.368 76.4C2.368 77.2107 2.55467 77.9467 2.928 78.608C3.312 79.2587 3.84 79.7707 4.512 80.144C5.184 80.5173 5.936 80.704 6.768 80.704C8.016 80.704 9.06667 80.256 9.92 79.36L10.96 80.368C10.448 80.944 9.824 81.3813 9.088 81.68C8.36267 81.9787 7.56267 82.128 6.688 82.128ZM17.5465 73.44C18.6238 73.44 19.4772 73.7547 20.1065 74.384C20.7465 75.0027 21.0665 75.9147 21.0665 77.12V82H19.5305V77.296C19.5305 76.4747 19.3332 75.856 18.9385 75.44C18.5438 75.024 17.9785 74.816 17.2425 74.816C16.4105 74.816 15.7545 75.0613 15.2745 75.552C14.7945 76.032 14.5545 76.7253 14.5545 77.632V82H13.0185V70.128H14.5545V74.72C14.8745 74.3147 15.2905 74 15.8025 73.776C16.3252 73.552 16.9065 73.44 17.5465 73.44ZM26.9971 73.44C28.1705 73.44 29.0665 73.728 29.6851 74.304C30.3145 74.88 30.6291 75.7387 30.6291 76.88V82H29.1731V80.88C28.9171 81.2747 28.5491 81.5787 28.0691 81.792C27.5998 81.9947 27.0398 82.096 26.3891 82.096C25.4398 82.096 24.6771 81.8667 24.1011 81.408C23.5358 80.9493 23.2531 80.3467 23.2531 79.6C23.2531 78.8533 23.5251 78.256 24.0691 77.808C24.6131 77.3493 25.4771 77.12 26.6611 77.12H29.0931V76.816C29.0931 76.1547 28.9011 75.648 28.5171 75.296C28.1331 74.944 27.5678 74.768 26.8211 74.768C26.3198 74.768 25.8291 74.8533 25.3491 75.024C24.8691 75.184 24.4638 75.4027 24.1331 75.68L23.4931 74.528C23.9305 74.176 24.4531 73.9093 25.0611 73.728C25.6691 73.536 26.3145 73.44 26.9971 73.44ZM26.6451 80.912C27.2318 80.912 27.7385 80.784 28.1651 80.528C28.5918 80.2613 28.9011 79.888 29.0931 79.408V78.224H26.7251C25.4238 78.224 24.7731 78.6613 24.7731 79.536C24.7731 79.9627 24.9385 80.2987 25.2691 80.544C25.5998 80.7893 26.0585 80.912 26.6451 80.912ZM37.9996 73.44C39.077 73.44 39.9303 73.7547 40.5596 74.384C41.1996 75.0027 41.5196 75.9147 41.5196 77.12V82H39.9836V77.296C39.9836 76.4747 39.7863 75.856 39.3916 75.44C38.997 75.024 38.4316 74.816 37.6956 74.816C36.8636 74.816 36.2076 75.0613 35.7276 75.552C35.2476 76.032 35.0076 76.7253 35.0076 77.632V82H33.4716V73.52H34.9436V74.8C35.253 74.3627 35.669 74.0267 36.1916 73.792C36.725 73.5573 37.3276 73.44 37.9996 73.44ZM48.8903 73.44C49.9676 73.44 50.8209 73.7547 51.4503 74.384C52.0903 75.0027 52.4103 75.9147 52.4103 77.12V82H50.8743V77.296C50.8743 76.4747 50.6769 75.856 50.2823 75.44C49.8876 75.024 49.3223 74.816 48.5863 74.816C47.7543 74.816 47.0983 75.0613 46.6183 75.552C46.1383 76.032 45.8983 76.7253 45.8983 77.632V82H44.3623V73.52H45.8343V74.8C46.1436 74.3627 46.5596 74.0267 47.0823 73.792C47.6156 73.5573 48.2183 73.44 48.8903 73.44ZM62.9638 77.808C62.9638 77.9253 62.9531 78.08 62.9318 78.272H56.0518C56.1478 79.0187 56.4731 79.6213 57.0278 80.08C57.5931 80.528 58.2918 80.752 59.1238 80.752C60.1371 80.752 60.9531 80.4107 61.5718 79.728L62.4198 80.72C62.0358 81.168 61.5558 81.5093 60.9798 81.744C60.4144 81.9787 59.7798 82.096 59.0758 82.096C58.1798 82.096 57.3851 81.9147 56.6918 81.552C55.9984 81.1787 55.4598 80.6613 55.0758 80C54.7024 79.3387 54.5158 78.592 54.5158 77.76C54.5158 76.9387 54.6971 76.1973 55.0598 75.536C55.4331 74.8747 55.9398 74.3627 56.5798 74C57.2304 73.6267 57.9611 73.44 58.7718 73.44C59.5824 73.44 60.3024 73.6267 60.9318 74C61.5718 74.3627 62.0678 74.8747 62.4198 75.536C62.7824 76.1973 62.9638 76.9547 62.9638 77.808ZM58.7718 74.736C58.0358 74.736 57.4171 74.96 56.9158 75.408C56.4251 75.856 56.1371 76.4427 56.0518 77.168H61.4918C61.4064 76.4533 61.1131 75.872 60.6118 75.424C60.1211 74.9653 59.5078 74.736 58.7718 74.736ZM65.0966 70.128H66.6326V82H65.0966V70.128ZM71.9974 82.096C71.304 82.096 70.6374 82.0053 69.9974 81.824C69.3574 81.632 68.856 81.392 68.4934 81.104L69.1334 79.888C69.5067 80.1547 69.96 80.368 70.4934 80.528C71.0267 80.688 71.5654 80.768 72.1094 80.768C73.4534 80.768 74.1254 80.384 74.1254 79.616C74.1254 79.36 74.0347 79.1573 73.8534 79.008C73.672 78.8587 73.4427 78.752 73.1654 78.688C72.8987 78.6133 72.5147 78.5333 72.0134 78.448C71.3307 78.3413 70.7707 78.2187 70.3334 78.08C69.9067 77.9413 69.5387 77.7067 69.2294 77.376C68.92 77.0453 68.7654 76.5813 68.7654 75.984C68.7654 75.216 69.0854 74.6027 69.7254 74.144C70.3654 73.6747 71.224 73.44 72.3014 73.44C72.8667 73.44 73.432 73.5093 73.9974 73.648C74.5627 73.7867 75.0267 73.9733 75.3894 74.208L74.7334 75.424C74.04 74.976 73.224 74.752 72.2854 74.752C71.6347 74.752 71.1387 74.8587 70.7974 75.072C70.456 75.2853 70.2854 75.568 70.2854 75.92C70.2854 76.1973 70.3814 76.416 70.5734 76.576C70.7654 76.736 71 76.8533 71.2774 76.928C71.5654 77.0027 71.9654 77.088 72.4774 77.184C73.16 77.3013 73.7094 77.4293 74.1254 77.568C74.552 77.696 74.9147 77.92 75.2134 78.24C75.512 78.56 75.6614 79.008 75.6614 79.584C75.6614 80.352 75.3307 80.9653 74.6694 81.424C74.0187 81.872 73.128 82.096 71.9974 82.096Z" fill="black"/>
<path d="M92.8459 114.999C87.0898 114.999 82.4109 119.678 82.4109 125.434C82.4109 131.19 87.0898 135.869 92.8459 135.869C98.602 135.869 103.281 131.19 103.281 125.434C103.281 119.678 98.602 114.999 92.8459 114.999ZM92.8459 116.275C97.9168 116.275 102.006 120.363 102.006 125.434C102.006 130.505 97.9168 134.594 92.8459 134.594C87.7751 134.594 83.6863 130.505 83.6863 125.434C83.6863 120.363 87.775 116.275 92.8459 116.275Z" fill="black"/>
<path d="M97.8389 128.767C98.1942 128.226 97.8097 127.712 97.3244 127.731C97.1028 127.74 96.9097 127.889 96.7882 128.072C95.9021 129.404 94.3723 130.072 92.846 130.072C91.3198 130.072 89.7899 129.404 88.9039 128.072C88.7824 127.889 88.5893 127.74 88.3677 127.731C87.8823 127.712 87.4979 128.226 87.8532 128.767C88.9874 130.496 90.9233 131.347 92.846 131.347C94.7687 131.347 96.7046 130.496 97.8389 128.767Z" fill="black"/>
<path d="M89.4718 121.376C88.8704 121.376 88.3704 121.876 88.3704 122.477C88.3704 123.079 88.8704 123.579 89.4718 123.579C90.0733 123.579 90.5733 123.079 90.5733 122.477C90.5733 121.876 90.0733 121.376 89.4718 121.376Z" fill="black"/>
<path d="M96.2192 121.376C95.6177 121.376 95.1177 121.876 95.1177 122.477C95.1177 123.079 95.6177 123.579 96.2192 123.579C96.8206 123.579 97.3206 123.079 97.3206 122.477C97.3206 121.876 96.8206 121.376 96.2192 121.376Z" fill="black"/>
<path d="M92.8459 165.651C87.0898 165.651 82.4109 170.33 82.4109 176.086C82.4109 181.842 87.0898 186.521 92.8459 186.521C98.602 186.521 103.281 181.842 103.281 176.086C103.281 170.33 98.602 165.651 92.8459 165.651ZM92.8459 166.917C97.9168 166.917 102.015 171.015 102.015 176.086C102.015 181.157 97.9168 185.255 92.8459 185.255C87.775 185.255 83.677 181.157 83.677 176.086C83.677 171.015 87.775 166.917 92.8459 166.917Z" fill="black"/>
<path d="M89.3021 178.892C88.9777 178.892 88.6716 179.218 88.6716 179.61C88.6716 180.003 88.9634 180.329 89.3021 180.329H96.3892C96.7279 180.329 97.0196 180.003 97.0196 179.61C97.0196 179.218 96.7136 178.892 96.3892 178.892H89.3021Z" fill="black"/>
<path d="M89.4718 172.028C88.8704 172.028 88.3704 172.528 88.3704 173.129C88.3704 173.731 88.8704 174.231 89.4718 174.231C90.0733 174.231 90.5733 173.731 90.5733 173.129C90.5733 172.528 90.0733 172.028 89.4718 172.028Z" fill="black"/>
<path d="M96.2192 172.028C95.6177 172.028 95.1177 172.528 95.1177 173.129C95.1177 173.731 95.6177 174.231 96.2192 174.231C96.8206 174.231 97.3206 173.731 97.3206 173.129C97.3206 172.528 96.8206 172.028 96.2192 172.028Z" fill="black"/>
<path d="M92.691 220.999C87.5602 220.999 83.3896 225.17 83.3896 230.3C83.3896 235.431 87.5602 239.602 92.691 239.602C97.8217 239.602 101.992 235.431 101.992 230.3C101.992 225.17 97.8217 220.999 92.691 220.999ZM92.691 222.128C97.211 222.128 100.864 225.781 100.864 230.3C100.864 234.82 97.211 238.473 92.691 238.473C88.171 238.473 84.5182 234.82 84.5182 230.3C84.5182 225.781 88.171 222.128 92.691 222.128Z" fill="black"/>
<path d="M92.6906 231.689C90.9768 231.692 89.2559 232.474 88.2402 234.053C88.0416 234.361 88.0754 234.754 88.3564 234.914C88.6542 235.084 88.9937 234.964 89.1768 234.682C89.969 233.465 91.3302 232.859 92.6906 232.856C94.051 232.852 95.4122 233.459 96.2044 234.676C96.3875 234.957 96.727 235.084 97.0248 234.914C97.3059 234.754 97.3397 234.354 97.141 234.046C96.1253 232.468 94.4044 231.685 92.6906 231.689Z" fill="black"/>
<path d="M89.684 226.683C89.1479 226.683 88.7021 227.129 88.7021 227.665C88.7021 228.201 89.1479 228.647 89.684 228.647C90.2201 228.647 90.6658 228.201 90.6658 227.665C90.6658 227.129 90.2201 226.683 89.684 226.683Z" fill="black"/>
<path d="M95.6984 226.683C95.1623 226.683 94.7166 227.129 94.7166 227.665C94.7166 228.201 95.1623 228.647 95.6984 228.647C96.2345 228.647 96.6802 228.201 96.6802 227.665C96.6802 227.129 96.2345 226.683 95.6984 226.683Z" fill="black"/>
<path d="M69 164C71.0198 164 74.1089 160.066 74.1089 139.41C74.1089 122.443 75.2376 104 81 104" stroke="black" stroke-opacity="0.35"/>
<path d="M70 194C72.0198 194 75.1089 197.934 75.1089 218.59C75.1089 235.557 76.2376 254 82 254" stroke="black" stroke-opacity="0.35"/>
<path d="M1 90H693.117" stroke="black" stroke-width="2" stroke-dasharray="10 10"/>
<path d="M1 90H693.117" stroke="black" stroke-width="2" stroke-dasharray="10 10"/>
<path d="M1 90H693.117" stroke="#D2D2D2" stroke-width="2" stroke-dasharray="10 10"/>
<path d="M171.018 76.7085L171.018 203.745" stroke="black" stroke-width="2" stroke-dasharray="6 6"/>
<path d="M171.018 76.7085L171.018 203.745" stroke="black" stroke-width="2" stroke-dasharray="6 6"/>
<path d="M171.018 76.7085L171.018 203.745" stroke="#D2D2D2" stroke-width="2" stroke-dasharray="6 6"/>
<path d="M523.98 76.7085L523.98 218.187" stroke="black" stroke-width="2" stroke-dasharray="6 6"/>
<path d="M523.98 76.7085L523.98 218.187" stroke="black" stroke-width="2" stroke-dasharray="6 6"/>
<path d="M523.98 76.7085L523.98 218.187" stroke="#D2D2D2" stroke-width="2" stroke-dasharray="6 6"/>
<path d="M171.006 72.2474C171.058 72.186 171.035 72.105 170.998 72.0391C171.037 72.1062 171.062 72.1875 171.006 72.2474Z" fill="black"/>
<path d="M174.573 72.1624C174.536 72.2043 174.462 72.2337 174.333 72.2438C174.311 72.2463 174.279 72.2463 174.24 72.249C174.139 72.2517 173.985 72.2542 173.789 72.2589C173.682 72.2589 173.564 72.2589 173.434 72.2616C173.236 72.2616 172.964 72.2616 172.644 72.264C172.171 72.2668 171.648 72.2668 171.129 72.2668C170.233 72.2668 169.359 72.264 168.813 72.2616C168.662 72.2616 168.537 72.2589 168.441 72.2589C168.126 72.2559 167.886 72.2517 167.763 72.2463C167.746 72.2463 167.727 72.2463 167.707 72.2438C167.685 72.2411 167.665 72.2386 167.648 72.2362C167.225 72.1774 167.56 71.837 167.56 71.837C167.56 71.837 168.074 71.4318 168.329 71.0279C168.329 71.0279 168.405 71.0252 168.476 70.4012C168.573 69.5179 168.659 68.8323 168.659 68.8323H173.381C173.381 68.8323 173.464 69.5179 173.565 70.4012C173.633 71.0252 173.709 71.0279 173.709 71.0279C173.949 71.4079 174.414 71.7879 174.472 71.835C174.475 71.835 174.478 71.8377 174.478 71.8377C174.478 71.8377 174.495 71.8547 174.517 71.8841C174.57 71.95 174.646 72.076 174.573 72.1624Z" fill="#494848"/>
<path d="M170.994 71.9393C171.01 71.9586 171.027 71.9836 171.042 72.0107C171.027 71.9841 171.01 71.9591 170.994 71.9393Z" fill="black"/>
<path d="M171.05 68.5114C170.274 68.5146 160.146 68.547 159.652 68.5114C159.139 68.4752 159.103 67.9573 159.103 67.9573V54.4002C159.103 53.9568 159.652 53.9314 159.652 53.9314H170.94H171.096H182.384C182.384 53.9314 182.933 53.9568 182.933 54.4002V67.9575C182.933 67.9575 182.897 68.4754 182.384 68.5114C181.901 68.5462 172.192 68.5149 171.05 68.5114ZM182.008 54.8436H160.055V67.3666H182.008V54.8436H182.008Z" fill="#494848"/>
<path d="M182.912 53.3385L215.5 23" stroke="#958F8F"/>
<path d="M533 50.4211L552.675 32.4312" stroke="#958F8F"/>
<path d="M182.115 39.2559L185.482 46.7328L184.625 47.5243L178.853 44.4018L181.508 50.4039L180.634 51.2105L173.448 47.2613L174.289 46.4849L180.12 49.7041L177.439 43.5752L178.19 42.8817L184.077 46.0952L181.34 39.972L182.115 39.2559ZM189.884 38.7051C189.939 38.765 190.007 38.8489 190.086 38.9569L186.577 42.1983C186.977 42.5339 187.427 42.688 187.926 42.6607C188.426 42.6229 188.888 42.408 189.312 42.016C189.829 41.5386 190.084 40.98 190.078 40.3403L190.978 40.4468C190.993 40.8563 190.909 41.2565 190.726 41.6476C190.548 42.0336 190.28 42.3925 189.921 42.7242C189.464 43.1463 188.973 43.4282 188.448 43.5698C187.919 43.7061 187.4 43.696 186.893 43.5395C186.391 43.3781 185.944 43.0851 185.552 42.6607C185.165 42.2418 184.908 41.7782 184.782 41.27C184.66 40.7568 184.678 40.2569 184.833 39.7704C184.989 39.2734 185.274 38.834 185.688 38.452C186.101 38.0701 186.556 37.8261 187.053 37.72C187.551 37.6035 188.045 37.631 188.536 37.8025C189.032 37.969 189.482 38.2699 189.884 38.7051ZM186.298 39.1131C185.923 39.4599 185.713 39.8656 185.668 40.3303C185.629 40.79 185.758 41.2249 186.057 41.6351L188.831 39.0722C188.451 38.7478 188.028 38.5895 187.561 38.5972C187.095 38.5944 186.674 38.7664 186.298 39.1131ZM191.207 33.354C191.626 32.9671 192.087 32.7128 192.59 32.5912C193.093 32.4697 193.59 32.4894 194.081 32.6505C194.578 32.8065 195.028 33.1021 195.43 33.5374C195.832 33.9727 196.093 34.4469 196.215 34.9602C196.336 35.4629 196.316 35.9601 196.155 36.4516C195.994 36.9432 195.704 37.3824 195.285 37.7694C194.964 38.0659 194.613 38.2747 194.231 38.3958C193.848 38.5169 193.46 38.5381 193.064 38.4595L193.698 39.1451L192.947 39.8386L187.354 33.7828L188.137 33.0591L190.338 35.4423C190.301 35.0529 190.361 34.6805 190.516 34.3251C190.667 33.9641 190.897 33.6405 191.207 33.354ZM194.587 37.1441C194.864 36.8878 195.054 36.5966 195.156 36.2704C195.259 35.9338 195.267 35.5934 195.181 35.2493C195.096 34.8948 194.915 34.5679 194.638 34.2686C194.362 33.9693 194.053 33.7658 193.711 33.6579C193.37 33.5395 193.03 33.5207 192.691 33.6016C192.358 33.6775 192.053 33.8436 191.775 34.0999C191.503 34.3511 191.313 34.6424 191.206 34.9736C191.098 35.3047 191.09 35.6451 191.181 35.9946C191.267 36.3388 191.448 36.6604 191.725 36.9597C192.001 37.2589 192.31 37.4678 192.651 37.5861C192.987 37.6991 193.327 37.7178 193.671 37.6424C194.009 37.5615 194.315 37.3954 194.587 37.1441ZM199.796 33.6035C199.442 33.9302 199.059 34.198 198.647 34.4071C198.23 34.6106 197.862 34.7244 197.541 34.7484L197.295 33.8266C197.611 33.7867 197.942 33.6819 198.29 33.5123C198.637 33.3426 198.95 33.1297 199.227 32.8734C199.913 32.2402 200.075 31.7277 199.713 31.336C199.592 31.2054 199.45 31.1447 199.288 31.154C199.125 31.1632 198.958 31.2169 198.786 31.3149C198.615 31.4024 198.381 31.5425 198.085 31.7352C197.687 32.0024 197.343 32.2037 197.055 32.339C196.772 32.4692 196.474 32.5229 196.16 32.5C195.846 32.477 195.549 32.3132 195.268 32.0085C194.906 31.6168 194.78 31.1532 194.89 30.6177C194.996 30.0768 195.323 29.5525 195.873 29.045C196.161 28.7786 196.482 28.5476 196.836 28.352C197.19 28.1564 197.514 28.033 197.81 27.9819L198.048 28.9112C197.483 29.0093 196.961 29.2795 196.483 29.7217C196.151 30.0283 195.948 30.3164 195.874 30.586C195.801 30.8556 195.847 31.0802 196.013 31.2598C196.143 31.4012 196.295 31.4676 196.469 31.4587C196.642 31.4499 196.817 31.3992 196.994 31.3066C197.176 31.209 197.42 31.0641 197.726 30.8718C198.13 30.6101 198.47 30.4165 198.748 30.2913C199.026 30.1556 199.316 30.099 199.62 30.1215C199.923 30.144 200.21 30.3022 200.481 30.596C200.843 30.9877 200.963 31.4564 200.842 32.0019C200.721 32.537 200.372 33.0709 199.796 33.6035ZM198.603 26.5984L199.387 25.8747L203.382 30.2003L202.599 30.924L198.603 26.5984ZM198.226 25.4041C198.074 25.5448 197.901 25.6139 197.707 25.6115C197.519 25.604 197.359 25.5295 197.229 25.388C197.098 25.2466 197.036 25.0816 197.044 24.8933C197.052 24.6944 197.132 24.5246 197.284 24.3839C197.436 24.2432 197.607 24.1766 197.795 24.1841C197.984 24.1811 198.144 24.2503 198.274 24.3918C198.41 24.5387 198.474 24.7116 198.466 24.9104C198.459 25.0988 198.379 25.2634 198.226 25.4041ZM207.077 26.3193C207.053 26.5227 206.982 26.7296 206.863 26.9398C206.74 27.1445 206.588 27.3298 206.409 27.4957C205.973 27.8977 205.528 28.0923 205.073 28.0794C204.617 28.0666 204.188 27.8425 203.786 27.4072L201.593 25.0323L200.858 25.7107L200.263 25.0659L200.997 24.3875L200.123 23.4408L200.906 22.7171L201.781 23.6638L203.021 22.5181L203.617 23.1628L202.376 24.3086L204.54 26.6509C204.756 26.8849 204.979 27.0117 205.209 27.0313C205.444 27.0459 205.67 26.9527 205.888 26.7517C206.127 26.5305 206.269 26.2741 206.312 25.9823L207.077 26.3193ZM210.048 20.0809C210.104 20.1407 210.171 20.2246 210.251 20.3326L206.741 23.574C207.142 23.9096 207.592 24.0638 208.091 24.0364C208.59 23.9986 209.052 23.7837 209.477 23.3917C209.994 22.9143 210.249 22.3557 210.243 21.7161L211.143 21.8225C211.158 22.232 211.074 22.6322 210.891 23.0233C210.713 23.4094 210.444 23.7682 210.085 24.0999C209.628 24.522 209.138 24.8039 208.613 24.9456C208.083 25.0818 207.565 25.0717 207.058 24.9152C206.556 24.7538 206.109 24.4609 205.717 24.0365C205.33 23.6175 205.073 23.1539 204.946 22.6457C204.825 22.1325 204.842 21.6326 204.998 21.1461C205.154 20.6491 205.439 20.2097 205.852 19.8277C206.266 19.4458 206.721 19.2018 207.218 19.0958C207.715 18.9792 208.209 19.0067 208.701 19.1782C209.197 19.3447 209.646 19.6456 210.048 20.0809ZM206.463 20.4888C206.087 20.8356 205.877 21.2413 205.833 21.706C205.793 22.1657 205.923 22.6007 206.221 23.0108L208.996 20.4479C208.616 20.1236 208.192 19.9652 207.726 19.9729C207.259 19.9701 206.838 20.1421 206.463 20.4888Z" fill="black"/>
<path d="M519.638 51.7734C518.456 51.7734 517.483 52.6554 517.359 53.8002H530.558C530.434 52.6554 529.461 51.7734 528.279 51.7734H519.638ZM517.351 54.8136V69.5079H530.566V54.8136H517.351ZM517.351 70.5213V71.2813C517.351 72.5445 518.371 73.5615 519.638 73.5615H528.279C529.546 73.5615 530.566 72.5445 530.566 71.2813V70.5213H517.351ZM523.958 71.2813C524.38 71.2813 524.721 71.6216 524.721 72.0414C524.721 72.4611 524.38 72.8014 523.958 72.8014C523.537 72.8014 523.196 72.4611 523.196 72.0414C523.196 71.6216 523.537 71.2813 523.958 71.2813Z" fill="#494848"/>
<rect x="421" y="93" width="112" height="16" fill="#60BC76"/>
<path d="M108.356 243.737V258.175H694.831V105.437C560.997 105.437 466.856 212.835 426.91 212.835C386.963 212.835 349.053 178.893 269.16 178.893C205.246 178.893 135.327 222.122 108.356 243.737Z" fill="#60BC76" fill-opacity="0.8"/>
<path d="M431.122 104.056H426.989L426.133 106H424.989L428.511 98.223H429.611L433.144 106H431.977L431.122 104.056ZM430.733 103.167L429.055 99.3562L427.378 103.167H430.733ZM437.337 98.223C438.344 98.223 439.137 98.4637 439.714 98.9451C440.292 99.4266 440.581 100.089 440.581 100.934C440.581 101.778 440.292 102.441 439.714 102.923C439.137 103.404 438.344 103.645 437.337 103.645H435.415V106H434.304V98.223H437.337ZM437.303 102.678C438.007 102.678 438.544 102.53 438.914 102.234C439.285 101.93 439.47 101.497 439.47 100.934C439.47 100.371 439.285 99.9413 438.914 99.6451C438.544 99.3414 438.007 99.1896 437.303 99.1896H435.415V102.678H437.303ZM445.246 98.223C446.253 98.223 447.046 98.4637 447.624 98.9451C448.201 99.4266 448.49 100.089 448.49 100.934C448.49 101.778 448.201 102.441 447.624 102.923C447.046 103.404 446.253 103.645 445.246 103.645H443.324V106H442.213V98.223H445.246ZM445.213 102.678C445.916 102.678 446.453 102.53 446.824 102.234C447.194 101.93 447.379 101.497 447.379 100.934C447.379 100.371 447.194 99.9413 446.824 99.6451C446.453 99.3414 445.916 99.1896 445.213 99.1896H443.324V102.678H445.213ZM453.215 98.223H456.492C457.314 98.223 458.044 98.3859 458.681 98.7118C459.318 99.0377 459.81 99.4969 460.158 100.089C460.514 100.675 460.692 101.349 460.692 102.111C460.692 102.874 460.514 103.552 460.158 104.145C459.81 104.73 459.318 105.185 458.681 105.511C458.044 105.837 457.314 106 456.492 106H453.215V98.223ZM456.425 105.033C457.055 105.033 457.607 104.911 458.081 104.667C458.562 104.422 458.933 104.082 459.192 103.645C459.451 103.2 459.581 102.689 459.581 102.111C459.581 101.534 459.451 101.026 459.192 100.589C458.933 100.145 458.562 99.8006 458.081 99.5562C457.607 99.3118 457.055 99.1896 456.425 99.1896H454.326V105.033H456.425ZM465.904 106.089C465.119 106.089 464.412 105.919 463.782 105.578C463.153 105.23 462.656 104.752 462.293 104.145C461.938 103.537 461.76 102.86 461.76 102.111C461.76 101.363 461.938 100.686 462.293 100.078C462.656 99.471 463.153 98.997 463.782 98.6563C464.412 98.3082 465.119 98.1341 465.904 98.1341C466.682 98.1341 467.385 98.3082 468.015 98.6563C468.645 98.997 469.137 99.471 469.493 100.078C469.848 100.678 470.026 101.356 470.026 102.111C470.026 102.867 469.848 103.548 469.493 104.156C469.137 104.756 468.645 105.23 468.015 105.578C467.385 105.919 466.682 106.089 465.904 106.089ZM465.904 105.1C466.474 105.1 466.986 104.97 467.437 104.711C467.897 104.452 468.256 104.096 468.515 103.645C468.782 103.185 468.915 102.674 468.915 102.111C468.915 101.549 468.782 101.041 468.515 100.589C468.256 100.13 467.897 99.771 467.437 99.5118C466.986 99.2525 466.474 99.1229 465.904 99.1229C465.334 99.1229 464.815 99.2525 464.349 99.5118C463.89 99.771 463.527 100.13 463.26 100.589C463.001 101.041 462.871 101.549 462.871 102.111C462.871 102.674 463.001 103.185 463.26 103.645C463.527 104.096 463.89 104.452 464.349 104.711C464.815 104.97 465.334 105.1 465.904 105.1ZM482.462 98.223L479.863 106H478.696L476.574 99.7895L474.452 106H473.263L470.663 98.223H471.808L473.908 104.545L476.096 98.223H477.118L479.263 104.578L481.407 98.223H482.462ZM490.51 98.223V106H489.599L484.932 100.201V106H483.821V98.223H484.732L489.399 104.022V98.223H490.51ZM492.837 98.223H493.948V105.033H498.159V106H492.837V98.223ZM502.804 106.089C502.019 106.089 501.311 105.919 500.682 105.578C500.052 105.23 499.556 104.752 499.193 104.145C498.837 103.537 498.66 102.86 498.66 102.111C498.66 101.363 498.837 100.686 499.193 100.078C499.556 99.471 500.052 98.997 500.682 98.6563C501.311 98.3082 502.019 98.1341 502.804 98.1341C503.581 98.1341 504.285 98.3082 504.915 98.6563C505.544 98.997 506.037 99.471 506.392 100.078C506.748 100.678 506.925 101.356 506.925 102.111C506.925 102.867 506.748 103.548 506.392 104.156C506.037 104.756 505.544 105.23 504.915 105.578C504.285 105.919 503.581 106.089 502.804 106.089ZM502.804 105.1C503.374 105.1 503.885 104.97 504.337 104.711C504.796 104.452 505.155 104.096 505.415 103.645C505.681 103.185 505.814 102.674 505.814 102.111C505.814 101.549 505.681 101.041 505.415 100.589C505.155 100.13 504.796 99.771 504.337 99.5118C503.885 99.2525 503.374 99.1229 502.804 99.1229C502.233 99.1229 501.715 99.2525 501.248 99.5118C500.789 99.771 500.426 100.13 500.159 100.589C499.9 101.041 499.771 101.549 499.771 102.111C499.771 102.674 499.9 103.185 500.159 103.645C500.426 104.096 500.789 104.452 501.248 104.711C501.715 104.97 502.233 105.1 502.804 105.1ZM513.47 104.056H509.337L508.482 106H507.337L510.859 98.223H511.959L515.492 106H514.326L513.47 104.056ZM513.081 103.167L511.404 99.3562L509.726 103.167H513.081ZM516.652 98.223H519.93C520.752 98.223 521.481 98.3859 522.118 98.7118C522.755 99.0377 523.248 99.4969 523.596 100.089C523.952 100.675 524.129 101.349 524.129 102.111C524.129 102.874 523.952 103.552 523.596 104.145C523.248 104.73 522.755 105.185 522.118 105.511C521.481 105.837 520.752 106 519.93 106H516.652V98.223ZM519.863 105.033C520.493 105.033 521.044 104.911 521.518 104.667C522 104.422 522.37 104.082 522.629 103.645C522.889 103.2 523.018 102.689 523.018 102.111C523.018 101.534 522.889 101.026 522.629 100.589C522.37 100.145 522 99.8006 521.518 99.5562C521.044 99.3118 520.493 99.1896 519.863 99.1896H517.763V105.033H519.863Z" fill="white"/>
<path d="M421.176 218.91L426.949 213.136L421.176 207.363L415.402 213.136L421.176 218.91ZM420.176 109.108L420.176 111.709L422.176 111.709L422.176 109.108L420.176 109.108ZM420.176 116.91L420.176 122.112L422.176 122.112L422.176 116.91L420.176 116.91ZM420.176 127.313L420.176 132.515L422.176 132.515L422.176 127.313L420.176 127.313ZM420.176 137.716L420.176 142.917L422.176 142.917L422.176 137.716L420.176 137.716ZM420.176 148.119L420.176 153.32L422.176 153.32L422.176 148.119L420.176 148.119ZM420.176 158.522L420.176 163.723L422.176 163.723L422.176 158.522L420.176 158.522ZM420.176 168.924L420.176 174.126L422.176 174.126L422.176 168.924L420.176 168.924ZM420.176 179.327L420.176 184.529L422.176 184.529L422.176 179.327L420.176 179.327ZM420.176 189.73L420.176 194.932L422.176 194.932L422.176 189.73L420.176 189.73ZM420.176 200.133L420.176 205.334L422.176 205.334L422.176 200.133L420.176 200.133ZM420.176 210.536L420.176 213.136L422.176 213.136L422.176 210.536L420.176 210.536Z" fill="black"/>
<rect x="676.718" y="292.999" width="16.6445" height="16.6445" fill="#6BC180"/>
<rect x="676.718" y="325.999" width="16.6445" height="16.6445" fill="#96D9A9"/>
<path d="M490.81 305.032V305.999H485.167V298.222H490.655V299.188H486.278V301.577H490.177V302.521H486.278V305.032H490.81ZM499.82 305.999L499.809 300.333L496.998 305.054H496.487L493.676 300.366V305.999H492.609V298.222H493.52L496.765 303.688L499.964 298.222H500.875L500.886 305.999H499.82ZM506.731 306.088C505.946 306.088 505.239 305.917 504.609 305.577C503.979 305.228 503.483 304.751 503.12 304.143C502.765 303.536 502.587 302.858 502.587 302.11C502.587 301.362 502.765 300.684 503.12 300.077C503.483 299.47 503.979 298.996 504.609 298.655C505.239 298.307 505.946 298.133 506.731 298.133C507.509 298.133 508.212 298.307 508.842 298.655C509.472 298.996 509.964 299.47 510.32 300.077C510.675 300.677 510.853 301.355 510.853 302.11C510.853 302.866 510.675 303.547 510.32 304.155C509.964 304.754 509.472 305.228 508.842 305.577C508.212 305.917 507.509 306.088 506.731 306.088ZM506.731 305.099C507.301 305.099 507.812 304.969 508.264 304.71C508.723 304.451 509.083 304.095 509.342 303.643C509.609 303.184 509.742 302.673 509.742 302.11C509.742 301.547 509.609 301.04 509.342 300.588C509.083 300.129 508.723 299.77 508.264 299.511C507.812 299.251 507.301 299.122 506.731 299.122C506.161 299.122 505.642 299.251 505.176 299.511C504.716 299.77 504.354 300.129 504.087 300.588C503.828 301.04 503.698 301.547 503.698 302.11C503.698 302.673 503.828 303.184 504.087 303.643C504.354 304.095 504.716 304.451 505.176 304.71C505.642 304.969 506.161 305.099 506.731 305.099ZM513.987 299.188H511.32V298.222H517.753V299.188H515.087V305.999H513.987V299.188ZM518.963 298.222H520.074V305.999H518.963V298.222ZM525.913 306.088C525.128 306.088 524.421 305.917 523.791 305.577C523.162 305.228 522.665 304.751 522.302 304.143C521.947 303.536 521.769 302.858 521.769 302.11C521.769 301.362 521.947 300.684 522.302 300.077C522.665 299.47 523.162 298.996 523.791 298.655C524.421 298.307 525.128 298.133 525.913 298.133C526.691 298.133 527.395 298.307 528.024 298.655C528.654 298.996 529.146 299.47 529.502 300.077C529.857 300.677 530.035 301.355 530.035 302.11C530.035 302.866 529.857 303.547 529.502 304.155C529.146 304.754 528.654 305.228 528.024 305.577C527.395 305.917 526.691 306.088 525.913 306.088ZM525.913 305.099C526.483 305.099 526.995 304.969 527.446 304.71C527.906 304.451 528.265 304.095 528.524 303.643C528.791 303.184 528.924 302.673 528.924 302.11C528.924 301.547 528.791 301.04 528.524 300.588C528.265 300.129 527.906 299.77 527.446 299.511C526.995 299.251 526.483 299.122 525.913 299.122C525.343 299.122 524.824 299.251 524.358 299.511C523.899 299.77 523.536 300.129 523.269 300.588C523.01 301.04 522.88 301.547 522.88 302.11C522.88 302.673 523.01 303.184 523.269 303.643C523.536 304.095 523.899 304.451 524.358 304.71C524.824 304.969 525.343 305.099 525.913 305.099ZM538.421 298.222V305.999H537.51L532.844 300.199V305.999H531.733V298.222H532.644L537.31 304.021V298.222H538.421ZM545.277 299.188H542.611V298.222H549.043V299.188H546.377V305.999H545.277V299.188ZM556.942 298.222V305.999H555.831V302.532H551.364V305.999H550.253V298.222H551.364V301.566H555.831V298.222H556.942ZM564.469 305.999L562.791 303.61C562.584 303.625 562.421 303.632 562.302 303.632H560.38V305.999H559.269V298.222H562.302C563.31 298.222 564.102 298.462 564.68 298.944C565.258 299.425 565.547 300.088 565.547 300.933C565.547 301.533 565.398 302.044 565.102 302.466C564.806 302.888 564.384 303.195 563.836 303.388L565.68 305.999H564.469ZM562.269 302.688C562.973 302.688 563.51 302.536 563.88 302.232C564.25 301.929 564.436 301.496 564.436 300.933C564.436 300.37 564.25 299.94 563.88 299.644C563.51 299.34 562.973 299.188 562.269 299.188H560.38V302.688H562.269ZM570.852 306.088C570.067 306.088 569.36 305.917 568.73 305.577C568.101 305.228 567.604 304.751 567.242 304.143C566.886 303.536 566.708 302.858 566.708 302.11C566.708 301.362 566.886 300.684 567.242 300.077C567.604 299.47 568.101 298.996 568.73 298.655C569.36 298.307 570.067 298.133 570.852 298.133C571.63 298.133 572.334 298.307 572.963 298.655C573.593 298.996 574.085 299.47 574.441 300.077C574.796 300.677 574.974 301.355 574.974 302.11C574.974 302.866 574.796 303.547 574.441 304.155C574.085 304.754 573.593 305.228 572.963 305.577C572.334 305.917 571.63 306.088 570.852 306.088ZM570.852 305.099C571.423 305.099 571.934 304.969 572.385 304.71C572.845 304.451 573.204 304.095 573.463 303.643C573.73 303.184 573.863 302.673 573.863 302.11C573.863 301.547 573.73 301.04 573.463 300.588C573.204 300.129 572.845 299.77 572.385 299.511C571.934 299.251 571.423 299.122 570.852 299.122C570.282 299.122 569.763 299.251 569.297 299.511C568.838 299.77 568.475 300.129 568.208 300.588C567.949 301.04 567.819 301.547 567.819 302.11C567.819 302.673 567.949 303.184 568.208 303.643C568.475 304.095 568.838 304.451 569.297 304.71C569.763 304.969 570.282 305.099 570.852 305.099ZM579.894 306.088C578.857 306.088 578.05 305.791 577.472 305.199C576.894 304.606 576.605 303.755 576.605 302.644V298.222H577.716V302.599C577.716 304.266 578.446 305.099 579.905 305.099C580.616 305.099 581.161 304.895 581.538 304.488C581.916 304.073 582.105 303.443 582.105 302.599V298.222H583.183V302.644C583.183 303.762 582.894 304.617 582.316 305.21C581.738 305.795 580.931 306.088 579.894 306.088ZM590.849 302.066H591.915V305.099C591.53 305.417 591.082 305.662 590.571 305.832C590.06 306.002 589.527 306.088 588.971 306.088C588.186 306.088 587.479 305.917 586.849 305.577C586.22 305.228 585.723 304.754 585.36 304.155C585.005 303.547 584.827 302.866 584.827 302.11C584.827 301.355 585.005 300.673 585.36 300.066C585.723 299.459 586.22 298.985 586.849 298.644C587.486 298.303 588.201 298.133 588.993 298.133C589.615 298.133 590.178 298.237 590.682 298.444C591.193 298.644 591.626 298.94 591.982 299.333L591.293 300.022C590.671 299.422 589.919 299.122 589.038 299.122C588.445 299.122 587.912 299.251 587.438 299.511C586.971 299.762 586.605 300.118 586.338 300.577C586.071 301.029 585.938 301.54 585.938 302.11C585.938 302.673 586.071 303.184 586.338 303.643C586.605 304.095 586.971 304.451 587.438 304.71C587.912 304.969 588.442 305.099 589.027 305.099C589.723 305.099 590.33 304.932 590.849 304.599V302.066ZM600.731 298.222V305.999H599.62V302.532H595.153V305.999H594.042V298.222H595.153V301.566H599.62V298.222H600.731ZM607.042 306.088C606.575 306.088 606.142 305.991 605.742 305.799C605.342 305.599 605.02 305.321 604.776 304.966L605.42 304.21C605.849 304.825 606.39 305.132 607.042 305.132C607.479 305.132 607.809 304.999 608.031 304.732C608.26 304.466 608.375 304.073 608.375 303.555V299.188H605.564V298.222H609.475V303.499C609.475 304.358 609.268 305.006 608.853 305.443C608.446 305.873 607.842 306.088 607.042 306.088ZM615.249 306.088C614.464 306.088 613.756 305.917 613.127 305.577C612.497 305.228 612.001 304.751 611.638 304.143C611.283 303.536 611.105 302.858 611.105 302.11C611.105 301.362 611.283 300.684 611.638 300.077C612.001 299.47 612.497 298.996 613.127 298.655C613.756 298.307 614.464 298.133 615.249 298.133C616.027 298.133 616.73 298.307 617.36 298.655C617.989 298.996 618.482 299.47 618.837 300.077C619.193 300.677 619.371 301.355 619.371 302.11C619.371 302.866 619.193 303.547 618.837 304.155C618.482 304.754 617.989 305.228 617.36 305.577C616.73 305.917 616.027 306.088 615.249 306.088ZM615.249 305.099C615.819 305.099 616.33 304.969 616.782 304.71C617.241 304.451 617.6 304.095 617.86 303.643C618.126 303.184 618.26 302.673 618.26 302.11C618.26 301.547 618.126 301.04 617.86 300.588C617.6 300.129 617.241 299.77 616.782 299.511C616.33 299.251 615.819 299.122 615.249 299.122C614.679 299.122 614.16 299.251 613.693 299.511C613.234 299.77 612.871 300.129 612.605 300.588C612.345 301.04 612.216 301.547 612.216 302.11C612.216 302.673 612.345 303.184 612.605 303.643C612.871 304.095 613.234 304.451 613.693 304.71C614.16 304.969 614.679 305.099 615.249 305.099ZM624.291 306.088C623.254 306.088 622.446 305.791 621.869 305.199C621.291 304.606 621.002 303.755 621.002 302.644V298.222H622.113V302.599C622.113 304.266 622.843 305.099 624.302 305.099C625.013 305.099 625.557 304.895 625.935 304.488C626.313 304.073 626.502 303.443 626.502 302.599V298.222H627.579V302.644C627.579 303.762 627.29 304.617 626.713 305.21C626.135 305.795 625.328 306.088 624.291 306.088ZM635.056 305.999L633.379 303.61C633.171 303.625 633.008 303.632 632.89 303.632H630.968V305.999H629.857V298.222H632.89C633.897 298.222 634.69 298.462 635.268 298.944C635.845 299.425 636.134 300.088 636.134 300.933C636.134 301.533 635.986 302.044 635.69 302.466C635.393 302.888 634.971 303.195 634.423 303.388L636.267 305.999H635.056ZM632.857 302.688C633.56 302.688 634.097 302.536 634.468 302.232C634.838 301.929 635.023 301.496 635.023 300.933C635.023 300.37 634.838 299.94 634.468 299.644C634.097 299.34 633.56 299.188 632.857 299.188H630.968V302.688H632.857ZM644.617 298.222V305.999H643.706L639.04 300.199V305.999H637.929V298.222H638.84L643.506 304.021V298.222H644.617ZM652.589 305.032V305.999H646.945V298.222H652.433V299.188H648.056V301.577H651.956V302.521H648.056V305.032H652.589ZM657.279 303.31V305.999H656.179V303.288L653.09 298.222H654.279L656.768 302.321L659.267 298.222H660.367L657.279 303.31Z" fill="black"/>
<path d="M490.81 336.032V336.999H485.167V329.222H490.655V330.188H486.278V332.577H490.177V333.521H486.278V336.032H490.81ZM499.82 336.999L499.809 331.333L496.998 336.054H496.487L493.676 331.366V336.999H492.609V329.222H493.52L496.765 334.688L499.964 329.222H500.875L500.886 336.999H499.82ZM506.731 337.088C505.946 337.088 505.239 336.917 504.609 336.577C503.979 336.228 503.483 335.751 503.12 335.143C502.765 334.536 502.587 333.858 502.587 333.11C502.587 332.362 502.765 331.684 503.12 331.077C503.483 330.47 503.979 329.996 504.609 329.655C505.239 329.307 505.946 329.133 506.731 329.133C507.509 329.133 508.212 329.307 508.842 329.655C509.472 329.996 509.964 330.47 510.32 331.077C510.675 331.677 510.853 332.355 510.853 333.11C510.853 333.866 510.675 334.547 510.32 335.155C509.964 335.754 509.472 336.228 508.842 336.577C508.212 336.917 507.509 337.088 506.731 337.088ZM506.731 336.099C507.301 336.099 507.812 335.969 508.264 335.71C508.723 335.451 509.083 335.095 509.342 334.643C509.609 334.184 509.742 333.673 509.742 333.11C509.742 332.547 509.609 332.04 509.342 331.588C509.083 331.129 508.723 330.77 508.264 330.511C507.812 330.251 507.301 330.122 506.731 330.122C506.161 330.122 505.642 330.251 505.176 330.511C504.716 330.77 504.354 331.129 504.087 331.588C503.828 332.04 503.698 332.547 503.698 333.11C503.698 333.673 503.828 334.184 504.087 334.643C504.354 335.095 504.716 335.451 505.176 335.71C505.642 335.969 506.161 336.099 506.731 336.099ZM513.987 330.188H511.32V329.222H517.753V330.188H515.087V336.999H513.987V330.188ZM518.963 329.222H520.074V336.999H518.963V329.222ZM525.913 337.088C525.128 337.088 524.421 336.917 523.791 336.577C523.162 336.228 522.665 335.751 522.302 335.143C521.947 334.536 521.769 333.858 521.769 333.11C521.769 332.362 521.947 331.684 522.302 331.077C522.665 330.47 523.162 329.996 523.791 329.655C524.421 329.307 525.128 329.133 525.913 329.133C526.691 329.133 527.395 329.307 528.024 329.655C528.654 329.996 529.146 330.47 529.502 331.077C529.857 331.677 530.035 332.355 530.035 333.11C530.035 333.866 529.857 334.547 529.502 335.155C529.146 335.754 528.654 336.228 528.024 336.577C527.395 336.917 526.691 337.088 525.913 337.088ZM525.913 336.099C526.483 336.099 526.995 335.969 527.446 335.71C527.906 335.451 528.265 335.095 528.524 334.643C528.791 334.184 528.924 333.673 528.924 333.11C528.924 332.547 528.791 332.04 528.524 331.588C528.265 331.129 527.906 330.77 527.446 330.511C526.995 330.251 526.483 330.122 525.913 330.122C525.343 330.122 524.824 330.251 524.358 330.511C523.899 330.77 523.536 331.129 523.269 331.588C523.01 332.04 522.88 332.547 522.88 333.11C522.88 333.673 523.01 334.184 523.269 334.643C523.536 335.095 523.899 335.451 524.358 335.71C524.824 335.969 525.343 336.099 525.913 336.099ZM538.421 329.222V336.999H537.51L532.844 331.199V336.999H531.733V329.222H532.644L537.31 335.021V329.222H538.421ZM545.277 330.188H542.611V329.222H549.043V330.188H546.377V336.999H545.277V330.188ZM553.656 337.088C552.871 337.088 552.163 336.917 551.534 336.577C550.904 336.228 550.408 335.751 550.045 335.143C549.689 334.536 549.512 333.858 549.512 333.11C549.512 332.362 549.689 331.684 550.045 331.077C550.408 330.47 550.904 329.996 551.534 329.655C552.163 329.307 552.871 329.133 553.656 329.133C554.433 329.133 555.137 329.307 555.767 329.655C556.396 329.996 556.889 330.47 557.244 331.077C557.6 331.677 557.777 332.355 557.777 333.11C557.777 333.866 557.6 334.547 557.244 335.155C556.889 335.754 556.396 336.228 555.767 336.577C555.137 336.917 554.433 337.088 553.656 337.088ZM553.656 336.099C554.226 336.099 554.737 335.969 555.189 335.71C555.648 335.451 556.007 335.095 556.266 334.643C556.533 334.184 556.666 333.673 556.666 333.11C556.666 332.547 556.533 332.04 556.266 331.588C556.007 331.129 555.648 330.77 555.189 330.511C554.737 330.251 554.226 330.122 553.656 330.122C553.085 330.122 552.567 330.251 552.1 330.511C551.641 330.77 551.278 331.129 551.011 331.588C550.752 332.04 550.623 332.547 550.623 333.11C550.623 333.673 550.752 334.184 551.011 334.643C551.278 335.095 551.641 335.451 552.1 335.71C552.567 335.969 553.085 336.099 553.656 336.099ZM564.675 336.999L562.997 334.61C562.79 334.625 562.627 334.632 562.509 334.632H560.587V336.999H559.476V329.222H562.509C563.516 329.222 564.308 329.462 564.886 329.944C565.464 330.425 565.753 331.088 565.753 331.933C565.753 332.533 565.605 333.044 565.308 333.466C565.012 333.888 564.59 334.195 564.042 334.388L565.886 336.999H564.675ZM562.475 333.688C563.179 333.688 563.716 333.536 564.086 333.232C564.457 332.929 564.642 332.496 564.642 331.933C564.642 331.37 564.457 330.94 564.086 330.644C563.716 330.34 563.179 330.188 562.475 330.188H560.587V333.688H562.475ZM578.535 329.222L575.936 336.999H574.769L572.647 330.788L570.525 336.999H569.336L566.737 329.222H567.881L569.981 335.543L572.169 329.222H573.192L575.336 335.577L577.48 329.222H578.535ZM584.6 335.055H580.467L579.612 336.999H578.467L581.989 329.222H583.089L586.622 336.999H585.455L584.6 335.055ZM584.211 334.166L582.534 330.355L580.856 334.166H584.211ZM592.982 336.999L591.304 334.61C591.097 334.625 590.934 334.632 590.815 334.632H588.893V336.999H587.782V329.222H590.815C591.822 329.222 592.615 329.462 593.193 329.944C593.77 330.425 594.059 331.088 594.059 331.933C594.059 332.533 593.911 333.044 593.615 333.466C593.319 333.888 592.896 334.195 592.348 334.388L594.193 336.999H592.982ZM590.782 333.688C591.485 333.688 592.022 333.536 592.393 333.232C592.763 332.929 592.948 332.496 592.948 331.933C592.948 331.37 592.763 330.94 592.393 330.644C592.022 330.34 591.485 330.188 590.782 330.188H588.893V333.688H590.782ZM595.854 329.222H599.132C599.954 329.222 600.683 329.385 601.32 329.711C601.957 330.037 602.45 330.496 602.798 331.088C603.154 331.673 603.331 332.347 603.331 333.11C603.331 333.873 603.154 334.551 602.798 335.143C602.45 335.729 601.957 336.184 601.32 336.51C600.683 336.836 599.954 336.999 599.132 336.999H595.854V329.222ZM599.065 336.032C599.695 336.032 600.246 335.91 600.72 335.666C601.202 335.421 601.572 335.08 601.831 334.643C602.091 334.199 602.22 333.688 602.22 333.11C602.22 332.533 602.091 332.025 601.831 331.588C601.572 331.144 601.202 330.799 600.72 330.555C600.246 330.311 599.695 330.188 599.065 330.188H596.965V336.032H599.065ZM619.004 329.222L616.405 336.999H615.238L613.116 330.788L610.994 336.999H609.805L607.206 329.222H608.35L610.45 335.543L612.638 329.222H613.661L615.805 335.577L617.949 329.222H619.004ZM626.007 336.032V336.999H620.364V329.222H625.852V330.188H621.475V332.577H625.374V333.521H621.475V336.032H626.007ZM631.251 337.088C630.474 337.088 629.77 336.917 629.14 336.577C628.518 336.228 628.029 335.754 627.674 335.155C627.318 334.547 627.141 333.866 627.141 333.11C627.141 332.355 627.318 331.677 627.674 331.077C628.029 330.47 628.522 329.996 629.151 329.655C629.781 329.307 630.485 329.133 631.262 329.133C631.87 329.133 632.425 329.237 632.929 329.444C633.433 329.644 633.862 329.944 634.218 330.344L633.495 331.044C632.91 330.429 632.181 330.122 631.307 330.122C630.729 330.122 630.207 330.251 629.74 330.511C629.274 330.77 628.907 331.129 628.64 331.588C628.381 332.04 628.252 332.547 628.252 333.11C628.252 333.673 628.381 334.184 628.64 334.643C628.907 335.095 629.274 335.451 629.74 335.71C630.207 335.969 630.729 336.099 631.307 336.099C632.173 336.099 632.903 335.788 633.495 335.166L634.218 335.866C633.862 336.266 633.429 336.569 632.918 336.777C632.414 336.984 631.859 337.088 631.251 337.088ZM638.65 334.31V336.999H637.55V334.288L634.461 329.222H635.65L638.139 333.321L640.639 329.222H641.738L638.65 334.31ZM646.007 337.088C645.229 337.088 644.525 336.917 643.896 336.577C643.274 336.228 642.785 335.754 642.429 335.155C642.074 334.547 641.896 333.866 641.896 333.11C641.896 332.355 642.074 331.677 642.429 331.077C642.785 330.47 643.277 329.996 643.907 329.655C644.536 329.307 645.24 329.133 646.018 329.133C646.625 329.133 647.181 329.237 647.684 329.444C648.188 329.644 648.618 329.944 648.973 330.344L648.251 331.044C647.666 330.429 646.936 330.122 646.062 330.122C645.485 330.122 644.962 330.251 644.496 330.511C644.029 330.77 643.663 331.129 643.396 331.588C643.137 332.04 643.007 332.547 643.007 333.11C643.007 333.673 643.137 334.184 643.396 334.643C643.663 335.095 644.029 335.451 644.496 335.71C644.962 335.969 645.485 336.099 646.062 336.099C646.929 336.099 647.658 335.788 648.251 335.166L648.973 335.866C648.618 336.266 648.184 336.569 647.673 336.777C647.17 336.984 646.614 337.088 646.007 337.088ZM650.558 329.222H651.669V336.032H655.88V336.999H650.558V329.222ZM662.798 336.032V336.999H657.155V329.222H662.643V330.188H658.266V332.577H662.165V333.521H658.266V336.032H662.798Z" fill="black"/>
<path d="M533.34 41.5408L530.293 44.3331L530.976 46.3444L530.133 47.1176L527.475 39.0045L528.286 38.2614L536.145 41.6081L535.285 42.3963L533.34 41.5408ZM532.453 41.1483L528.642 39.4722L529.98 43.4151L532.453 41.1483ZM535.171 34.4381C535.592 34.0528 536.054 33.8003 536.557 33.6807C537.06 33.5611 537.557 33.5828 538.048 33.7458C538.544 33.9037 538.993 34.2011 539.393 34.638C539.793 35.0748 540.053 35.5501 540.172 36.0638C540.292 36.567 540.27 37.0641 540.107 37.555C539.944 38.0459 539.652 38.484 539.232 38.8693C538.921 39.1546 538.579 39.3572 538.207 39.4773C537.84 39.5923 537.462 39.6178 537.071 39.5536L539.128 41.7979L538.341 42.5184L532.907 36.5882L533.661 35.8977L534.291 36.5857C534.246 36.1853 534.302 35.8024 534.459 35.4371C534.612 35.0663 534.849 34.7333 535.171 34.4381ZM538.536 38.2414C538.814 37.9862 539.005 37.6957 539.109 37.3699C539.212 37.0337 539.222 36.6934 539.138 36.3489C539.053 35.994 538.874 35.6664 538.598 35.3661C538.323 35.0657 538.015 34.8609 537.674 34.7517C537.333 34.632 536.993 34.6119 536.654 34.6915C536.321 34.7661 536.015 34.9309 535.736 35.1861C535.463 35.4363 535.275 35.7296 535.171 36.0658C535.068 36.3915 535.056 36.7291 535.135 37.0786C535.219 37.423 535.399 37.7454 535.674 38.0457C535.95 38.3461 536.258 38.5561 536.598 38.6758C536.934 38.7901 537.274 38.8101 537.618 38.736C537.957 38.6564 538.263 38.4916 538.536 38.2414ZM540.754 29.3216C541.175 28.9363 541.637 28.6839 542.14 28.5643C542.643 28.4447 543.14 28.4664 543.631 28.6293C544.128 28.7873 544.576 29.0847 544.976 29.5215C545.377 29.9584 545.636 30.4337 545.755 30.9474C545.875 31.4506 545.853 31.9477 545.69 32.4386C545.527 32.9295 545.236 33.3676 544.815 33.7529C544.504 34.0381 544.162 34.2408 543.79 34.3608C543.423 34.4759 543.045 34.5013 542.654 34.4371L544.711 36.6814L543.925 37.402L538.49 31.4718L539.244 30.7812L539.874 31.4693C539.829 31.0689 539.885 30.686 540.042 30.3207C540.195 29.9499 540.432 29.6169 540.754 29.3216ZM544.119 33.1249C544.398 32.8697 544.589 32.5792 544.692 32.2535C544.796 31.9173 544.805 31.5769 544.721 31.2325C544.637 30.8776 544.457 30.55 544.182 30.2496C543.907 29.9493 543.598 29.7445 543.257 29.6353C542.916 29.5155 542.576 29.4955 542.237 29.575C541.904 29.6496 541.598 29.8145 541.319 30.0697C541.046 30.3199 540.858 30.6131 540.754 30.9493C540.651 31.2751 540.639 31.6127 540.718 31.9621C540.802 32.3066 540.982 32.629 541.258 32.9293C541.533 33.2296 541.841 33.4397 542.182 33.5594C542.517 33.6736 542.857 33.6937 543.201 33.6196C543.54 33.54 543.846 33.3751 544.119 33.1249Z" fill="black"/>
</svg>
