<svg width="94" height="118" viewBox="0 0 94 118" fill="none" xmlns="http://www.w3.org/2000/svg">
<path d="M81.9687 74.0574H12.0327C10.3736 74.0574 9.02466 72.7028 9.02466 71.0366V23.3646C9.02466 21.6985 10.3736 20.3438 12.0327 20.3438H81.9687C83.6278 20.3438 84.9767 21.6985 84.9767 23.3646V71.0366C84.9767 72.7028 83.6278 74.0574 81.9687 74.0574ZM12.0327 71.0366L82 71.5001L81.9687 23.3646H12.0327V71.0366Z" fill="#60BC76"/>
<path d="M47.0752 46.0001C46.3702 46.0001 45.6652 45.8284 45.1012 45.4817L10.058 24.0507C8.80313 23.2848 8.67153 21.9509 9.76193 21.0694C10.8523 20.1878 10.2451 21.2341 11.5 22L47.0752 44.5001L81.5 22.5C82.7502 21.7307 83.1383 20.1878 84.2334 21.0661C85.3285 21.9443 85.2016 23.2782 83.9467 24.0474L49.0539 45.4751C48.4852 45.8251 47.7802 46.0001 47.0752 46.0001Z" fill="#60BC76"/>
</svg>
