<svg width="114" height="113" viewBox="0 0 114 113" fill="none" xmlns="http://www.w3.org/2000/svg">
<g filter="url(#filter0_d_157_8)">
<rect width="105" height="105" rx="16" fill="url(#paint0_linear_157_8)" shape-rendering="crispEdges"/>
</g>
<path d="M76.417 27.1995C76.7683 27.4359 77.0925 27.6791 77.4506 27.9358L75.5387 29.8139C65.9796 39.1906 71.7624 49.5064 73.6472 53.0193C75.532 56.5322 75.1807 63.3351 68.9183 65.0983C62.6558 66.8615 59.1159 64.1188 58.008 60.9571C57.0014 58.0995 55.6976 59.606 55.6976 60.214C55.6976 83.0344 38.8829 86.6622 27.2565 77.7786C23.9666 81.0145 21.0482 83.9329 18.704 86.2838C18.1668 86.8211 17.8006 87.5054 17.6514 88.2503C17.5022 88.9953 17.5767 89.7678 17.8656 90.4705C18.1545 91.1732 18.6448 91.7748 19.2748 92.1995C19.9049 92.6241 20.6464 92.8529 21.4062 92.857C44.5171 92.857 88.2865 90.7831 88.2865 51.4047C88.2933 40.1905 83.0915 31.7257 76.417 27.1995Z" fill="#48AED7"/>
<path d="M50.5026 77.3652C50.3135 77.5814 50.1175 77.7908 49.9216 77.9868C50.1175 77.7908 50.3135 77.5814 50.5026 77.3652Z" fill="#60BC76"/>
<path d="M51.3403 76.3123C51.1376 76.5825 50.9349 76.8459 50.7188 77.0959C50.9552 76.8459 51.1579 76.5825 51.3403 76.3123Z" fill="#60BC76"/>
<path d="M55.7122 60.2122C55.7122 60.8607 55.6987 61.489 55.6716 62.097C55.6987 61.489 55.7122 60.8607 55.7122 60.2122Z" fill="#60BC76"/>
<path d="M52.1597 75.1431C51.9435 75.4944 51.7138 75.8186 51.4841 76.1631C51.7138 75.8389 51.9435 75.4944 52.1597 75.1431Z" fill="#60BC76"/>
<path d="M47.742 79.8115C47.5123 79.9601 47.2826 80.1088 47.0664 80.2506C47.2893 80.1088 47.5123 79.9601 47.742 79.8115Z" fill="#60BC76"/>
<path d="M54.0443 71.1426C53.889 71.5884 53.7201 72.0141 53.5444 72.4329C53.7336 72.0141 53.9025 71.5884 54.0443 71.1426Z" fill="#60BC76"/>
<path d="M53.4296 72.7231C53.2877 73.0407 53.1391 73.3514 52.9905 73.6554C53.1391 73.3514 53.2877 73.0407 53.4296 72.7231Z" fill="#60BC76"/>
<path d="M52.7999 74.0217L52.3337 74.8527L52.7999 74.0217Z" fill="#60BC76"/>
<path d="M43.5448 81.7297C43.2408 81.8108 42.9368 81.8784 42.6328 81.9459C42.9368 81.8784 43.2341 81.8108 43.5448 81.7297Z" fill="#60BC76"/>
<path d="M42.5039 81.9727C42.1459 82.0402 41.7811 82.0943 41.4163 82.1415C41.7811 82.0943 42.1459 82.0402 42.5039 81.9727Z" fill="#60BC76"/>
<path d="M46.7886 80.3999C46.4981 80.562 46.2076 80.7174 45.9104 80.8593C46.2076 80.7174 46.4981 80.562 46.7886 80.3999Z" fill="#60BC76"/>
<path d="M47.9636 79.6561C48.5707 79.2249 49.1443 78.7484 49.6795 78.2307C49.1443 78.7484 48.5707 79.2249 47.9636 79.6561Z" fill="#60BC76"/>
<path d="M39.1338 82.2417C39.4513 82.2417 39.7621 82.2417 40.0728 82.2417C39.7621 82.2485 39.4513 82.2485 39.1338 82.2417Z" fill="#60BC76"/>
<path d="M41.2684 82.1545C40.9576 82.1883 40.6401 82.2153 40.3293 82.2288C40.6401 82.2153 40.9576 82.1883 41.2684 82.1545Z" fill="#60BC76"/>
<path d="M54.5039 69.7439C54.3959 70.1155 54.281 70.4735 54.1594 70.8248C54.281 70.4735 54.3959 70.1155 54.5039 69.7439Z" fill="#60BC76"/>
<path d="M45.8414 80.8909C45.5103 81.0462 45.1658 81.1814 44.8416 81.3097C45.1793 81.1814 45.5103 81.0462 45.8414 80.8909Z" fill="#60BC76"/>
<path d="M44.6207 81.3921C44.3505 81.4867 44.0803 81.5745 43.8101 81.6488C44.0803 81.5745 44.3505 81.4867 44.6207 81.3921Z" fill="#60BC76"/>
<path d="M55.279 66.179C55.1979 66.7194 55.0966 67.2463 54.9885 67.7598C55.0966 67.2463 55.1979 66.7194 55.279 66.179Z" fill="#60BC76"/>
<path d="M35.3567 81.7351C34.5851 81.5552 33.8249 81.3296 33.0801 81.0596C33.8252 81.3287 34.5854 81.5542 35.3567 81.7351Z" fill="#60BC76"/>
<path d="M36.7163 82.0122C37.0811 82.073 37.4527 82.1271 37.8175 82.1608C37.4527 82.1271 37.0811 82.073 36.7163 82.0122Z" fill="#60BC76"/>
<path d="M36.4776 81.9732C36.1601 81.9192 35.8358 81.8517 35.5183 81.7773C35.8493 81.8517 36.1736 81.9192 36.4776 81.9732Z" fill="#60BC76"/>
<path d="M37.8301 82.1626C38.2151 82.2031 38.6002 82.2302 38.9785 82.2437C38.5935 82.2302 38.2084 82.2031 37.8301 82.1626Z" fill="#60BC76"/>
<path d="M29.5415 79.3391C30.2603 79.7653 31.0023 80.1509 31.7641 80.4943C31.0023 80.1509 30.2603 79.7653 29.5415 79.3391Z" fill="#60BC76"/>
<path d="M29.4252 79.2713C29.1077 79.0754 28.7834 78.8728 28.4727 78.6633C28.7834 78.8728 29.1077 79.0754 29.4252 79.2713Z" fill="#60BC76"/>
<path d="M31.9399 80.574C32.2642 80.7158 32.6155 80.8442 32.9127 80.9726C32.5817 80.8442 32.2642 80.7158 31.9399 80.574Z" fill="#60BC76"/>
<path d="M83.3088 12.8572C60.1979 12.8572 16.4285 14.9311 16.4285 54.3095C16.4285 65.5508 21.6573 74.0156 28.298 78.5418C27.9535 78.3054 27.6225 78.0621 27.2712 77.8054L29.183 75.9274C38.7354 66.5506 32.9526 56.2348 31.0678 52.7219C29.183 49.209 29.5343 42.4061 35.7967 40.6429C42.0592 38.8797 45.5991 41.6225 46.7138 44.7841C47.7204 47.6417 49.0174 46.1352 49.0174 45.5272C49.0174 22.7068 65.8321 19.0791 77.4652 27.9627L75.5534 29.8407C74.2005 31.1436 73.0444 32.6365 72.1216 34.2724C73.0444 32.6365 74.2005 31.1436 75.5534 29.8407C79.6067 25.8482 83.221 22.261 86.011 19.4574C86.5575 18.9216 86.932 18.235 87.0865 17.4854C87.241 16.7358 87.1687 15.9572 86.8787 15.2489C86.5887 14.5406 86.0943 13.9348 85.4584 13.5088C84.8225 13.0828 84.0742 12.8559 83.3088 12.8572Z" fill="#60BC76"/>
<path d="M58.9082 62.6657C58.5331 62.1411 58.2351 61.5656 58.0232 60.9565C58.2351 61.5656 58.5331 62.1411 58.9082 62.6657Z" fill="#60BC76"/>
<path d="M55.6368 62.6506C55.6368 63.0897 55.5828 63.5221 55.5422 63.941C55.5828 63.5221 55.6165 63.0897 55.6368 62.6506Z" fill="#60BC76"/>
<path d="M55.4954 64.49C55.4413 64.9764 55.3805 65.456 55.313 65.9154C55.3941 65.4696 55.4413 64.9764 55.4954 64.49Z" fill="#60BC76"/>
<path d="M54.8945 68.1711C54.8134 68.5427 54.7256 68.9075 54.6243 69.2655C54.7188 68.921 54.8134 68.5562 54.8945 68.1711Z" fill="#60BC76"/>
<path d="M70.6899 37.771C70.5386 38.34 70.4213 38.9175 70.3386 39.5004C70.4213 38.9175 70.5386 38.34 70.6899 37.771Z" fill="#60BC76"/>
<path d="M71.6552 35.1375C71.3811 35.7094 71.1442 36.2983 70.9458 36.9007C71.1442 36.2983 71.3811 35.7094 71.6552 35.1375Z" fill="#60BC76"/>
<path d="M61.5488 64.8752C62.8496 65.4689 64.2764 65.7334 65.7035 65.6454C64.2764 65.7334 62.8496 65.4689 61.5488 64.8752Z" fill="#60BC76"/>
<path d="M61.5491 64.8744C60.9013 64.5695 60.3062 64.1636 59.7859 63.6719C60.3062 64.1636 60.9013 64.5695 61.5491 64.8744Z" fill="#60BC76"/>
<path d="M51.9219 31.6919C52.0705 31.4081 52.2259 31.1379 52.388 30.8677C52.2259 31.1582 52.0705 31.4284 51.9219 31.6919Z" fill="#48AED7"/>
<path d="M54.2122 28.3752C54.4013 28.159 54.5972 27.9496 54.7931 27.7537C54.5972 27.9496 54.4013 28.159 54.2122 28.3752Z" fill="#48AED7"/>
<path d="M49.2275 41.2429C49.2748 40.7632 49.3356 40.2904 49.4032 39.8242C49.3154 40.2904 49.2748 40.7632 49.2275 41.2429Z" fill="#48AED7"/>
<path d="M53.3677 29.4267C53.5703 29.1565 53.7798 28.893 53.9892 28.6431C53.7663 28.893 53.5568 29.1565 53.3677 29.4267Z" fill="#48AED7"/>
<path d="M49.8215 37.5539C49.9094 37.1823 49.9972 36.8175 50.0918 36.4595C49.9904 36.8175 49.9094 37.1823 49.8215 37.5539Z" fill="#48AED7"/>
<path d="M50.6658 34.5962C50.8279 34.1504 50.99 33.7248 51.1657 33.3059C50.9833 33.718 50.8212 34.1504 50.6658 34.5962Z" fill="#48AED7"/>
<path d="M49.4358 39.5603C49.5236 39.0199 49.6182 38.4929 49.7263 37.9795C49.6182 38.4929 49.5236 39.0199 49.4358 39.5603Z" fill="#48AED7"/>
<path d="M50.22 35.994C50.3281 35.6224 50.4361 35.2644 50.5578 34.9131C50.4361 35.2644 50.3281 35.6224 50.22 35.994Z" fill="#48AED7"/>
<path d="M52.5579 30.5975C52.7808 30.2462 53.0037 29.9219 53.2334 29.5774C53.0037 29.9017 52.7808 30.2462 52.5579 30.5975Z" fill="#48AED7"/>
<path d="M56.7446 26.0964C56.1397 26.5277 55.5683 27.0042 55.0354 27.5219C55.5683 27.0042 56.1397 26.5277 56.7446 26.0964Z" fill="#48AED7"/>
<path d="M63.4487 23.5848C63.7595 23.551 64.077 23.524 64.3945 23.5105C64.077 23.524 63.7662 23.5848 63.4487 23.5848Z" fill="#48AED7"/>
<path d="M62.2109 23.7663C62.5757 23.6987 62.9405 23.6379 63.3053 23.5974C62.9405 23.6379 62.5757 23.6987 62.2109 23.7663Z" fill="#48AED7"/>
<path d="M58.8806 24.8476C59.2049 24.6922 59.5562 24.5571 59.8804 24.4287C59.5427 24.5571 59.2049 24.6922 58.8806 24.8476Z" fill="#48AED7"/>
<path d="M57.928 25.342C58.2185 25.1798 58.5157 25.0244 58.813 24.8826C58.5157 25.0244 58.2185 25.1798 57.928 25.342Z" fill="#48AED7"/>
<path d="M61.1768 24.0089C61.474 23.9278 61.778 23.8603 62.082 23.7927C61.778 23.8603 61.474 23.9278 61.1768 24.0089Z" fill="#48AED7"/>
<path d="M56.9834 25.9286L57.659 25.4895L56.9834 25.9286Z" fill="#48AED7"/>
<path d="M60.1233 24.3475C60.3868 24.253 60.657 24.1651 60.9272 24.0908C60.6367 24.1651 60.3665 24.2597 60.1233 24.3475Z" fill="#48AED7"/>
<path d="M51.2937 33.0429C51.4356 32.7254 51.5774 32.4146 51.7261 32.1106C51.5774 32.3673 51.4356 32.6983 51.2937 33.0429Z" fill="#48AED7"/>
<path d="M68.0083 23.725C67.6368 23.6642 67.2652 23.6102 66.9004 23.5764C67.2652 23.5832 67.6368 23.6642 68.0083 23.725Z" fill="#48AED7"/>
<path d="M66.8797 23.5835C66.4946 23.543 66.1163 23.516 65.7312 23.5024C66.1298 23.5092 66.5081 23.5362 66.8797 23.5835Z" fill="#48AED7"/>
<path d="M68.23 23.7664C68.5542 23.8204 68.9055 23.888 69.2028 23.9623C68.9055 23.888 68.5475 23.8204 68.23 23.7664Z" fill="#48AED7"/>
<path d="M69.3596 24.0039C70.1339 24.1818 70.8965 24.4074 71.643 24.6795C70.8965 24.4074 70.1339 24.1818 69.3596 24.0039Z" fill="#48AED7"/>
<path d="M75.1751 26.402C74.4593 25.9746 73.7195 25.5888 72.9592 25.2468C73.7195 25.5888 74.4593 25.9746 75.1751 26.402Z" fill="#48AED7"/>
<path d="M49.0774 43.0884C49.0774 42.6493 49.1314 42.2169 49.172 41.7981C49.1314 42.2169 49.1044 42.6493 49.0774 43.0884Z" fill="#48AED7"/>
<path d="M75.2891 26.4685C75.6133 26.6644 75.9308 26.8671 76.2483 27.0765C75.9308 26.8671 75.6133 26.6644 75.2891 26.4685Z" fill="#48AED7"/>
<path d="M72.7828 25.1652C72.4585 25.0233 72.1072 24.895 71.8032 24.7666C72.1342 24.895 72.4585 25.0233 72.7828 25.1652Z" fill="#48AED7"/>
<path d="M27.2849 77.792L29.0346 76.0693L27.2849 77.792Z" fill="#48AED7"/>
<path d="M34.3106 61.3479C33.9577 59.2676 33.3236 57.2449 32.4258 55.3354C33.3236 57.2449 33.9577 59.2676 34.3106 61.3479Z" fill="#48AED7"/>
<path d="M30.7446 52.0264C30.8411 52.257 30.9493 52.4824 31.0689 52.7019C31.4202 53.3775 31.9133 54.2557 32.42 55.3434C31.9201 54.2557 31.4269 53.364 31.0689 52.7019C30.9493 52.4824 30.8411 52.257 30.7446 52.0264Z" fill="#48AED7"/>
<path d="M49.0034 45.5139C49.0034 44.8383 49.0034 44.2506 49.0507 43.6426C49.0237 44.2506 49.0034 44.8721 49.0034 45.5139Z" fill="#48AED7"/>
<path d="M32.8111 42.1543C32.0887 42.7511 31.4898 43.4831 31.0479 44.3093C31.4898 43.4831 32.0887 42.7511 32.8111 42.1543Z" fill="#48AED7"/>
<path d="M30.0818 47.8174C30.0432 48.4121 30.0591 49.009 30.1291 49.6009C30.0591 49.009 30.0432 48.4121 30.0818 47.8174Z" fill="#48AED7"/>
<path d="M30.1296 49.6013C30.1928 50.1647 30.3082 50.7211 30.4742 51.2632C30.3082 50.7211 30.1928 50.1647 30.1296 49.6013Z" fill="#48AED7"/>
<path d="M34.3096 61.3469C34.4794 62.4077 34.5495 63.482 34.519 64.5558C34.5495 63.482 34.4794 62.4077 34.3096 61.3469Z" fill="#48AED7"/>
<defs>
<filter id="filter0_d_157_8" x="0" y="0" width="114" height="113" filterUnits="userSpaceOnUse" color-interpolation-filters="sRGB">
<feFlood flood-opacity="0" result="BackgroundImageFix"/>
<feColorMatrix in="SourceAlpha" type="matrix" values="0 0 0 0 0 0 0 0 0 0 0 0 0 0 0 0 0 0 127 0" result="hardAlpha"/>
<feOffset dx="5" dy="4"/>
<feGaussianBlur stdDeviation="2"/>
<feComposite in2="hardAlpha" operator="out"/>
<feColorMatrix type="matrix" values="0 0 0 0 0 0 0 0 0 0 0 0 0 0 0 0 0 0 0.25 0"/>
<feBlend mode="normal" in2="BackgroundImageFix" result="effect1_dropShadow_157_8"/>
<feBlend mode="normal" in="SourceGraphic" in2="effect1_dropShadow_157_8" result="shape"/>
</filter>
<linearGradient id="paint0_linear_157_8" x1="52.5" y1="105" x2="52.5" y2="-12.5" gradientUnits="userSpaceOnUse">
<stop stop-color="#2E3047"/>
<stop offset="1" stop-color="#2E3047" stop-opacity="0.67"/>
</linearGradient>
</defs>
</svg>
