<svg width="70" height="87" viewBox="0 0 70 87" fill="none" xmlns="http://www.w3.org/2000/svg">
<path d="M34.9999 62.9184C35.4969 62.9184 35.9939 62.7548 36.4069 62.4242C36.6134 62.2572 41.5309 58.2935 46.5044 52.1791C49.4479 48.5599 51.7999 44.9303 53.4939 41.3946C55.6639 36.8706 56.7629 32.4719 56.7629 28.3202C56.7629 25.4005 56.1889 22.5678 55.0514 19.8986C53.9559 17.3234 52.3879 15.0092 50.3894 13.0221C48.3909 11.0316 46.0634 9.47254 43.4699 8.3833C40.7854 7.25578 37.9364 6.68158 34.9999 6.68158C32.0634 6.68158 29.2144 7.2523 26.5299 8.3833C23.9399 9.47254 21.6124 11.0316 19.6139 13.0187C17.6154 15.0057 16.0474 17.3199 14.9519 19.8951C13.8179 22.5643 13.2404 25.397 13.2404 28.3167C13.2404 32.4684 14.3394 36.8671 16.5094 41.3911C18.2034 44.9268 20.5554 48.5564 23.4989 52.1756C28.4724 58.2935 33.3899 62.2572 33.5964 62.4208C34.0059 62.7548 34.5029 62.9184 34.9999 62.9184ZM34.9999 11.136C44.5304 11.136 52.2829 18.8442 52.2829 28.3202C52.2829 36.3103 47.2464 44.1821 43.0184 49.3812C39.8894 53.2301 36.7499 56.1985 34.9999 57.7541C33.2359 56.1846 30.0614 53.1814 26.9254 49.3116C22.7254 44.1334 17.7169 36.2859 17.7169 28.3202C17.7169 18.8442 25.4694 11.136 34.9999 11.136Z" fill="#60BC76"/>
<path d="M34.9998 39.5259C36.5083 39.5259 37.9748 39.2301 39.3538 38.6524C40.6873 38.0921 41.8808 37.2917 42.9098 36.2686C43.9353 35.2489 44.7438 34.0588 45.3073 32.7329C45.8918 31.3618 46.1858 29.9036 46.1858 28.4038C46.1858 26.9039 45.8883 25.4458 45.3073 24.0746C44.7438 22.7488 43.9388 21.5621 42.9098 20.539C41.8843 19.5193 40.6873 18.7154 39.3538 18.1552C37.9748 17.574 36.5083 17.2817 34.9998 17.2817C33.4913 17.2817 32.0248 17.5775 30.6458 18.1552C29.3123 18.7154 28.1188 19.5158 27.0898 20.539C26.0643 21.5586 25.2558 22.7488 24.6923 24.0746C24.1078 25.4458 23.8138 26.9039 23.8138 28.4038C23.8138 29.9036 24.1113 31.3618 24.6923 32.7329C25.2558 34.0588 26.0608 35.2455 27.0898 36.2686C28.1153 37.2882 29.3123 38.0921 30.6458 38.6524C32.0248 39.2335 33.4913 39.5259 34.9998 39.5259ZM34.9998 21.7361C38.6993 21.7361 41.7058 24.7289 41.7058 28.4038C41.7058 32.0786 38.6958 35.0714 34.9998 35.0714C31.3003 35.0714 28.2938 32.0786 28.2938 28.4038C28.2938 24.7289 31.3003 21.7361 34.9998 21.7361Z" fill="#60BC76"/>
</svg>
