<svg width="76" height="95" viewBox="0 0 76 95" fill="none" xmlns="http://www.w3.org/2000/svg">
<path d="M36.2216 52.5806C35.0892 52.5806 34.1734 51.6648 34.1734 50.5324C34.1734 47.8534 34.5534 45.5392 35.3096 43.5936C35.8644 42.1268 36.765 40.6486 38.0038 39.1552C38.9158 38.0684 40.5498 36.48 42.9134 34.3976C45.277 32.3114 46.8122 30.6508 47.5228 29.412C48.2334 28.1732 48.583 26.8204 48.583 25.3536C48.583 22.6974 47.5456 20.368 45.4746 18.3578C43.4036 16.3476 40.8614 15.3444 37.8518 15.3444C34.9448 15.3444 32.5166 16.2564 30.571 18.0766C29.1498 19.4066 28.082 21.2838 27.3752 23.7082C26.8888 25.3726 25.2662 26.4366 23.5448 26.2314C21.3636 25.973 19.9272 23.8146 20.5504 21.7056C21.508 18.4642 23.1116 15.8536 25.3574 13.87C28.4772 11.1074 32.604 9.72803 37.7378 9.72803C43.1718 9.72803 47.5076 11.2062 50.7452 14.1664C53.9828 17.1266 55.5978 20.7024 55.5978 24.8976C55.5978 27.3258 55.0278 29.564 53.8916 31.6084C52.7554 33.6566 50.5286 36.1456 47.2188 39.0792C44.9958 41.0514 43.5404 42.5068 42.8564 43.4416C42.1724 44.3764 41.667 45.4518 41.3402 46.664C41.097 47.5646 40.9298 48.887 40.8386 50.6236C40.7816 51.718 39.8734 52.5768 38.779 52.5768H36.2216V52.5806ZM33.7934 62.3846C33.7934 60.2376 35.5338 58.4972 37.6808 58.4972C39.8278 58.4972 41.5682 60.2376 41.5682 62.3846C41.5682 64.5316 39.8278 66.272 37.6808 66.272C35.5338 66.272 33.7934 64.5316 33.7934 62.3846Z" fill="#60BC76"/>
</svg>
