<svg width="69" height="86" viewBox="0 0 69 86" fill="none" xmlns="http://www.w3.org/2000/svg">
<path d="M26.7203 46.6774C24.1121 46.6774 21.566 46.182 19.1613 45.2085C16.667 44.2006 14.4314 42.7179 12.5132 40.8087C10.595 38.8961 9.11147 36.667 8.10062 34.1798C7.12082 31.7787 6.62402 29.2434 6.62402 26.6428C6.62402 24.0422 7.12082 21.5034 8.09717 19.1058C9.10802 16.6152 10.5915 14.3861 12.5097 12.4734C14.4279 10.5608 16.6635 9.0816 19.1579 8.07368C21.566 7.10016 24.1086 6.6048 26.7168 6.6048C29.325 6.6048 31.8711 7.10016 34.2758 8.07368C36.7701 9.0816 39.0057 10.5642 40.9239 12.4734C42.8421 14.3861 44.3256 16.6152 45.3365 19.1023C46.3128 21.5034 46.8096 24.0387 46.8096 26.6394C46.8096 29.24 46.3128 31.7787 45.3365 34.1764C44.3256 36.6635 42.8387 38.8926 40.9239 40.8053C39.0057 42.7179 36.7701 44.1971 34.2758 45.205C31.8711 46.1854 29.3285 46.6774 26.7203 46.6774ZM26.7203 11.0149C22.7045 11.0149 18.6887 12.5388 15.632 15.5866C12.6719 18.5382 11.04 22.4666 11.04 26.6428C11.04 30.819 12.6719 34.744 15.632 37.6955C18.5921 40.647 22.532 42.2742 26.7203 42.2742C30.9086 42.2742 34.845 40.647 37.8086 37.6955C40.7721 34.744 42.4005 30.8155 42.4005 26.6428C42.4005 22.4701 40.7687 18.5416 37.8086 15.5866C34.7484 12.5388 30.7326 11.0149 26.7203 11.0149Z" fill="#60BC76"/>
<path d="M60.168 62.1952C59.6022 62.1952 59.0364 61.9819 58.6051 61.5519L37.8051 40.8122C36.9426 39.9522 36.9426 38.559 37.8051 37.699C38.6676 36.839 40.0648 36.839 40.9273 37.699L61.7274 58.4387C62.5899 59.2987 62.5899 60.6919 61.7274 61.5519C61.2996 61.9785 60.7338 62.1952 60.168 62.1952Z" fill="#60BC76"/>
</svg>
