<svg width="33" height="37" viewBox="0 0 33 37" fill="none" xmlns="http://www.w3.org/2000/svg">
<path d="M15.6501 29.6219C15.5632 29.7212 15.4733 29.8173 15.3833 29.9073C15.4733 29.8173 15.5601 29.7212 15.6501 29.6219Z" fill="#59C377"/>
<path d="M16.044 29.138C15.9509 29.262 15.8548 29.383 15.7555 29.4978C15.8703 29.3706 15.9509 29.262 16.044 29.138Z" fill="#59C377"/>
<path d="M18.0417 21.7457C18.0417 22.0559 18.0417 22.3319 18.02 22.6142C18.0417 22.3319 18.0417 22.0435 18.0417 21.7457Z" fill="#59C377"/>
<path d="M16.4069 28.6013C16.3076 28.7626 16.2053 28.9115 16.0967 29.0697C16.2053 28.9208 16.3076 28.7502 16.4069 28.6013Z" fill="#59C377"/>
<path d="M14.3782 30.7448L14.068 30.9465L14.3782 30.7448Z" fill="#59C377"/>
<path d="M17.2817 26.7649C17.2072 26.9696 17.1328 27.165 17.0521 27.3574C17.1328 27.165 17.2072 26.9696 17.2817 26.7649Z" fill="#59C377"/>
<path d="M16.9901 27.4908C16.9249 27.6366 16.8598 27.7792 16.7885 27.9188C16.8598 27.7792 16.9249 27.6366 16.9901 27.4908Z" fill="#59C377"/>
<path d="M16.7016 28.0863C16.6333 28.2197 16.562 28.3438 16.4875 28.4679C16.562 28.3438 16.6333 28.2197 16.7016 28.0863Z" fill="#59C377"/>
<path d="M12.4579 31.6259C12.3214 31.6631 12.1818 31.6941 12.0422 31.7251C12.1756 31.6941 12.3152 31.6631 12.4579 31.6259Z" fill="#59C377"/>
<path d="M11.974 31.7375C11.8096 31.7686 11.6421 31.7934 11.4746 31.8151C11.6421 31.7934 11.8096 31.7686 11.974 31.7375Z" fill="#59C377"/>
<path d="M13.9408 31.0147C13.8105 31.0892 13.674 31.1605 13.5375 31.2257C13.674 31.1605 13.8105 31.0892 13.9408 31.0147Z" fill="#59C377"/>
<path d="M14.4929 30.6673C14.7707 30.4692 15.0331 30.2504 15.2778 30.0127C15.0331 30.2504 14.7707 30.4692 14.4929 30.6673Z" fill="#59C377"/>
<path d="M11.4064 31.8213C11.2637 31.8368 11.121 31.8492 10.9752 31.8554C11.121 31.8523 11.2637 31.8523 11.4064 31.8213Z" fill="#59C377"/>
<path d="M17.4834 26.1227C17.4337 26.2933 17.3841 26.4577 17.3282 26.6191C17.3841 26.4577 17.4213 26.2933 17.4834 26.1227Z" fill="#59C377"/>
<path d="M13.5065 31.2319C13.3576 31.3032 13.1963 31.3653 13.0474 31.4242C13.2025 31.3746 13.3576 31.3125 13.5065 31.2319Z" fill="#59C377"/>
<path d="M12.945 31.4707C12.824 31.5141 12.6999 31.5545 12.5758 31.5886C12.6999 31.5421 12.824 31.5141 12.945 31.4707Z" fill="#59C377"/>
<path d="M17.8432 24.4848C17.8029 24.733 17.7595 24.975 17.7098 25.2107C17.7595 24.975 17.8029 24.733 17.8432 24.4848Z" fill="#59C377"/>
<path d="M8.69201 31.6289C8.33794 31.5454 7.98891 31.4419 7.64661 31.3187C7.98891 31.4419 8.33794 31.5454 8.69201 31.6289Z" fill="#59C377"/>
<path d="M9.31555 31.7561C9.48617 31.784 9.65368 31.8089 9.8243 31.8244C9.66609 31.8089 9.48617 31.784 9.31555 31.7561Z" fill="#59C377"/>
<path d="M9.2163 31.7375C9.0674 31.7127 8.92161 31.6817 8.77271 31.6476C8.92161 31.6817 9.0674 31.7127 9.2163 31.7375Z" fill="#59C377"/>
<path d="M9.82739 31.8244C10.0011 31.843 10.1779 31.8554 10.3547 31.8616C10.1779 31.8523 10.0011 31.8523 9.82739 31.8244Z" fill="#59C377"/>
<path d="M6.02417 30.5277C6.35282 30.724 6.69254 30.9011 7.04165 31.0582C6.69254 30.9011 6.35282 30.724 6.02417 30.5277Z" fill="#59C377"/>
<path d="M5.97152 30.4967C5.82262 30.4067 5.66129 30.3137 5.53101 30.2175C5.6768 30.3012 5.82262 30.4067 5.97152 30.4967Z" fill="#59C377"/>
<path d="M7.12244 31.0954C7.27134 31.1605 7.43265 31.2195 7.56914 31.2784C7.42024 31.2319 7.27134 31.1605 7.12244 31.0954Z" fill="#59C377"/>
<path d="M30.7107 1.02529e-05C20.1016 1.02529e-05 0 0.952348 0 19.0344C0 24.1963 2.401 28.0832 5.45036 30.1616C5.29215 30.0531 5.14016 29.9414 4.97885 29.8235L5.85673 28.9611C10.2462 24.6554 7.59082 19.9185 6.72533 18.3055C5.85985 16.6924 6.01806 13.5686 8.8968 12.7589C11.7755 11.9493 13.3979 13.2087 13.9067 14.6605C14.3689 15.9727 14.9676 15.2809 14.9676 15.0017C14.9676 4.52286 22.6887 2.86013 28.0274 6.93628L27.1495 7.79867C26.5292 8.39698 25.9993 9.08251 25.5767 9.83365C25.9993 9.08251 26.5292 8.39698 27.1495 7.79867C29.0107 5.96534 30.6735 4.31813 31.9546 3.03076C32.2058 2.78453 32.3778 2.46898 32.4487 2.12448C32.5195 1.77998 32.486 1.42217 32.3525 1.0968C32.2189 0.771427 31.9914 0.493287 31.699 0.297913C31.4065 0.102538 31.0624 -0.00118725 30.7107 1.02529e-05Z" fill="#59C377"/>
<path d="M19.506 22.8717C19.3349 22.6302 19.1981 22.366 19.0996 22.0869C19.1981 22.366 19.3349 22.6302 19.506 22.8717Z" fill="#59C377"/>
<path d="M18.0075 22.8562C18.0075 23.0579 17.9796 23.2564 17.9641 23.4487C17.9796 23.2657 17.9951 23.0672 18.0075 22.8562Z" fill="#59C377"/>
<path d="M17.9394 23.7093C17.9177 23.9326 17.8898 24.1529 17.8588 24.3638C17.8898 24.1529 17.9177 23.9326 17.9394 23.7093Z" fill="#59C377"/>
<path d="M17.6664 25.4061C17.6261 25.5767 17.5858 25.7443 17.5424 25.9087C17.5858 25.7443 17.6261 25.5767 17.6664 25.4061Z" fill="#59C377"/>
<path d="M24.916 11.4437C24.8487 11.7042 24.7959 11.9683 24.7578 12.2347C24.7959 11.9683 24.8487 11.7042 24.916 11.4437Z" fill="#59C377"/>
<path d="M25.3596 10.2307C25.239 10.4937 25.1354 10.7641 25.0494 11.0404C25.1354 10.7641 25.239 10.4937 25.3596 10.2307Z" fill="#59C377"/>
<path d="M20.7219 23.8861C21.3181 24.1587 21.9723 24.2802 22.6266 24.2398C21.9723 24.2802 21.3181 24.1587 20.7219 23.8861Z" fill="#59C377"/>
<path d="M20.722 23.8861C20.4236 23.7479 20.15 23.5613 19.9124 23.3339C20.15 23.5613 20.4236 23.7479 20.722 23.8861Z" fill="#59C377"/>
<path d="M16.2985 8.65794C16.3698 8.52765 16.4412 8.40358 16.5125 8.2795C16.4412 8.40358 16.3698 8.52765 16.2985 8.65794Z" fill="#59C377"/>
<path d="M17.3531 7.12554C17.44 7.02628 17.5269 6.93012 17.6199 6.84016C17.5269 6.93012 17.44 7.03558 17.3531 7.12554Z" fill="#59C377"/>
<path d="M15.0607 13.035C15.0855 12.8138 15.1134 12.5966 15.1444 12.3836C15.1134 12.5966 15.0855 12.8138 15.0607 13.035Z" fill="#59C377"/>
<path d="M16.9591 7.60945C17.0522 7.48537 17.1452 7.3644 17.2445 7.24962C17.1452 7.3644 17.0522 7.48537 16.9591 7.60945Z" fill="#59C377"/>
<path d="M15.3367 11.3413C15.3739 11.1717 15.4142 11.0042 15.4576 10.8387C15.4142 11.0021 15.3739 11.1696 15.3367 11.3413Z" fill="#59C377"/>
<path d="M15.7213 9.98258C15.7927 9.77784 15.8702 9.58242 15.9509 9.39009C15.8702 9.58242 15.7927 9.77784 15.7213 9.98258Z" fill="#59C377"/>
<path d="M15.1599 12.2626C15.1971 12.0144 15.2437 11.7724 15.2933 11.5367C15.2499 11.7724 15.1971 12.0144 15.1599 12.2626Z" fill="#59C377"/>
<path d="M15.5167 10.6247C15.5664 10.4541 15.6191 10.2897 15.6718 10.1284C15.6191 10.2897 15.5602 10.4479 15.5167 10.6247Z" fill="#59C377"/>
<path d="M16.593 8.14615C16.6923 7.98484 16.7978 7.83593 16.9032 7.67773C16.8009 7.82663 16.6923 7.98484 16.593 8.14615Z" fill="#59C377"/>
<path d="M18.507 6.08009C18.2333 6.27629 17.9741 6.49193 17.7314 6.72533C17.9741 6.49193 18.2333 6.27629 18.507 6.08009Z" fill="#59C377"/>
<path d="M21.5936 4.92616C21.7363 4.91065 21.8821 4.89825 22.0248 4.89204C21.8821 4.89825 21.7363 4.91065 21.5936 4.92616Z" fill="#59C377"/>
<path d="M22.5739 4.8858C22.4281 4.8858 22.2854 4.8858 22.1396 4.8858C22.2854 4.88269 22.4281 4.88269 22.5739 4.8858Z" fill="#59C377"/>
<path d="M21.026 5.00986C21.1904 4.97884 21.3579 4.95403 21.5254 4.93231C21.3579 4.95403 21.1904 4.97884 21.026 5.00986Z" fill="#59C377"/>
<path d="M19.4935 5.50627C19.6455 5.43492 19.8037 5.37288 19.9526 5.31394C19.7975 5.37288 19.6455 5.43492 19.4935 5.50627Z" fill="#59C377"/>
<path d="M19.0592 5.73266C19.1926 5.65821 19.326 5.58686 19.4625 5.52172C19.326 5.58686 19.1926 5.65821 19.0592 5.73266Z" fill="#59C377"/>
<path d="M20.5482 5.12155C20.6878 5.08432 20.8243 5.0533 20.9639 5.02228C20.8336 5.0533 20.6878 5.08432 20.5482 5.12155Z" fill="#59C377"/>
<path d="M18.6219 6.00254C18.7274 5.93429 18.8329 5.86605 18.9322 5.80091C18.8329 5.86605 18.7274 5.93429 18.6219 6.00254Z" fill="#59C377"/>
<path d="M20.0551 5.27663C20.1791 5.2332 20.3001 5.19288 20.4273 5.15875C20.3001 5.19288 20.1791 5.2332 20.0551 5.27663Z" fill="#59C377"/>
<path d="M16.0099 9.25663C16.075 9.11084 16.1433 8.96814 16.2115 8.83165C16.1433 8.96814 16.075 9.11084 16.0099 9.25663Z" fill="#59C377"/>
<path d="M23.6875 4.99127C23.5169 4.96335 23.3463 4.93855 23.1757 4.92303C23.3463 4.93855 23.5169 4.96335 23.6875 4.99127Z" fill="#59C377"/>
<path d="M23.1757 4.92302C22.9999 4.90441 22.8231 4.892 22.6453 4.8858C22.8231 4.892 22.9999 4.90441 23.1757 4.92302Z" fill="#59C377"/>
<path d="M27.5496 6.58576C27.7078 6.69434 27.8598 6.80602 28.0211 6.9239L27.1432 7.78627C22.7569 12.092 25.4091 16.8289 26.2777 18.442C27.1463 20.0551 26.9819 23.1789 24.1062 23.9885C21.2306 24.7982 19.6051 23.5387 19.0933 22.0869C18.6311 20.7747 18.0355 21.4665 18.0355 21.7457C18.0355 32.2245 10.3143 33.8904 4.97255 29.8111C3.46493 31.297 2.12482 32.6371 1.04839 33.7167C0.801722 33.9634 0.633555 34.2776 0.565054 34.6196C0.496553 34.9617 0.530799 35.3165 0.663452 35.6391C0.796106 35.9618 1.02125 36.238 1.31055 36.433C1.59985 36.628 1.94035 36.7331 2.28923 36.735C12.9015 36.735 32.9999 35.7827 32.9999 17.7006C32.9999 12.5511 30.5989 8.66416 27.5496 6.58576Z" fill="#59C377"/>
<path d="M23.7837 5.0099C23.9326 5.03471 24.0939 5.06575 24.2304 5.09987C24.0815 5.06575 23.9357 5.03471 23.7837 5.0099Z" fill="#59C377"/>
<path d="M24.308 5.11846C24.6625 5.20016 25.0117 5.30376 25.3534 5.42867C25.0117 5.30376 24.6625 5.20016 24.308 5.11846Z" fill="#59C377"/>
<path d="M26.9788 6.21972C26.6488 6.02404 26.3081 5.84694 25.9583 5.68925C26.3081 5.84694 26.6488 6.02404 26.9788 6.21972Z" fill="#59C377"/>
<path d="M14.9956 13.8818C14.9956 13.6802 15.0204 13.4848 15.039 13.2893C15.0204 13.4848 15.0049 13.6802 14.9956 13.8818Z" fill="#59C377"/>
<path d="M27.0377 6.25076C27.1835 6.34072 27.3324 6.43379 27.4751 6.52995C27.3262 6.43379 27.1773 6.34072 27.0377 6.25076Z" fill="#59C377"/>
<path d="M25.8776 5.65511C25.7287 5.58687 25.5674 5.52793 25.4309 5.46899C25.5798 5.52793 25.7287 5.58687 25.8776 5.65511Z" fill="#59C377"/>
<path d="M4.98816 29.8173L5.7885 29.0263L4.98816 29.8173Z" fill="#59C377"/>
<path d="M8.21123 22.2668C8.0485 21.3153 7.75627 20.3906 7.34265 19.5184C7.75627 20.3906 8.0485 21.3153 8.21123 22.2668Z" fill="#59C377"/>
<path d="M6.56396 17.9859C6.60929 18.0919 6.66002 18.1954 6.71596 18.2961C6.87727 18.6063 7.10373 19.0096 7.33638 19.5091C7.10683 19.0096 6.88038 18.6001 6.71596 18.2961C6.66002 18.1954 6.60929 18.0919 6.56396 17.9859Z" fill="#59C377"/>
<path d="M14.9614 14.9955C14.9614 14.7008 14.9614 14.4154 14.98 14.1363C14.9676 14.4154 14.9614 14.7008 14.9614 14.9955Z" fill="#59C377"/>
<path d="M7.52564 13.4538C7.19306 13.7278 6.91701 14.0639 6.71289 14.4434C6.91701 14.0639 7.19306 13.7278 7.52564 13.4538Z" fill="#59C377"/>
<path d="M6.27236 16.0533C6.25465 16.3264 6.26192 16.6005 6.29407 16.8723C6.26192 16.6005 6.25465 16.3264 6.27236 16.0533Z" fill="#59C377"/>
<path d="M6.29419 16.8723C6.3237 17.1307 6.3756 17.386 6.44929 17.6354C6.3756 17.386 6.3237 17.1307 6.29419 16.8723Z" fill="#59C377"/>
<path d="M8.21118 22.2668C8.29024 22.7538 8.32347 23.2472 8.31045 23.7403C8.32347 23.2472 8.29024 22.7538 8.21118 22.2668Z" fill="#59C377"/>
</svg>
